<?xml version="1.0" encoding="UTF-8"?>
<svg xmlns="http://www.w3.org/2000/svg" xmlns:xlink="http://www.w3.org/1999/xlink" version="1.2" >
<font id="Luciole Bold Italic">
<font-face  font-family="Luciole" units-per-em="1000" ascent="791" descent="-224" font-style="italic" font-weight="600" font-stretch="normal" slope="-15" cap-height="763" x-height="545" underline-position="-130" underline-thickness="120" />
<missing-glyph  horiz-adv-x="840" d="M760 802 L760 -235 L80 -235 L80 802 L760 802 Z M670 712 L170 712 L170 -145 L670 -145 L670 712 Z M603 466 Q603 432 588 400 Q573 368 524 313 Q469 252 452 213 Q435 174 435 131 L334 131 Q333 185 351 231.5 Q369 278 426 343 Q464 387 475 409.5 Q486 432 486 455 Q486 498 461 522 Q436 546 392 546 Q352 546 309.5 529 Q267 512 237 484 L237 595 Q271 620 315 633.5 Q359 647 404 647 Q494 647 548.5 598.5 Q603 550 603 466 Z M463 -10 Q463 -42 440 -65 Q417 -88 385 -88 Q353 -88 330 -65 Q307 -42 307 -10 Q307 22 330 45 Q353 68 385 68 Q417 68 440 45 Q463 22 463 -10 Z " />
<glyph glyph-name="space" unicode="&#x20;" horiz-adv-x="390" d="" />
<glyph glyph-name="thinspace" unicode="&#x2009;" horiz-adv-x="180" d="" />
<glyph glyph-name="A" unicode="A" horiz-adv-x="774" d="M259 140 L179 0 L-53 0 L403 763 L631 763 L680 0 L461 0 L462 140 L259 140 Z M466 566 Q454 536 433.5 491 Q413 446 396 415 L334 304 L465 304 L466 415 Q467 460 469 505 Q471 550 473 566 L466 566 Z " />
<glyph glyph-name="Agrave" unicode="&#xc0;" horiz-adv-x="774" d="M545 807 L248 960 L378 1091 L628 905 L545 807 Z M259 140 L179 0 L-53 0 L403 763 L631 763 L680 0 L461 0 L462 140 L259 140 Z M466 566 Q454 536 433.5 491 Q413 446 396 415 L334 304 L465 304 L466 415 Q467 460 469 505 Q471 550 473 566 L466 566 Z " />
<glyph glyph-name="Aacute" unicode="&#xc1;" horiz-adv-x="774" d="M833 938 L499 799 L465 920 L771 1090 L833 938 Z M259 140 L179 0 L-53 0 L403 763 L631 763 L680 0 L461 0 L462 140 L259 140 Z M466 566 Q454 536 433.5 491 Q413 446 396 415 L334 304 L465 304 L466 415 Q467 460 469 505 Q471 550 473 566 L466 566 Z " />
<glyph glyph-name="Acircumflex" unicode="&#xc2;" horiz-adv-x="774" d="M571 919 L387 814 L321 904 L532 1066 L667 1066 L792 904 L696 814 L571 919 Z M259 140 L179 0 L-53 0 L403 763 L631 763 L680 0 L461 0 L462 140 L259 140 Z M466 566 Q454 536 433.5 491 Q413 446 396 415 L334 304 L465 304 L466 415 Q467 460 469 505 Q471 550 473 566 L466 566 Z " />
<glyph glyph-name="Atilde" unicode="&#xc3;" horiz-adv-x="774" d="M821 1041 Q803 938 755 885 Q707 832 633 832 Q611 832 591.5 839.5 Q572 847 544 869 Q526 883 517.5 887 Q509 891 501 891 Q476 891 463 878.5 Q450 866 438 830 L309 830 Q327 933 375 986 Q423 1039 498 1039 Q522 1039 542.5 1032 Q563 1025 593 1004 Q612 991 621 987 Q630 983 638 983 Q659 983 670.5 995.5 Q682 1008 692 1041 L821 1041 Z M259 140 L179 0 L-53 0 L403 763 L631 763 L680 0 L461 0 L462 140 L259 140 Z M466 566 Q454 536 433.5 491 Q413 446 396 415 L334 304 L465 304 L466 415 Q467 460 469 505 Q471 550 473 566 L466 566 Z " />
<glyph glyph-name="Adieresis" unicode="&#xc4;" horiz-adv-x="774" d="M530 944 Q519 902 482.5 873.5 Q446 845 402 845 Q359 845 337.5 873.5 Q316 902 327 944 Q338 987 375 1015.5 Q412 1044 456 1044 Q499 1044 520 1015.5 Q541 987 530 944 Z M808 944 Q797 902 760 873.5 Q723 845 679 845 Q636 845 614.5 873.5 Q593 902 604 944 Q615 986 652 1014.5 Q689 1043 732 1043 Q776 1043 797.5 1014.5 Q819 986 808 944 Z M259 140 L179 0 L-53 0 L403 763 L631 763 L680 0 L461 0 L462 140 L259 140 Z M466 566 Q454 536 433.5 491 Q413 446 396 415 L334 304 L465 304 L466 415 Q467 460 469 505 Q471 550 473 566 L466 566 Z " />
<glyph glyph-name="Aring" unicode="&#xc5;" horiz-adv-x="774" d="M592 1079 Q683 1077 731.5 1034 Q780 991 763 931 Q747 872 685.5 836 Q624 800 538 801 Q447 803 400 847 Q353 891 370 955 Q384 1010 446.5 1045 Q509 1080 592 1079 Z M579 989 Q543 990 518 977 Q493 964 487 941 Q481 919 499 905.5 Q517 892 553 891 Q589 890 614 903 Q639 916 645 939 Q651 961 633 974.5 Q615 988 579 989 Z M259 140 L179 0 L-53 0 L403 763 L631 763 L680 0 L461 0 L462 140 L259 140 Z M466 566 Q454 536 433.5 491 Q413 446 396 415 L334 304 L465 304 L466 415 Q467 460 469 505 Q471 550 473 566 L466 566 Z " />
<glyph glyph-name="Amacron" unicode="&#x100;" horiz-adv-x="774" d="M806 1010 L770 878 L328 878 L364 1010 L806 1010 Z M259 140 L179 0 L-53 0 L403 763 L631 763 L680 0 L461 0 L462 140 L259 140 Z M466 566 Q454 536 433.5 491 Q413 446 396 415 L334 304 L465 304 L466 415 Q467 460 469 505 Q471 550 473 566 L466 566 Z " />
<glyph glyph-name="Abreve" unicode="&#x102;" horiz-adv-x="774" d="M813 1043 Q787 938 719.5 880.5 Q652 823 552 823 Q450 823 400.5 888 Q351 953 376 1043 L498 1043 Q490 1004 509.5 981.5 Q529 959 573 959 Q617 959 648 981.5 Q679 1004 692 1043 L813 1043 Z M259 140 L179 0 L-53 0 L403 763 L631 763 L680 0 L461 0 L462 140 L259 140 Z M466 566 Q454 536 433.5 491 Q413 446 396 415 L334 304 L465 304 L466 415 Q467 460 469 505 Q471 550 473 566 L466 566 Z " />
<glyph glyph-name="Aogonek" unicode="&#x104;" horiz-adv-x="774" d="M623 -215 Q594 -225 560 -230.5 Q526 -236 492 -236 Q426 -236 392 -200 Q358 -164 373 -107 Q382 -73 404 -46 Q426 -19 460 0 L461 1 L462 140 L259 140 L179 0 L-53 0 L403 763 L631 763 L680 0 L681 0 Q631 -9 595 -32 Q559 -55 553 -79 Q549 -93 557 -100.5 Q565 -108 585 -108 Q601 -108 618.5 -104 Q636 -100 657 -91 L623 -215 Z M466 566 Q454 536 433.5 491 Q413 446 396 415 L334 304 L465 304 L466 415 Q467 460 469 505 Q471 550 473 566 L466 566 Z " />
<glyph glyph-name="Aringacute" unicode="&#x1fa;" horiz-adv-x="774" d="M771 1235 L437 1096 L403 1217 L709 1387 L771 1235 Z M590 1079 Q681 1077 729.5 1034 Q778 991 761 931 Q745 872 683.5 836 Q622 800 536 801 Q445 803 398 847 Q351 891 368 955 Q382 1010 444.5 1045 Q507 1080 590 1079 Z M577 989 Q541 990 516 977 Q491 964 485 941 Q479 919 497 905.5 Q515 892 551 891 Q587 890 612 903 Q637 916 643 939 Q649 961 631 974.5 Q613 988 577 989 Z M259 140 L179 0 L-53 0 L403 763 L631 763 L680 0 L461 0 L462 140 L259 140 Z M466 566 Q454 536 433.5 491 Q413 446 396 415 L334 304 L465 304 L466 415 Q467 460 469 505 Q471 550 473 566 L466 566 Z " />
<glyph glyph-name="AE" unicode="&#xc6;" horiz-adv-x="1015" d="M-82 0 L430 763 L1063 763 L1020 599 L757 599 L722 469 L973 469 L929 305 L678 305 L640 164 L934 164 L890 0 L378 0 L415 140 L232 140 L143 0 L-82 0 Z M531 609 L337 304 L459 304 L541 609 L531 609 Z " />
<glyph glyph-name="AEacute" unicode="&#x1fc;" horiz-adv-x="1015" d="M1055 938 L721 799 L687 920 L993 1090 L1055 938 Z M-82 0 L430 763 L1063 763 L1020 599 L757 599 L722 469 L973 469 L929 305 L678 305 L640 164 L934 164 L890 0 L378 0 L415 140 L232 140 L143 0 L-82 0 Z M531 609 L337 304 L459 304 L541 609 L531 609 Z " />
<glyph glyph-name="B" unicode="B" horiz-adv-x="724" d="M515 763 Q636 763 691 704 Q746 645 716 545 Q699 488 658 450.5 Q617 413 553 396 L553 394 Q616 383 644 326.5 Q672 270 651 191 Q627 101 545 50.5 Q463 0 336 0 L7 0 L211 763 L515 763 Z M351 470 L412 470 Q446 470 468 486.5 Q490 503 498 535 Q507 566 493.5 581.5 Q480 597 446 597 L385 597 L351 470 Z M269 166 L347 166 Q386 166 413 185.5 Q440 205 449 239 Q457 269 439.5 286.5 Q422 304 383 304 L306 304 L269 166 Z " />
<glyph glyph-name="C" unicode="C" horiz-adv-x="668" d="M304 405 Q275 295 301 235.5 Q327 176 402 175 Q452 174 509.5 190.5 Q567 207 617 236 L568 47 Q510 16 442 1 Q374 -14 313 -10 Q167 0 104.5 123.5 Q42 247 93 432 Q136 589 252.5 681 Q369 773 531 773 Q593 773 639.5 763 Q686 753 724 731 L671 537 Q639 564 603 576.5 Q567 589 519 589 Q437 589 382.5 542 Q328 495 304 405 Z " />
<glyph glyph-name="Ccedilla" unicode="&#xc7;" horiz-adv-x="668" d="M419 -107 Q404 -164 350.5 -200 Q297 -236 232 -236 Q198 -236 167 -230.5 Q136 -225 111 -215 L145 -91 Q162 -100 175.5 -104 Q189 -108 203 -108 Q224 -108 238.5 -96 Q253 -84 259 -63 Q263 -46 260 -30.5 Q257 -15 241 4 Q132 40 90.5 155.5 Q49 271 93 432 Q136 589 252.5 681 Q369 773 531 773 Q593 773 639.5 763 Q686 753 724 731 L671 537 Q639 564 603 576.5 Q567 589 519 589 Q437 589 382.5 542 Q328 495 304 405 Q275 295 301 235.5 Q327 176 402 175 Q452 174 509.5 190.5 Q567 207 617 236 L568 47 Q530 27 487.5 13.5 Q445 0 403 -6 Q406 -11 409 -15 Q412 -19 414 -24 Q423 -42 424.5 -62.5 Q426 -83 419 -107 Z " />
<glyph glyph-name="Cacute" unicode="&#x106;" horiz-adv-x="668" d="M816 938 L482 799 L448 920 L754 1090 L816 938 Z M304 405 Q275 295 301 235.5 Q327 176 402 175 Q452 174 509.5 190.5 Q567 207 617 236 L568 47 Q510 16 442 1 Q374 -14 313 -10 Q167 0 104.5 123.5 Q42 247 93 432 Q136 589 252.5 681 Q369 773 531 773 Q593 773 639.5 763 Q686 753 724 731 L671 537 Q639 564 603 576.5 Q567 589 519 589 Q437 589 382.5 542 Q328 495 304 405 Z " />
<glyph glyph-name="Ccircumflex" unicode="&#x108;" horiz-adv-x="668" d="M589 919 L405 814 L339 904 L550 1066 L685 1066 L810 904 L714 814 L589 919 Z M304 405 Q275 295 301 235.5 Q327 176 402 175 Q452 174 509.5 190.5 Q567 207 617 236 L568 47 Q510 16 442 1 Q374 -14 313 -10 Q167 0 104.5 123.5 Q42 247 93 432 Q136 589 252.5 681 Q369 773 531 773 Q593 773 639.5 763 Q686 753 724 731 L671 537 Q639 564 603 576.5 Q567 589 519 589 Q437 589 382.5 542 Q328 495 304 405 Z " />
<glyph glyph-name="Cdotaccent" unicode="&#x10a;" horiz-adv-x="668" d="M592 942 Q579 892 535.5 858.5 Q492 825 442 825 Q390 825 364.5 858.5 Q339 892 352 942 Q366 992 409.5 1025 Q453 1058 504 1058 Q555 1058 580.5 1025 Q606 992 592 942 Z M304 405 Q275 295 301 235.5 Q327 176 402 175 Q452 174 509.5 190.5 Q567 207 617 236 L568 47 Q510 16 442 1 Q374 -14 313 -10 Q167 0 104.5 123.5 Q42 247 93 432 Q136 589 252.5 681 Q369 773 531 773 Q593 773 639.5 763 Q686 753 724 731 L671 537 Q639 564 603 576.5 Q567 589 519 589 Q437 589 382.5 542 Q328 495 304 405 Z " />
<glyph glyph-name="Ccaron" unicode="&#x10c;" horiz-adv-x="668" d="M573 953 L759 1065 L825 976 L614 814 L479 814 L361 982 L452 1061 L573 953 Z M304 405 Q275 295 301 235.5 Q327 176 402 175 Q452 174 509.5 190.5 Q567 207 617 236 L568 47 Q510 16 442 1 Q374 -14 313 -10 Q167 0 104.5 123.5 Q42 247 93 432 Q136 589 252.5 681 Q369 773 531 773 Q593 773 639.5 763 Q686 753 724 731 L671 537 Q639 564 603 576.5 Q567 589 519 589 Q437 589 382.5 542 Q328 495 304 405 Z " />
<glyph glyph-name="D" unicode="D" horiz-adv-x="775" d="M747 316 Q707 173 582.5 86.5 Q458 0 283 0 L7 0 L211 763 L474 763 Q657 763 731 642 Q805 521 747 316 Z M419 589 L383 589 L272 174 L330 174 Q404 174 460.5 224 Q517 274 539 353 Q571 473 541.5 531 Q512 589 419 589 Z " />
<glyph glyph-name="Dcaron" unicode="&#x10e;" horiz-adv-x="775" d="M542 953 L728 1065 L794 976 L583 814 L448 814 L330 982 L421 1061 L542 953 Z M747 316 Q707 173 582.5 86.5 Q458 0 283 0 L7 0 L211 763 L474 763 Q657 763 731 642 Q805 521 747 316 Z M419 589 L383 589 L272 174 L330 174 Q404 174 460.5 224 Q517 274 539 353 Q571 473 541.5 531 Q512 589 419 589 Z " />
<glyph glyph-name="Dcroat" unicode="&#x110;" horiz-adv-x="775" d="M747 316 Q707 173 582.5 86.5 Q458 0 283 0 L7 0 L91 313 L-1 313 L42 473 L133 473 L211 763 L474 763 Q657 763 731 642 Q805 521 747 316 Z M272 174 L330 174 Q404 174 460.5 224 Q517 274 539 353 Q571 473 541.5 531 Q512 589 419 589 L383 589 L352 473 L442 473 L399 313 L309 313 L272 174 Z " />
<glyph glyph-name="Eth" unicode="&#xd0;" horiz-adv-x="775" d="M747 316 Q707 173 582.5 86.5 Q458 0 283 0 L7 0 L91 313 L-1 313 L42 473 L133 473 L211 763 L474 763 Q657 763 731 642 Q805 521 747 316 Z M272 174 L330 174 Q404 174 460.5 224 Q517 274 539 353 Q571 473 541.5 531 Q512 589 419 589 L383 589 L352 473 L442 473 L399 313 L309 313 L272 174 Z " />
<glyph glyph-name="E" unicode="E" horiz-adv-x="644" d="M563 164 L519 0 L7 0 L211 763 L692 763 L649 599 L386 599 L351 469 L602 469 L558 305 L307 305 L269 164 L563 164 Z " />
<glyph glyph-name="Egrave" unicode="&#xc8;" horiz-adv-x="644" d="M526 807 L229 960 L359 1091 L609 905 L526 807 Z M563 164 L519 0 L7 0 L211 763 L692 763 L649 599 L386 599 L351 469 L602 469 L558 305 L307 305 L269 164 L563 164 Z " />
<glyph glyph-name="Eacute" unicode="&#xc9;" horiz-adv-x="644" d="M730 938 L396 799 L362 920 L668 1090 L730 938 Z M563 164 L519 0 L7 0 L211 763 L692 763 L649 599 L386 599 L351 469 L602 469 L558 305 L307 305 L269 164 L563 164 Z " />
<glyph glyph-name="Ecircumflex" unicode="&#xca;" horiz-adv-x="644" d="M516 919 L332 814 L266 904 L477 1066 L612 1066 L737 904 L641 814 L516 919 Z M563 164 L519 0 L7 0 L211 763 L692 763 L649 599 L386 599 L351 469 L602 469 L558 305 L307 305 L269 164 L563 164 Z " />
<glyph glyph-name="Edieresis" unicode="&#xcb;" horiz-adv-x="644" d="M475 944 Q464 902 427.5 873.5 Q391 845 347 845 Q304 845 282.5 873.5 Q261 902 272 944 Q283 987 320 1015.5 Q357 1044 401 1044 Q444 1044 465 1015.5 Q486 987 475 944 Z M753 944 Q742 902 705 873.5 Q668 845 624 845 Q581 845 559.5 873.5 Q538 902 549 944 Q560 986 597 1014.5 Q634 1043 677 1043 Q721 1043 742.5 1014.5 Q764 986 753 944 Z M563 164 L519 0 L7 0 L211 763 L692 763 L649 599 L386 599 L351 469 L602 469 L558 305 L307 305 L269 164 L563 164 Z " />
<glyph glyph-name="Emacron" unicode="&#x112;" horiz-adv-x="644" d="M751 1010 L715 878 L273 878 L309 1010 L751 1010 Z M563 164 L519 0 L7 0 L211 763 L692 763 L649 599 L386 599 L351 469 L602 469 L558 305 L307 305 L269 164 L563 164 Z " />
<glyph glyph-name="Ebreve" unicode="&#x114;" horiz-adv-x="644" d="M757 1043 Q731 938 663.5 880.5 Q596 823 496 823 Q394 823 344.5 888 Q295 953 320 1043 L442 1043 Q434 1004 453.5 981.5 Q473 959 517 959 Q561 959 592 981.5 Q623 1004 636 1043 L757 1043 Z M563 164 L519 0 L7 0 L211 763 L692 763 L649 599 L386 599 L351 469 L602 469 L558 305 L307 305 L269 164 L563 164 Z " />
<glyph glyph-name="Edotaccent" unicode="&#x116;" horiz-adv-x="644" d="M521 942 Q508 892 464.5 858.5 Q421 825 371 825 Q319 825 293.5 858.5 Q268 892 281 942 Q295 992 338.5 1025 Q382 1058 433 1058 Q484 1058 509.5 1025 Q535 992 521 942 Z M563 164 L519 0 L7 0 L211 763 L692 763 L649 599 L386 599 L351 469 L602 469 L558 305 L307 305 L269 164 L563 164 Z " />
<glyph glyph-name="Eogonek" unicode="&#x118;" horiz-adv-x="644" d="M453 -215 Q424 -225 390 -230.5 Q356 -236 322 -236 Q256 -236 222 -200 Q188 -164 203 -107 Q212 -73 234 -46 Q256 -19 290 0 L7 0 L211 763 L692 763 L649 599 L386 599 L351 469 L602 469 L558 305 L307 305 L269 164 L563 164 L519 0 L511 0 Q461 -9 425 -32 Q389 -55 383 -79 Q379 -93 387 -100.5 Q395 -108 415 -108 Q431 -108 448.5 -104 Q466 -100 487 -91 L453 -215 Z " />
<glyph glyph-name="Ecaron" unicode="&#x11a;" horiz-adv-x="644" d="M503 953 L689 1065 L755 976 L544 814 L409 814 L291 982 L382 1061 L503 953 Z M563 164 L519 0 L7 0 L211 763 L692 763 L649 599 L386 599 L351 469 L602 469 L558 305 L307 305 L269 164 L563 164 Z " />
<glyph glyph-name="F" unicode="F" horiz-adv-x="623" d="M211 763 L692 763 L649 599 L386 599 L351 469 L602 469 L558 305 L307 305 L225 0 L7 0 L211 763 Z " />
<glyph glyph-name="G" unicode="G" horiz-adv-x="775" d="M426 436 L739 436 L636 52 Q555 20 486.5 5 Q418 -10 349 -10 Q260 -10 193 26 Q126 62 92 129 Q63 187 60.5 263 Q58 339 83 432 Q127 596 248.5 684.5 Q370 773 549 773 Q624 773 678.5 763.5 Q733 754 795 728 L743 535 Q696 569 649 585 Q602 601 547 601 Q444 601 380.5 547.5 Q317 494 287 382 Q258 273 286.5 216.5 Q315 160 399 160 Q411 160 424 161.5 Q437 163 448 166 L477 272 L382 272 L426 436 Z " />
<glyph glyph-name="Gcircumflex" unicode="&#x11c;" horiz-adv-x="775" d="M613 919 L429 814 L363 904 L574 1066 L709 1066 L834 904 L738 814 L613 919 Z M426 436 L739 436 L636 52 Q555 20 486.5 5 Q418 -10 349 -10 Q260 -10 193 26 Q126 62 92 129 Q63 187 60.5 263 Q58 339 83 432 Q127 596 248.5 684.5 Q370 773 549 773 Q624 773 678.5 763.5 Q733 754 795 728 L743 535 Q696 569 649 585 Q602 601 547 601 Q444 601 380.5 547.5 Q317 494 287 382 Q258 273 286.5 216.5 Q315 160 399 160 Q411 160 424 161.5 Q437 163 448 166 L477 272 L382 272 L426 436 Z " />
<glyph glyph-name="Gbreve" unicode="&#x11e;" horiz-adv-x="775" d="M861 1043 Q835 938 767.5 880.5 Q700 823 600 823 Q498 823 448.5 888 Q399 953 424 1043 L546 1043 Q538 1004 557.5 981.5 Q577 959 621 959 Q665 959 696 981.5 Q727 1004 740 1043 L861 1043 Z M426 436 L739 436 L636 52 Q555 20 486.5 5 Q418 -10 349 -10 Q260 -10 193 26 Q126 62 92 129 Q63 187 60.5 263 Q58 339 83 432 Q127 596 248.5 684.5 Q370 773 549 773 Q624 773 678.5 763.5 Q733 754 795 728 L743 535 Q696 569 649 585 Q602 601 547 601 Q444 601 380.5 547.5 Q317 494 287 382 Q258 273 286.5 216.5 Q315 160 399 160 Q411 160 424 161.5 Q437 163 448 166 L477 272 L382 272 L426 436 Z " />
<glyph glyph-name="Gdotaccent" unicode="&#x120;" horiz-adv-x="775" d="M624 942 Q611 892 567.5 858.5 Q524 825 474 825 Q422 825 396.5 858.5 Q371 892 384 942 Q398 992 441.5 1025 Q485 1058 536 1058 Q587 1058 612.5 1025 Q638 992 624 942 Z M426 436 L739 436 L636 52 Q555 20 486.5 5 Q418 -10 349 -10 Q260 -10 193 26 Q126 62 92 129 Q63 187 60.5 263 Q58 339 83 432 Q127 596 248.5 684.5 Q370 773 549 773 Q624 773 678.5 763.5 Q733 754 795 728 L743 535 Q696 569 649 585 Q602 601 547 601 Q444 601 380.5 547.5 Q317 494 287 382 Q258 273 286.5 216.5 Q315 160 399 160 Q411 160 424 161.5 Q437 163 448 166 L477 272 L382 272 L426 436 Z " />
<glyph glyph-name="Gcommaaccent" unicode="&#x122;" horiz-adv-x="775" d="M426 436 L739 436 L636 52 Q555 20 486.5 5 Q418 -10 349 -10 Q260 -10 193 26 Q126 62 92 129 Q63 187 60.5 263 Q58 339 83 432 Q127 596 248.5 684.5 Q370 773 549 773 Q624 773 678.5 763.5 Q733 754 795 728 L743 535 Q696 569 649 585 Q602 601 547 601 Q444 601 380.5 547.5 Q317 494 287 382 Q258 273 286.5 216.5 Q315 160 399 160 Q411 160 424 161.5 Q437 163 448 166 L477 272 L382 272 L426 436 Z M419 -164 L177 -321 L114 -236 L312 -50 L419 -164 Z " />
<glyph glyph-name="H" unicode="H" horiz-adv-x="812" d="M305 300 L225 0 L7 0 L211 763 L429 763 L352 474 L568 474 L645 763 L863 763 L659 0 L441 0 L521 300 L305 300 Z " />
<glyph glyph-name="Hcircumflex" unicode="&#x124;" horiz-adv-x="812" d="M590 919 L406 814 L340 904 L551 1066 L686 1066 L811 904 L715 814 L590 919 Z M305 300 L225 0 L7 0 L211 763 L429 763 L352 474 L568 474 L645 763 L863 763 L659 0 L441 0 L521 300 L305 300 Z " />
<glyph glyph-name="Hbar" unicode="&#x126;" horiz-adv-x="762" d="M305 300 L225 0 L7 0 L153 545 L104 545 L132 654 L182 654 L211 763 L429 763 L400 654 L616 654 L645 763 L863 763 L834 654 L884 654 L856 545 L805 545 L659 0 L441 0 L521 300 L305 300 Z M352 474 L568 474 L587 545 L371 545 L352 474 Z " />
<glyph glyph-name="I" unicode="I" horiz-adv-x="563" d="M474 164 L430 0 L-13 0 L31 164 L144 164 L261 599 L148 599 L191 763 L634 763 L591 599 L479 599 L362 164 L474 164 Z " />
<glyph glyph-name="Igrave" unicode="&#xcc;" horiz-adv-x="563" d="M420 807 L123 960 L253 1091 L503 905 L420 807 Z M474 164 L430 0 L-13 0 L31 164 L144 164 L261 599 L148 599 L191 763 L634 763 L591 599 L479 599 L362 164 L474 164 Z " />
<glyph glyph-name="Iacute" unicode="&#xcd;" horiz-adv-x="563" d="M708 938 L374 799 L340 920 L646 1090 L708 938 Z M474 164 L430 0 L-13 0 L31 164 L144 164 L261 599 L148 599 L191 763 L634 763 L591 599 L479 599 L362 164 L474 164 Z " />
<glyph glyph-name="Icircumflex" unicode="&#xce;" horiz-adv-x="563" d="M465 919 L281 814 L215 904 L426 1066 L561 1066 L686 904 L590 814 L465 919 Z M474 164 L430 0 L-13 0 L31 164 L144 164 L261 599 L148 599 L191 763 L634 763 L591 599 L479 599 L362 164 L474 164 Z " />
<glyph glyph-name="Idieresis" unicode="&#xcf;" horiz-adv-x="563" d="M424 944 Q413 902 376.5 873.5 Q340 845 296 845 Q253 845 231.5 873.5 Q210 902 221 944 Q232 987 269 1015.5 Q306 1044 350 1044 Q393 1044 414 1015.5 Q435 987 424 944 Z M702 944 Q691 902 654 873.5 Q617 845 573 845 Q530 845 508.5 873.5 Q487 902 498 944 Q509 986 546 1014.5 Q583 1043 626 1043 Q670 1043 691.5 1014.5 Q713 986 702 944 Z M474 164 L430 0 L-13 0 L31 164 L144 164 L261 599 L148 599 L191 763 L634 763 L591 599 L479 599 L362 164 L474 164 Z " />
<glyph glyph-name="Itilde" unicode="&#x128;" horiz-adv-x="563" d="M715 1041 Q697 938 649 885 Q601 832 527 832 Q505 832 485.5 839.5 Q466 847 438 869 Q420 883 411.5 887 Q403 891 395 891 Q370 891 357 878.5 Q344 866 332 830 L203 830 Q221 933 269 986 Q317 1039 392 1039 Q416 1039 436.5 1032 Q457 1025 487 1004 Q506 991 515 987 Q524 983 532 983 Q553 983 564.5 995.5 Q576 1008 586 1041 L715 1041 Z M475 164 L431 0 L-12 0 L32 164 L145 164 L262 599 L149 599 L192 763 L635 763 L592 599 L480 599 L363 164 L475 164 Z " />
<glyph glyph-name="Imacron" unicode="&#x12a;" horiz-adv-x="563" d="M700 1010 L664 878 L222 878 L258 1010 L700 1010 Z M474 164 L430 0 L-13 0 L31 164 L144 164 L261 599 L148 599 L191 763 L634 763 L591 599 L479 599 L362 164 L474 164 Z " />
<glyph glyph-name="Ibreve" unicode="&#x12c;" horiz-adv-x="563" d="M706 1043 Q680 938 612.5 880.5 Q545 823 445 823 Q343 823 293.5 888 Q244 953 269 1043 L391 1043 Q383 1004 402.5 981.5 Q422 959 466 959 Q510 959 541 981.5 Q572 1004 585 1043 L706 1043 Z M474 164 L430 0 L-13 0 L31 164 L144 164 L261 599 L148 599 L191 763 L634 763 L591 599 L479 599 L362 164 L474 164 Z " />
<glyph glyph-name="Iogonek" unicode="&#x12e;" horiz-adv-x="563" d="M302 -215 Q273 -225 239 -230.5 Q205 -236 171 -236 Q105 -236 71 -200 Q37 -164 52 -107 Q61 -73 83 -46 Q105 -19 139 0 L-13 0 L31 164 L144 164 L261 599 L148 599 L191 763 L634 763 L591 599 L479 599 L362 164 L474 164 L430 0 L360 0 Q310 -9 274 -32 Q238 -55 232 -79 Q228 -93 236 -100.5 Q244 -108 264 -108 Q280 -108 297.5 -104 Q315 -100 336 -91 L302 -215 Z " />
<glyph glyph-name="Idot" unicode="&#x130;" horiz-adv-x="563" d="M474 942 Q461 892 417.5 858.5 Q374 825 324 825 Q272 825 246.5 858.5 Q221 892 234 942 Q248 992 291.5 1025 Q335 1058 386 1058 Q437 1058 462.5 1025 Q488 992 474 942 Z M474 164 L430 0 L-13 0 L31 164 L144 164 L261 599 L148 599 L191 763 L634 763 L591 599 L479 599 L362 164 L474 164 Z " />
<glyph glyph-name="IJ" unicode="&#x132;" horiz-adv-x="1166" d="M1093 297 Q1050 139 963 64.5 Q876 -10 733 -10 Q681 -10 624 -0.5 Q567 9 546 22 L599 219 Q633 197 671 186.5 Q709 176 743 179 Q805 184 832.5 212.5 Q860 241 879 314 L956 599 L723 599 L766 763 L1217 763 L1093 297 Z M474 164 L430 0 L-13 0 L31 164 L144 164 L261 599 L148 599 L191 763 L634 763 L591 599 L479 599 L362 164 L474 164 Z " />
<glyph glyph-name="J" unicode="J" horiz-adv-x="603" d="M530 297 Q487 139 400 64.5 Q313 -10 170 -10 Q118 -10 61 -0.5 Q4 9 -17 22 L36 219 Q70 197 108 186.5 Q146 176 180 179 Q242 184 269.5 212.5 Q297 241 316 314 L393 599 L160 599 L203 763 L654 763 L530 297 Z " />
<glyph glyph-name="Jcircumflex" unicode="&#x134;" horiz-adv-x="603" d="M487 919 L303 814 L237 904 L448 1066 L583 1066 L708 904 L612 814 L487 919 Z M530 297 Q487 139 400 64.5 Q313 -10 170 -10 Q118 -10 61 -0.5 Q4 9 -17 22 L36 219 Q70 197 108 186.5 Q146 176 180 179 Q242 184 269.5 212.5 Q297 241 316 314 L393 599 L160 599 L203 763 L654 763 L530 297 Z " />
<glyph glyph-name="K" unicode="K" horiz-adv-x="740" d="M303 291 L225 0 L7 0 L211 763 L429 763 L353 478 Q387 478 405 492 Q423 506 454 547 Q466 564 483.5 589 Q501 614 529 655 Q536 666 554.5 693 Q573 720 602 763 L850 763 L629 484 Q603 451 578 429.5 Q553 408 523 395 L522 391 Q537 380 550 355.5 Q563 331 575 292 L667 0 L432 0 Q424 35 420.5 53 Q417 71 413 86 Q407 113 402.5 133 Q398 153 395 169 Q387 199 381.5 219 Q376 239 370 252 Q361 274 349.5 282.5 Q338 291 303 291 Z " />
<glyph glyph-name="Kcommaaccent" unicode="&#x136;" horiz-adv-x="740" d="M303 291 L225 0 L7 0 L211 763 L429 763 L353 478 Q387 478 405 492 Q423 506 454 547 Q466 564 483.5 589 Q501 614 529 655 Q536 666 554.5 693 Q573 720 602 763 L850 763 L629 484 Q603 451 578 429.5 Q553 408 523 395 L522 391 Q537 380 550 355.5 Q563 331 575 292 L667 0 L432 0 Q424 35 420.5 53 Q417 71 413 86 Q407 113 402.5 133 Q398 153 395 169 Q387 199 381.5 219 Q376 239 370 252 Q361 274 349.5 282.5 Q338 291 303 291 Z M388 -164 L146 -321 L83 -236 L281 -50 L388 -164 Z " />
<glyph glyph-name="L" unicode="L" horiz-adv-x="614" d="M558 174 L511 0 L7 0 L211 763 L429 763 L272 174 L558 174 Z " />
<glyph glyph-name="Lacute" unicode="&#x139;" horiz-adv-x="614" d="M624 938 L290 799 L256 920 L562 1090 L624 938 Z M558 174 L511 0 L7 0 L211 763 L429 763 L272 174 L558 174 Z " />
<glyph glyph-name="Lcommaaccent" unicode="&#x13b;" horiz-adv-x="614" d="M558 174 L511 0 L7 0 L211 763 L429 763 L272 174 L558 174 Z M338 -164 L96 -321 L33 -236 L231 -50 L338 -164 Z " />
<glyph glyph-name="Lcaron" unicode="&#x13d;" horiz-adv-x="614" d="M748 883 L562 614 L446 653 L574 925 L748 883 Z M558 174 L511 0 L7 0 L211 763 L429 763 L272 174 L558 174 Z " />
<glyph glyph-name="Ldot" unicode="&#x13f;" horiz-adv-x="614" d="M558 174 L511 0 L7 0 L211 763 L429 763 L272 174 L558 174 Z M657 479 Q644 429 600.5 395.5 Q557 362 507 362 Q455 362 429.5 395.5 Q404 429 417 479 Q431 529 474.5 562 Q518 595 569 595 Q620 595 645.5 562 Q671 529 657 479 Z " />
<glyph glyph-name="Lslash" unicode="&#x141;" horiz-adv-x="614" d="M558 174 L511 0 L7 0 L61 204 L10 168 L10 298 L104 363 L211 763 L429 763 L372 549 L492 632 L492 502 L329 389 L272 174 L558 174 Z " />
<glyph glyph-name="M" unicode="M" horiz-adv-x="1022" d="M277 235 L211 0 L-8 0 L249 763 L468 763 L487 364 Q489 325 489.5 288 Q490 251 488 219 L492 219 Q506 251 525.5 288 Q545 325 569 364 L815 763 L1033 763 L884 0 L664 0 L726 235 Q739 284 752.5 331 Q766 378 780 422 L775 422 Q755 378 730 330.5 Q705 283 675 233 L538 0 L345 0 L330 234 Q327 284 326 331 Q325 378 326 422 L321 422 Q313 377 302 330 Q291 283 277 235 Z " />
<glyph glyph-name="N" unicode="N" horiz-adv-x="812" d="M299 315 L215 0 L7 0 L211 763 L411 763 L506 452 Q516 420 524.5 389 Q533 358 541 329 L545 330 Q551 361 557.5 391 Q564 421 572 451 L655 763 L863 763 L659 0 L459 0 L365 314 Q356 346 347.5 376.5 Q339 407 331 437 L326 436 Q321 406 314 375.5 Q307 345 299 315 Z " />
<glyph glyph-name="Ntilde" unicode="&#xd1;" horiz-adv-x="812" d="M840 1041 Q822 938 774 885 Q726 832 652 832 Q630 832 610.5 839.5 Q591 847 563 869 Q545 883 536.5 887 Q528 891 520 891 Q495 891 482 878.5 Q469 866 457 830 L328 830 Q346 933 394 986 Q442 1039 517 1039 Q541 1039 561.5 1032 Q582 1025 612 1004 Q631 991 640 987 Q649 983 657 983 Q678 983 689.5 995.5 Q701 1008 711 1041 L840 1041 Z M299 315 L215 0 L7 0 L211 763 L411 763 L506 452 Q516 420 524.5 389 Q533 358 541 329 L545 330 Q551 361 557.5 391 Q564 421 572 451 L655 763 L863 763 L659 0 L459 0 L365 314 Q356 346 347.5 376.5 Q339 407 331 437 L326 436 Q321 406 314 375.5 Q307 345 299 315 Z " />
<glyph glyph-name="Nacute" unicode="&#x143;" horiz-adv-x="812" d="M871 938 L537 799 L503 920 L809 1090 L871 938 Z M299 315 L215 0 L7 0 L211 763 L411 763 L506 452 Q516 420 524.5 389 Q533 358 541 329 L545 330 Q551 361 557.5 391 Q564 421 572 451 L655 763 L863 763 L659 0 L459 0 L365 314 Q356 346 347.5 376.5 Q339 407 331 437 L326 436 Q321 406 314 375.5 Q307 345 299 315 Z " />
<glyph glyph-name="Ncommaaccent" unicode="&#x145;" horiz-adv-x="812" d="M299 315 L215 0 L7 0 L211 763 L411 763 L506 452 Q516 420 524.5 389 Q533 358 541 329 L545 330 Q551 361 557.5 391 Q564 421 572 451 L655 763 L863 763 L659 0 L459 0 L365 314 Q356 346 347.5 376.5 Q339 407 331 437 L326 436 Q321 406 314 375.5 Q307 345 299 315 Z M430 -164 L188 -321 L125 -236 L323 -50 L430 -164 Z " />
<glyph glyph-name="Ncaron" unicode="&#x147;" horiz-adv-x="812" d="M579 953 L765 1065 L831 976 L620 814 L485 814 L367 982 L458 1061 L579 953 Z M299 315 L215 0 L7 0 L211 763 L411 763 L506 452 Q516 420 524.5 389 Q533 358 541 329 L545 330 Q551 361 557.5 391 Q564 421 572 451 L655 763 L863 763 L659 0 L459 0 L365 314 Q356 346 347.5 376.5 Q339 407 331 437 L326 436 Q321 406 314 375.5 Q307 345 299 315 Z " />
<glyph glyph-name="Eng" unicode="&#x14a;" horiz-adv-x="812" d="M659 0 L658 0 Q619 -120 547.5 -177.5 Q476 -235 366 -235 Q322 -235 270.5 -225.5 Q219 -216 199 -203 L251 -6 Q281 -25 314 -35.5 Q347 -46 376 -46 Q405 -46 424.5 -35.5 Q444 -25 459 0 L365 314 Q356 346 347.5 376.5 Q339 407 331 437 L326 436 Q321 406 314 375.5 Q307 345 299 315 L215 0 L7 0 L211 763 L411 763 L506 452 Q516 420 524.5 389 Q533 358 541 329 L545 330 Q551 361 557.5 391 Q564 421 572 451 L655 763 L863 763 L680 77 L669 37 Q668 34 667 30.5 Q666 27 665 24 L659 0 Z " />
<glyph glyph-name="O" unicode="O" horiz-adv-x="828" d="M814 350 Q767 175 642 81.5 Q517 -12 338 -6 Q175 0 101.5 117.5 Q28 235 75 412 Q122 587 246 681.5 Q370 776 548 769 Q714 764 788 646 Q862 528 814 350 Z M595 360 Q626 476 602.5 536.5 Q579 597 502 598 Q429 599 373.5 547 Q318 495 293 403 Q262 286 285 226 Q308 166 385 165 Q459 164 514.5 216 Q570 268 595 360 Z " />
<glyph glyph-name="Ograve" unicode="&#xd2;" horiz-adv-x="828" d="M599 807 L302 960 L432 1091 L682 905 L599 807 Z M814 350 Q767 175 642 81.5 Q517 -12 338 -6 Q175 0 101.5 117.5 Q28 235 75 412 Q122 587 246 681.5 Q370 776 548 769 Q714 764 788 646 Q862 528 814 350 Z M595 360 Q626 476 602.5 536.5 Q579 597 502 598 Q429 599 373.5 547 Q318 495 293 403 Q262 286 285 226 Q308 166 385 165 Q459 164 514.5 216 Q570 268 595 360 Z " />
<glyph glyph-name="Oacute" unicode="&#xd3;" horiz-adv-x="828" d="M855 938 L521 799 L487 920 L793 1090 L855 938 Z M814 350 Q767 175 642 81.5 Q517 -12 338 -6 Q175 0 101.5 117.5 Q28 235 75 412 Q122 587 246 681.5 Q370 776 548 769 Q714 764 788 646 Q862 528 814 350 Z M595 360 Q626 476 602.5 536.5 Q579 597 502 598 Q429 599 373.5 547 Q318 495 293 403 Q262 286 285 226 Q308 166 385 165 Q459 164 514.5 216 Q570 268 595 360 Z " />
<glyph glyph-name="Ocircumflex" unicode="&#xd4;" horiz-adv-x="828" d="M599 919 L415 814 L349 904 L560 1066 L695 1066 L820 904 L724 814 L599 919 Z M814 350 Q767 175 642 81.5 Q517 -12 338 -6 Q175 0 101.5 117.5 Q28 235 75 412 Q122 587 246 681.5 Q370 776 548 769 Q714 764 788 646 Q862 528 814 350 Z M595 360 Q626 476 602.5 536.5 Q579 597 502 598 Q429 599 373.5 547 Q318 495 293 403 Q262 286 285 226 Q308 166 385 165 Q459 164 514.5 216 Q570 268 595 360 Z " />
<glyph glyph-name="Otilde" unicode="&#xd5;" horiz-adv-x="828" d="M849 1042 Q831 939 783 886 Q735 833 661 833 Q639 833 619.5 840.5 Q600 848 572 870 Q554 884 545.5 888 Q537 892 529 892 Q504 892 491 879.5 Q478 867 466 831 L337 831 Q355 934 403 987 Q451 1040 526 1040 Q550 1040 570.5 1033 Q591 1026 621 1005 Q640 992 649 988 Q658 984 666 984 Q687 984 698.5 996.5 Q710 1009 720 1042 L849 1042 Z M814 350 Q767 175 642 81.5 Q517 -12 338 -6 Q175 0 101.5 117.5 Q28 235 75 412 Q122 587 246 681.5 Q370 776 548 769 Q714 764 788 646 Q862 528 814 350 Z M595 360 Q626 476 602.5 536.5 Q579 597 502 598 Q429 599 373.5 547 Q318 495 293 403 Q262 286 285 226 Q308 166 385 165 Q459 164 514.5 216 Q570 268 595 360 Z " />
<glyph glyph-name="Odieresis" unicode="&#xd6;" horiz-adv-x="828" d="M558 944 Q547 902 510.5 873.5 Q474 845 430 845 Q387 845 365.5 873.5 Q344 902 355 944 Q366 987 403 1015.5 Q440 1044 484 1044 Q527 1044 548 1015.5 Q569 987 558 944 Z M836 944 Q825 902 788 873.5 Q751 845 707 845 Q664 845 642.5 873.5 Q621 902 632 944 Q643 986 680 1014.5 Q717 1043 760 1043 Q804 1043 825.5 1014.5 Q847 986 836 944 Z M814 350 Q767 175 642 81.5 Q517 -12 338 -6 Q175 0 101.5 117.5 Q28 235 75 412 Q122 587 246 681.5 Q370 776 548 769 Q714 764 788 646 Q862 528 814 350 Z M595 360 Q626 476 602.5 536.5 Q579 597 502 598 Q429 599 373.5 547 Q318 495 293 403 Q262 286 285 226 Q308 166 385 165 Q459 164 514.5 216 Q570 268 595 360 Z " />
<glyph glyph-name="Omacron" unicode="&#x14c;" horiz-adv-x="828" d="M834 1010 L798 878 L356 878 L392 1010 L834 1010 Z M814 350 Q767 175 642 81.5 Q517 -12 338 -6 Q175 0 101.5 117.5 Q28 235 75 412 Q122 587 246 681.5 Q370 776 548 769 Q714 764 788 646 Q862 528 814 350 Z M595 360 Q626 476 602.5 536.5 Q579 597 502 598 Q429 599 373.5 547 Q318 495 293 403 Q262 286 285 226 Q308 166 385 165 Q459 164 514.5 216 Q570 268 595 360 Z " />
<glyph glyph-name="Obreve" unicode="&#x14e;" horiz-adv-x="828" d="M840 1043 Q814 938 746.5 880.5 Q679 823 579 823 Q477 823 427.5 888 Q378 953 403 1043 L525 1043 Q517 1004 536.5 981.5 Q556 959 600 959 Q644 959 675 981.5 Q706 1004 719 1043 L840 1043 Z M814 350 Q767 175 642 81.5 Q517 -12 338 -6 Q175 0 101.5 117.5 Q28 235 75 412 Q122 587 246 681.5 Q370 776 548 769 Q714 764 788 646 Q862 528 814 350 Z M595 360 Q626 476 602.5 536.5 Q579 597 502 598 Q429 599 373.5 547 Q318 495 293 403 Q262 286 285 226 Q308 166 385 165 Q459 164 514.5 216 Q570 268 595 360 Z " />
<glyph glyph-name="Ohungarumlaut" unicode="&#x150;" horiz-adv-x="828" d="M707 985 L394 784 L330 887 L608 1111 L707 985 Z M1021 941 L693 784 L649 900 L948 1087 L1021 941 Z M814 350 Q767 175 642 81.5 Q517 -12 338 -6 Q175 0 101.5 117.5 Q28 235 75 412 Q122 587 246 681.5 Q370 776 548 769 Q714 764 788 646 Q862 528 814 350 Z M595 360 Q626 476 602.5 536.5 Q579 597 502 598 Q429 599 373.5 547 Q318 495 293 403 Q262 286 285 226 Q308 166 385 165 Q459 164 514.5 216 Q570 268 595 360 Z " />
<glyph glyph-name="Oslash" unicode="&#xd8;" horiz-adv-x="828" d="M337 -6 Q281 -4 235 12 Q189 28 154 56 L71 -20 L9 40 L97 121 Q64 176 57.5 250.5 Q51 325 74 412 Q121 587 245 681.5 Q369 776 547 769 Q604 767 651 751 Q698 735 733 707 L816 783 L878 723 L790 642 Q823 587 830 512 Q837 437 813 350 Q766 175 641 81.5 Q516 -12 337 -6 Z M292 403 Q283 368 278.5 338 Q274 308 274 284 L582 568 Q569 583 548.5 590.5 Q528 598 501 598 Q428 599 372.5 547 Q317 495 292 403 Z M384 165 Q458 164 513.5 216 Q569 268 594 360 Q603 394 607.5 424 Q612 454 612 478 L303 194 Q317 180 337.5 172.5 Q358 165 384 165 Z " />
<glyph glyph-name="Oslashacute" unicode="&#x1fe;" horiz-adv-x="828" d="M888 938 L554 799 L520 920 L826 1090 L888 938 Z M337 -6 Q281 -4 235 12 Q189 28 154 56 L71 -20 L9 40 L97 121 Q64 176 57.5 250.5 Q51 325 74 412 Q121 587 245 681.5 Q369 776 547 769 Q604 767 651 751 Q698 735 733 707 L816 783 L878 723 L790 642 Q823 587 830 512 Q837 437 813 350 Q766 175 641 81.5 Q516 -12 337 -6 Z M292 403 Q283 368 278.5 338 Q274 308 274 284 L582 568 Q569 583 548.5 590.5 Q528 598 501 598 Q428 599 372.5 547 Q317 495 292 403 Z M384 165 Q458 164 513.5 216 Q569 268 594 360 Q603 394 607.5 424 Q612 454 612 478 L303 194 Q317 180 337.5 172.5 Q358 165 384 165 Z " />
<glyph glyph-name="OE" unicode="&#x152;" horiz-adv-x="1134" d="M498 0 L501 12 Q464 2 423 -2.5 Q382 -7 338 -6 Q175 0 101.5 117.5 Q28 235 75 412 Q122 587 246 681.5 Q370 776 548 769 Q590 768 627 758.5 Q664 749 694 733 L702 763 L1183 763 L1140 599 L877 599 L842 469 L1093 469 L1049 305 L800 305 Q798 300 796 294.5 Q794 289 792 284 L760 164 L1054 164 L1010 0 L498 0 Z M385 165 Q454 164 507.5 210 Q561 256 588 338 L602 391 Q624 492 599 544.5 Q574 597 502 598 Q429 599 373.5 547 Q318 495 293 403 Q262 286 285 226 Q308 166 385 165 Z " />
<glyph glyph-name="P" unicode="P" horiz-adv-x="695" d="M284 223 L224 0 L7 0 L211 763 L469 763 Q623 763 689.5 687.5 Q756 612 719 474 Q687 353 589 288 Q491 223 343 223 L284 223 Z M437 593 L383 593 L329 393 L372 393 Q423 393 458.5 417 Q494 441 506 487 Q520 539 502.5 566 Q485 593 437 593 Z " />
<glyph glyph-name="Thorn" unicode="&#xde;" horiz-adv-x="695" d="M211 763 L428 763 L399 654 L440 654 Q594 654 660.5 578.5 Q727 503 690 365 Q658 244 560 179 Q462 114 314 114 L255 114 L224 0 L7 0 L211 763 Z M408 484 L354 484 L300 284 L343 284 Q394 284 429.5 308 Q465 332 477 378 Q491 430 473.5 457 Q456 484 408 484 Z " />
<glyph glyph-name="Q" unicode="Q" horiz-adv-x="828" d="M750 56 L590 -61 L539 25 Q494 8 443.5 0 Q393 -8 338 -6 Q175 0 101.5 117.5 Q28 235 75 412 Q122 587 246 681.5 Q370 776 548 769 Q714 764 788 646 Q862 528 814 350 Q796 281 764.5 224 Q733 167 691 124 L750 56 Z M385 165 Q398 165 410 166.5 Q422 168 434 171 L362 256 L519 374 L570 292 Q577 307 583.5 324 Q590 341 595 360 Q626 476 602.5 536.5 Q579 597 502 598 Q429 599 373.5 547 Q318 495 293 403 Q262 286 285 226 Q308 166 385 165 Z " />
<glyph glyph-name="R" unicode="R" horiz-adv-x="731" d="M291 251 L224 0 L7 0 L211 763 L464 763 Q619 763 688.5 697 Q758 631 728 509 Q711 441 670 390 Q629 339 568 310 L638 0 L410 0 L372 253 Q359 252 342.5 251.5 Q326 251 312 251 L291 251 Z M435 593 L383 593 L337 421 L385 421 Q434 421 466.5 442.5 Q499 464 510 504 Q522 545 500.5 569 Q479 593 435 593 Z " />
<glyph glyph-name="Racute" unicode="&#x154;" horiz-adv-x="731" d="M786 938 L452 799 L418 920 L724 1090 L786 938 Z M291 251 L224 0 L7 0 L211 763 L464 763 Q619 763 688.5 697 Q758 631 728 509 Q711 441 670 390 Q629 339 568 310 L638 0 L410 0 L372 253 Q359 252 342.5 251.5 Q326 251 312 251 L291 251 Z M435 593 L383 593 L337 421 L385 421 Q434 421 466.5 442.5 Q499 464 510 504 Q522 545 500.5 569 Q479 593 435 593 Z " />
<glyph glyph-name="Rcommaaccent" unicode="&#x156;" horiz-adv-x="731" d="M291 251 L224 0 L7 0 L211 763 L464 763 Q619 763 688.5 697 Q758 631 728 509 Q711 441 670 390 Q629 339 568 310 L638 0 L410 0 L372 253 Q359 252 342.5 251.5 Q326 251 312 251 L291 251 Z M435 593 L383 593 L337 421 L385 421 Q434 421 466.5 442.5 Q499 464 510 504 Q522 545 500.5 569 Q479 593 435 593 Z M379 -164 L137 -321 L74 -236 L272 -50 L379 -164 Z " />
<glyph glyph-name="Rcaron" unicode="&#x158;" horiz-adv-x="731" d="M522 953 L708 1065 L774 976 L563 814 L428 814 L310 982 L401 1061 L522 953 Z M291 251 L224 0 L7 0 L211 763 L464 763 Q619 763 688.5 697 Q758 631 728 509 Q711 441 670 390 Q629 339 568 310 L638 0 L410 0 L372 253 Q359 252 342.5 251.5 Q326 251 312 251 L291 251 Z M435 593 L383 593 L337 421 L385 421 Q434 421 466.5 442.5 Q499 464 510 504 Q522 545 500.5 569 Q479 593 435 593 Z " />
<glyph glyph-name="S" unicode="S" horiz-adv-x="644" d="M576 204 Q551 102 460.5 46 Q370 -10 227 -10 Q145 -10 90 -1.5 Q35 7 -16 27 L34 213 Q75 185 130.5 170 Q186 155 247 155 Q295 155 323 170 Q351 185 359 215 Q365 238 350 258 Q335 278 274 313 Q217 345 191 366.5 Q165 388 150 412 Q128 444 123 482.5 Q118 521 129 567 Q152 664 239.5 718.5 Q327 773 459 773 Q533 773 589.5 762 Q646 751 683 729 L631 533 Q601 566 548 585.5 Q495 605 436 605 Q394 605 371 593.5 Q348 582 342 558 Q335 533 350.5 511.5 Q366 490 431 451 Q486 418 511.5 397.5 Q537 377 553 354 Q575 323 581 285.5 Q587 248 576 204 Z " />
<glyph glyph-name="Sacute" unicode="&#x15a;" horiz-adv-x="644" d="M755 938 L421 799 L387 920 L693 1090 L755 938 Z M576 204 Q551 102 460.5 46 Q370 -10 227 -10 Q145 -10 90 -1.5 Q35 7 -16 27 L34 213 Q75 185 130.5 170 Q186 155 247 155 Q295 155 323 170 Q351 185 359 215 Q365 238 350 258 Q335 278 274 313 Q217 345 191 366.5 Q165 388 150 412 Q128 444 123 482.5 Q118 521 129 567 Q152 664 239.5 718.5 Q327 773 459 773 Q533 773 589.5 762 Q646 751 683 729 L631 533 Q601 566 548 585.5 Q495 605 436 605 Q394 605 371 593.5 Q348 582 342 558 Q335 533 350.5 511.5 Q366 490 431 451 Q486 418 511.5 397.5 Q537 377 553 354 Q575 323 581 285.5 Q587 248 576 204 Z " />
<glyph glyph-name="Scircumflex" unicode="&#x15c;" horiz-adv-x="644" d="M506 919 L322 814 L256 904 L467 1066 L602 1066 L727 904 L631 814 L506 919 Z M576 204 Q551 102 460.5 46 Q370 -10 227 -10 Q145 -10 90 -1.5 Q35 7 -16 27 L34 213 Q75 185 130.5 170 Q186 155 247 155 Q295 155 323 170 Q351 185 359 215 Q365 238 350 258 Q335 278 274 313 Q217 345 191 366.5 Q165 388 150 412 Q128 444 123 482.5 Q118 521 129 567 Q152 664 239.5 718.5 Q327 773 459 773 Q533 773 589.5 762 Q646 751 683 729 L631 533 Q601 566 548 585.5 Q495 605 436 605 Q394 605 371 593.5 Q348 582 342 558 Q335 533 350.5 511.5 Q366 490 431 451 Q486 418 511.5 397.5 Q537 377 553 354 Q575 323 581 285.5 Q587 248 576 204 Z " />
<glyph glyph-name="Scedilla" unicode="&#x15e;" horiz-adv-x="644" d="M386 -107 Q371 -164 317.5 -200 Q264 -236 199 -236 Q165 -236 134 -230.5 Q103 -225 78 -215 L112 -91 Q129 -100 142.5 -104 Q156 -108 170 -108 Q191 -108 205.5 -96 Q220 -84 226 -63 Q230 -49 228.5 -36.5 Q227 -24 218 -10 Q140 -10 87 -1 Q34 8 -16 27 L34 213 Q75 185 130.5 170 Q186 155 247 155 Q295 155 323 170 Q351 185 359 215 Q365 238 350 258 Q335 278 274 313 Q217 345 191 366.5 Q165 388 150 412 Q128 444 123 482.5 Q118 521 129 567 Q152 664 239.5 718.5 Q327 773 459 773 Q533 773 589.5 762 Q646 751 683 729 L631 533 Q601 566 548 585.5 Q495 605 436 605 Q394 605 371 593.5 Q348 582 342 558 Q335 533 350.5 511.5 Q366 490 431 451 Q486 418 511.5 397.5 Q537 377 553 354 Q575 323 581 285.5 Q587 248 576 204 Q557 128 501.5 77 Q446 26 359 5 Q369 -4 373 -10.5 Q377 -17 381 -24 Q390 -42 391.5 -62.5 Q393 -83 386 -107 Z " />
<glyph glyph-name="Scaron" unicode="&#x160;" horiz-adv-x="644" d="M495 953 L681 1065 L747 976 L536 814 L401 814 L283 982 L374 1061 L495 953 Z M576 204 Q551 102 460.5 46 Q370 -10 227 -10 Q145 -10 90 -1.5 Q35 7 -16 27 L34 213 Q75 185 130.5 170 Q186 155 247 155 Q295 155 323 170 Q351 185 359 215 Q365 238 350 258 Q335 278 274 313 Q217 345 191 366.5 Q165 388 150 412 Q128 444 123 482.5 Q118 521 129 567 Q152 664 239.5 718.5 Q327 773 459 773 Q533 773 589.5 762 Q646 751 683 729 L631 533 Q601 566 548 585.5 Q495 605 436 605 Q394 605 371 593.5 Q348 582 342 558 Q335 533 350.5 511.5 Q366 490 431 451 Q486 418 511.5 397.5 Q537 377 553 354 Q575 323 581 285.5 Q587 248 576 204 Z " />
<glyph glyph-name="Scommaaccent" unicode="&#x218;" horiz-adv-x="644" d="M576 204 Q551 102 460.5 46 Q370 -10 227 -10 Q145 -10 90 -1.5 Q35 7 -16 27 L34 213 Q75 185 130.5 170 Q186 155 247 155 Q295 155 323 170 Q351 185 359 215 Q365 238 350 258 Q335 278 274 313 Q217 345 191 366.5 Q165 388 150 412 Q128 444 123 482.5 Q118 521 129 567 Q152 664 239.5 718.5 Q327 773 459 773 Q533 773 589.5 762 Q646 751 683 729 L631 533 Q601 566 548 585.5 Q495 605 436 605 Q394 605 371 593.5 Q348 582 342 558 Q335 533 350.5 511.5 Q366 490 431 451 Q486 418 511.5 397.5 Q537 377 553 354 Q575 323 581 285.5 Q587 248 576 204 Z M354 -164 L112 -321 L49 -236 L247 -50 L354 -164 Z " />
<glyph glyph-name="T" unicode="T" horiz-adv-x="608" d="M497 589 L339 0 L123 0 L281 589 L85 589 L131 763 L739 763 L693 589 L497 589 Z " />
<glyph glyph-name="Tcommaaccent" unicode="&#x21a;" horiz-adv-x="608" d="M497 589 L339 0 L123 0 L281 589 L85 589 L131 763 L739 763 L693 589 L497 589 Z M310 -164 L68 -321 L5 -236 L203 -50 L310 -164 Z " />
<glyph glyph-name="Tcaron" unicode="&#x164;" horiz-adv-x="608" d="M477 953 L663 1065 L729 976 L518 814 L383 814 L265 982 L356 1061 L477 953 Z M497 589 L339 0 L123 0 L281 589 L85 589 L131 763 L739 763 L693 589 L497 589 Z " />
<glyph glyph-name="Tbar" unicode="&#x166;" horiz-adv-x="608" d="M598 339 L430 339 L339 0 L123 0 L214 339 L10 339 L10 448 L243 448 L281 589 L85 589 L131 763 L739 763 L693 589 L497 589 L459 448 L598 448 L598 339 Z " />
<glyph glyph-name="U" unicode="U" horiz-adv-x="812" d="M635 93 Q587 39 519 14.5 Q451 -10 346 -10 Q173 -9 114.5 86.5 Q56 182 109 377 L212 763 L430 763 L324 367 Q310 313 306 288.5 Q302 264 302 246 Q304 210 324 193 Q344 176 384 176 Q420 176 447 192 Q474 208 494 241 Q506 260 516 287 Q526 314 540 367 L646 763 L864 763 L762 382 Q733 274 702.5 205.5 Q672 137 635 93 Z " />
<glyph glyph-name="Ugrave" unicode="&#xd9;" horiz-adv-x="812" d="M565 807 L268 960 L398 1091 L648 905 L565 807 Z M635 93 Q587 39 519 14.5 Q451 -10 346 -10 Q173 -9 114.5 86.5 Q56 182 109 377 L212 763 L430 763 L324 367 Q310 313 306 288.5 Q302 264 302 246 Q304 210 324 193 Q344 176 384 176 Q420 176 447 192 Q474 208 494 241 Q506 260 516 287 Q526 314 540 367 L646 763 L864 763 L762 382 Q733 274 702.5 205.5 Q672 137 635 93 Z " />
<glyph glyph-name="Uacute" unicode="&#xda;" horiz-adv-x="812" d="M876 938 L542 799 L508 920 L814 1090 L876 938 Z M635 93 Q587 39 519 14.5 Q451 -10 346 -10 Q173 -9 114.5 86.5 Q56 182 109 377 L212 763 L430 763 L324 367 Q310 313 306 288.5 Q302 264 302 246 Q304 210 324 193 Q344 176 384 176 Q420 176 447 192 Q474 208 494 241 Q506 260 516 287 Q526 314 540 367 L646 763 L864 763 L762 382 Q733 274 702.5 205.5 Q672 137 635 93 Z " />
<glyph glyph-name="Ucircumflex" unicode="&#xdb;" horiz-adv-x="812" d="M591 919 L407 814 L341 904 L552 1066 L687 1066 L812 904 L716 814 L591 919 Z M635 93 Q587 39 519 14.5 Q451 -10 346 -10 Q173 -9 114.5 86.5 Q56 182 109 377 L212 763 L430 763 L324 367 Q310 313 306 288.5 Q302 264 302 246 Q304 210 324 193 Q344 176 384 176 Q420 176 447 192 Q474 208 494 241 Q506 260 516 287 Q526 314 540 367 L646 763 L864 763 L762 382 Q733 274 702.5 205.5 Q672 137 635 93 Z " />
<glyph glyph-name="Udieresis" unicode="&#xdc;" horiz-adv-x="812" d="M550 944 Q539 902 502.5 873.5 Q466 845 422 845 Q379 845 357.5 873.5 Q336 902 347 944 Q358 987 395 1015.5 Q432 1044 476 1044 Q519 1044 540 1015.5 Q561 987 550 944 Z M828 944 Q817 902 780 873.5 Q743 845 699 845 Q656 845 634.5 873.5 Q613 902 624 944 Q635 986 672 1014.5 Q709 1043 752 1043 Q796 1043 817.5 1014.5 Q839 986 828 944 Z M635 93 Q587 39 519 14.5 Q451 -10 346 -10 Q173 -9 114.5 86.5 Q56 182 109 377 L212 763 L430 763 L324 367 Q310 313 306 288.5 Q302 264 302 246 Q304 210 324 193 Q344 176 384 176 Q420 176 447 192 Q474 208 494 241 Q506 260 516 287 Q526 314 540 367 L646 763 L864 763 L762 382 Q733 274 702.5 205.5 Q672 137 635 93 Z " />
<glyph glyph-name="Utilde" unicode="&#x168;" horiz-adv-x="812" d="M840 1041 Q822 938 774 885 Q726 832 652 832 Q630 832 610.5 839.5 Q591 847 563 869 Q545 883 536.5 887 Q528 891 520 891 Q495 891 482 878.5 Q469 866 457 830 L328 830 Q346 933 394 986 Q442 1039 517 1039 Q541 1039 561.5 1032 Q582 1025 612 1004 Q631 991 640 987 Q649 983 657 983 Q678 983 689.5 995.5 Q701 1008 711 1041 L840 1041 Z M635 93 Q587 39 519 14.5 Q451 -10 346 -10 Q173 -9 114.5 86.5 Q56 182 109 377 L212 763 L430 763 L324 367 Q310 313 306 288.5 Q302 264 302 246 Q304 210 324 193 Q344 176 384 176 Q420 176 447 192 Q474 208 494 241 Q506 260 516 287 Q526 314 540 367 L646 763 L864 763 L762 382 Q733 274 702.5 205.5 Q672 137 635 93 Z " />
<glyph glyph-name="Umacron" unicode="&#x16a;" horiz-adv-x="812" d="M826 1010 L790 878 L348 878 L384 1010 L826 1010 Z M635 93 Q587 39 519 14.5 Q451 -10 346 -10 Q173 -9 114.5 86.5 Q56 182 109 377 L212 763 L430 763 L324 367 Q310 313 306 288.5 Q302 264 302 246 Q304 210 324 193 Q344 176 384 176 Q420 176 447 192 Q474 208 494 241 Q506 260 516 287 Q526 314 540 367 L646 763 L864 763 L762 382 Q733 274 702.5 205.5 Q672 137 635 93 Z " />
<glyph glyph-name="Ubreve" unicode="&#x16c;" horiz-adv-x="812" d="M832 1043 Q806 938 738.5 880.5 Q671 823 571 823 Q469 823 419.5 888 Q370 953 395 1043 L517 1043 Q509 1004 528.5 981.5 Q548 959 592 959 Q636 959 667 981.5 Q698 1004 711 1043 L832 1043 Z M635 91 Q587 37 519 12.5 Q451 -12 346 -12 Q173 -11 114.5 84.5 Q56 180 109 375 L212 761 L430 761 L324 365 Q310 311 306 286.5 Q302 262 302 244 Q304 208 324 191 Q344 174 384 174 Q420 174 447 190 Q474 206 494 239 Q506 258 516 285 Q526 312 540 365 L646 761 L864 761 L762 380 Q733 272 702.5 203.5 Q672 135 635 91 Z " />
<glyph glyph-name="Uring" unicode="&#x16e;" horiz-adv-x="812" d="M612 1079 Q703 1077 751.5 1034 Q800 991 783 931 Q767 872 705.5 836 Q644 800 558 801 Q467 803 420 847 Q373 891 390 955 Q404 1010 466.5 1045 Q529 1080 612 1079 Z M599 989 Q563 990 538 977 Q513 964 507 941 Q501 919 519 905.5 Q537 892 573 891 Q609 890 634 903 Q659 916 665 939 Q671 961 653 974.5 Q635 988 599 989 Z M635 93 Q587 39 519 14.5 Q451 -10 346 -10 Q173 -9 114.5 86.5 Q56 182 109 377 L212 763 L430 763 L324 367 Q310 313 306 288.5 Q302 264 302 246 Q304 210 324 193 Q344 176 384 176 Q420 176 447 192 Q474 208 494 241 Q506 260 516 287 Q526 314 540 367 L646 763 L864 763 L762 382 Q733 274 702.5 205.5 Q672 137 635 93 Z " />
<glyph glyph-name="Uhungarumlaut" unicode="&#x170;" horiz-adv-x="812" d="M696 985 L383 784 L319 887 L597 1111 L696 985 Z M1010 941 L682 784 L638 900 L937 1087 L1010 941 Z M635 93 Q587 39 519 14.5 Q451 -10 346 -10 Q173 -9 114.5 86.5 Q56 182 109 377 L212 763 L430 763 L324 367 Q310 313 306 288.5 Q302 264 302 246 Q304 210 324 193 Q344 176 384 176 Q420 176 447 192 Q474 208 494 241 Q506 260 516 287 Q526 314 540 367 L646 763 L864 763 L762 382 Q733 274 702.5 205.5 Q672 137 635 93 Z " />
<glyph glyph-name="Uogonek" unicode="&#x172;" horiz-adv-x="812" d="M388 -215 Q359 -225 325 -230.5 Q291 -236 257 -236 Q191 -236 157 -200 Q123 -164 138 -107 Q147 -73 169 -46 Q191 -19 225 0 Q227 1 228.5 2 Q230 3 232 4 Q127 33 96.5 126 Q66 219 109 377 L212 763 L430 763 L324 367 Q310 313 306 288.5 Q302 264 302 246 Q304 210 324 193 Q344 176 384 176 Q420 176 447 192 Q474 208 494 241 Q506 260 516 287 Q526 314 540 367 L646 763 L864 763 L762 382 Q733 274 702.5 205.5 Q672 137 635 93 Q596 49 543.5 24.5 Q491 0 417 -7 Q377 -19 350 -39 Q323 -59 318 -79 Q314 -93 322 -100.5 Q330 -108 350 -108 Q366 -108 383.5 -104 Q401 -100 422 -91 L388 -215 Z " />
<glyph glyph-name="V" unicode="V" horiz-adv-x="774" d="M885 763 L425 0 L203 0 L151 763 L370 763 L367 224 L371 224 L654 763 L885 763 Z " />
<glyph glyph-name="W" unicode="W" horiz-adv-x="1072" d="M581 450 L340 0 L122 0 L171 763 L391 763 L359 510 Q354 470 345 414 Q336 358 322 286 L327 286 Q360 353 388 409 Q416 465 440 511 L571 763 L758 763 L758 510 Q758 466 757 410 Q756 354 754 286 L759 286 Q782 358 801.5 414 Q821 470 838 510 L944 763 L1163 763 L806 0 L587 0 L585 450 L581 450 Z " />
<glyph glyph-name="Wcircumflex" unicode="&#x174;" horiz-adv-x="1072" d="M720 919 L536 814 L470 904 L681 1066 L816 1066 L941 904 L845 814 L720 919 Z M581 450 L340 0 L122 0 L171 763 L391 763 L359 510 Q354 470 345 414 Q336 358 322 286 L327 286 Q360 353 388 409 Q416 465 440 511 L571 763 L758 763 L758 510 Q758 466 757 410 Q756 354 754 286 L759 286 Q782 358 801.5 414 Q821 470 838 510 L944 763 L1163 763 L806 0 L587 0 L585 450 L581 450 Z " />
<glyph glyph-name="Wgrave" unicode="&#x1e80;" horiz-adv-x="1072" d="M716 807 L419 960 L549 1091 L799 905 L716 807 Z M581 450 L340 0 L122 0 L171 763 L391 763 L359 510 Q354 470 345 414 Q336 358 322 286 L327 286 Q360 353 388 409 Q416 465 440 511 L571 763 L758 763 L758 510 Q758 466 757 410 Q756 354 754 286 L759 286 Q782 358 801.5 414 Q821 470 838 510 L944 763 L1163 763 L806 0 L587 0 L585 450 L581 450 Z " />
<glyph glyph-name="Wacute" unicode="&#x1e82;" horiz-adv-x="1072" d="M962 938 L628 799 L594 920 L900 1090 L962 938 Z M581 450 L340 0 L122 0 L171 763 L391 763 L359 510 Q354 470 345 414 Q336 358 322 286 L327 286 Q360 353 388 409 Q416 465 440 511 L571 763 L758 763 L758 510 Q758 466 757 410 Q756 354 754 286 L759 286 Q782 358 801.5 414 Q821 470 838 510 L944 763 L1163 763 L806 0 L587 0 L585 450 L581 450 Z " />
<glyph glyph-name="Wdieresis" unicode="&#x1e84;" horiz-adv-x="1072" d="M679 944 Q668 902 631.5 873.5 Q595 845 551 845 Q508 845 486.5 873.5 Q465 902 476 944 Q487 987 524 1015.5 Q561 1044 605 1044 Q648 1044 669 1015.5 Q690 987 679 944 Z M957 944 Q946 902 909 873.5 Q872 845 828 845 Q785 845 763.5 873.5 Q742 902 753 944 Q764 986 801 1014.5 Q838 1043 881 1043 Q925 1043 946.5 1014.5 Q968 986 957 944 Z M581 450 L340 0 L122 0 L171 763 L391 763 L359 510 Q354 470 345 414 Q336 358 322 286 L327 286 Q360 353 388 409 Q416 465 440 511 L571 763 L758 763 L758 510 Q758 466 757 410 Q756 354 754 286 L759 286 Q782 358 801.5 414 Q821 470 838 510 L944 763 L1163 763 L806 0 L587 0 L585 450 L581 450 Z " />
<glyph glyph-name="X" unicode="X" horiz-adv-x="747" d="M354 223 L181 0 L-59 0 L288 417 L153 763 L390 763 L452 553 L456 553 L622 763 L859 763 L518 369 L664 0 L428 0 L357 223 L354 223 Z " />
<glyph glyph-name="Y" unicode="Y" horiz-adv-x="724" d="M473 281 L398 0 L182 0 L257 281 L121 763 L358 763 L393 564 Q398 534 401 508.5 Q404 483 405 456 L411 456 Q444 516 454 532 Q464 548 475 564 L615 763 L859 763 L473 281 Z " />
<glyph glyph-name="Yacute" unicode="&#xdd;" horiz-adv-x="724" d="M822 938 L488 799 L454 920 L760 1090 L822 938 Z M473 281 L398 0 L182 0 L257 281 L121 763 L358 763 L393 564 Q398 534 401 508.5 Q404 483 405 456 L411 456 Q444 516 454 532 Q464 548 475 564 L615 763 L859 763 L473 281 Z " />
<glyph glyph-name="Ycircumflex" unicode="&#x176;" horiz-adv-x="724" d="M546 919 L362 814 L296 904 L507 1066 L642 1066 L767 904 L671 814 L546 919 Z M473 281 L398 0 L182 0 L257 281 L121 763 L358 763 L393 564 Q398 534 401 508.5 Q404 483 405 456 L411 456 Q444 516 454 532 Q464 548 475 564 L615 763 L859 763 L473 281 Z " />
<glyph glyph-name="Ydieresis" unicode="&#x178;" horiz-adv-x="724" d="M505 944 Q494 902 457.5 873.5 Q421 845 377 845 Q334 845 312.5 873.5 Q291 902 302 944 Q313 987 350 1015.5 Q387 1044 431 1044 Q474 1044 495 1015.5 Q516 987 505 944 Z M783 944 Q772 902 735 873.5 Q698 845 654 845 Q611 845 589.5 873.5 Q568 902 579 944 Q590 986 627 1014.5 Q664 1043 707 1043 Q751 1043 772.5 1014.5 Q794 986 783 944 Z M473 281 L398 0 L182 0 L257 281 L121 763 L358 763 L393 564 Q398 534 401 508.5 Q404 483 405 456 L411 456 Q444 516 454 532 Q464 548 475 564 L615 763 L859 763 L473 281 Z " />
<glyph glyph-name="Ygrave" unicode="&#x1ef2;" horiz-adv-x="724" d="M505 807 L208 960 L338 1091 L588 905 L505 807 Z M473 281 L398 0 L182 0 L257 281 L121 763 L358 763 L393 564 Q398 534 401 508.5 Q404 483 405 456 L411 456 Q444 516 454 532 Q464 548 475 564 L615 763 L859 763 L473 281 Z " />
<glyph glyph-name="Z" unicode="Z" horiz-adv-x="654" d="M578 174 L531 0 L-16 0 L20 159 L422 586 L421 589 L145 589 L191 763 L721 763 L680 594 L280 177 L282 174 L578 174 Z " />
<glyph glyph-name="Zacute" unicode="&#x179;" horiz-adv-x="654" d="M793 938 L459 799 L425 920 L731 1090 L793 938 Z M578 174 L531 0 L-16 0 L20 159 L422 586 L421 589 L145 589 L191 763 L721 763 L680 594 L280 177 L282 174 L578 174 Z " />
<glyph glyph-name="Zdotaccent" unicode="&#x17b;" horiz-adv-x="654" d="M614 942 Q601 892 557.5 858.5 Q514 825 464 825 Q412 825 386.5 858.5 Q361 892 374 942 Q388 992 431.5 1025 Q475 1058 526 1058 Q577 1058 602.5 1025 Q628 992 614 942 Z M578 174 L531 0 L-16 0 L20 159 L422 586 L421 589 L145 589 L191 763 L721 763 L680 594 L280 177 L282 174 L578 174 Z " />
<glyph glyph-name="Zcaron" unicode="&#x17d;" horiz-adv-x="654" d="M500 953 L686 1065 L752 976 L541 814 L406 814 L288 982 L379 1061 L500 953 Z M578 174 L531 0 L-16 0 L20 159 L422 586 L421 589 L145 589 L191 763 L721 763 L680 594 L280 177 L282 174 L578 174 Z " />
<glyph glyph-name="Schwa" unicode="&#x18f;" horiz-adv-x="797" d="M215 729 Q281 753 345.5 764 Q410 775 474 773 Q652 766 727.5 645.5 Q803 525 750 318 Q709 160 586 67.5 Q463 -25 294 -15 Q201 -10 141 33 Q81 76 62 150 Q47 211 62 286.5 Q77 362 121 445 L565 445 Q572 522 534 557 Q496 592 408 592 Q357 592 302 582 Q247 572 166 546 L215 729 Z M252 263 Q236 205 260.5 171.5 Q285 138 343 138 Q410 138 459 180 Q508 222 533 302 L266 302 Q263 298 260 290 Q257 282 252 263 Z " />
<glyph glyph-name="a" unicode="a" horiz-adv-x="611" d="M303 53 Q258 17 220.5 3 Q183 -11 139 -11 Q70 -11 36 44.5 Q2 100 24 177 Q45 253 116.5 291.5 Q188 330 309 330 L357 330 Q359 333 360 336.5 Q361 340 364 352 Q371 379 352 391.5 Q333 404 286 404 Q241 404 200.5 396.5 Q160 389 114 372 L156 529 Q203 542 252.5 548.5 Q302 555 353 555 Q488 555 534.5 488.5 Q581 422 544 284 L468 0 L313 0 L307 52 L303 53 Z M308 228 Q268 228 246 215.5 Q224 203 216 173 Q210 149 219 134.5 Q228 120 251 120 Q270 120 293.5 130.5 Q317 141 329 155 L348 228 L308 228 Z " />
<glyph glyph-name="agrave" unicode="&#xe0;" horiz-adv-x="611" d="M329 925 L508 700 L407 612 L187 801 L329 925 Z M303 53 Q258 17 220.5 3 Q183 -11 139 -11 Q70 -11 36 44.5 Q2 100 24 177 Q45 253 116.5 291.5 Q188 330 309 330 L357 330 Q359 333 360 336.5 Q361 340 364 352 Q371 379 352 391.5 Q333 404 286 404 Q241 404 200.5 396.5 Q160 389 114 372 L156 529 Q203 542 252.5 548.5 Q302 555 353 555 Q488 555 534.5 488.5 Q581 422 544 284 L468 0 L313 0 L307 52 L303 53 Z M308 228 Q268 228 246 215.5 Q224 203 216 173 Q210 149 219 134.5 Q228 120 251 120 Q270 120 293.5 130.5 Q317 141 329 155 L348 228 L308 228 Z " />
<glyph glyph-name="aacute" unicode="&#xe1;" horiz-adv-x="611" d="M677 803 L403 615 L333 707 L564 924 L677 803 Z M303 53 Q258 17 220.5 3 Q183 -11 139 -11 Q70 -11 36 44.5 Q2 100 24 177 Q45 253 116.5 291.5 Q188 330 309 330 L357 330 Q359 333 360 336.5 Q361 340 364 352 Q371 379 352 391.5 Q333 404 286 404 Q241 404 200.5 396.5 Q160 389 114 372 L156 529 Q203 542 252.5 548.5 Q302 555 353 555 Q488 555 534.5 488.5 Q581 422 544 284 L468 0 L313 0 L307 52 L303 53 Z M308 228 Q268 228 246 215.5 Q224 203 216 173 Q210 149 219 134.5 Q228 120 251 120 Q270 120 293.5 130.5 Q317 141 329 155 L348 228 L308 228 Z " />
<glyph glyph-name="acircumflex" unicode="&#xe2;" horiz-adv-x="611" d="M425 736 L263 609 L186 698 L384 890 L519 890 L617 698 L508 609 L425 736 Z M303 53 Q258 17 220.5 3 Q183 -11 139 -11 Q70 -11 36 44.5 Q2 100 24 177 Q45 253 116.5 291.5 Q188 330 309 330 L357 330 Q359 333 360 336.5 Q361 340 364 352 Q371 379 352 391.5 Q333 404 286 404 Q241 404 200.5 396.5 Q160 389 114 372 L156 529 Q203 542 252.5 548.5 Q302 555 353 555 Q488 555 534.5 488.5 Q581 422 544 284 L468 0 L313 0 L307 52 L303 53 Z M308 228 Q268 228 246 215.5 Q224 203 216 173 Q210 149 219 134.5 Q228 120 251 120 Q270 120 293.5 130.5 Q317 141 329 155 L348 228 L308 228 Z " />
<glyph glyph-name="atilde" unicode="&#xe3;" horiz-adv-x="611" d="M694 879 Q661 755 613 697.5 Q565 640 497 643 Q475 644 457.5 654 Q440 664 419 693 Q403 713 394 719 Q385 725 375 725 Q359 726 345 705.5 Q331 685 320 645 L193 645 Q224 765 274.5 825 Q325 885 390 880 Q416 878 436 867 Q456 856 479 825 Q493 807 501 801.5 Q509 796 518 796 Q531 795 543 815 Q555 835 567 879 L694 879 Z M303 53 Q258 17 220.5 3 Q183 -11 139 -11 Q70 -11 36 44.5 Q2 100 24 177 Q45 253 116.5 291.5 Q188 330 309 330 L357 330 Q359 333 360 336.5 Q361 340 364 352 Q371 379 352 391.5 Q333 404 286 404 Q241 404 200.5 396.5 Q160 389 114 372 L156 529 Q203 542 252.5 548.5 Q302 555 353 555 Q488 555 534.5 488.5 Q581 422 544 284 L468 0 L313 0 L307 52 L303 53 Z M308 228 Q268 228 246 215.5 Q224 203 216 173 Q210 149 219 134.5 Q228 120 251 120 Q270 120 293.5 130.5 Q317 141 329 155 L348 228 L308 228 Z " />
<glyph glyph-name="adieresis" unicode="&#xe4;" horiz-adv-x="611" d="M333 874 Q377 874 398 845.5 Q419 817 407 774 Q396 732 359.5 703.5 Q323 675 280 675 Q236 675 214.5 703.5 Q193 732 204 774 Q216 817 252.5 845.5 Q289 874 333 874 Z M583 873 Q626 873 648 844.5 Q670 816 658 774 Q647 732 610 703.5 Q573 675 530 675 Q486 675 464.5 703.5 Q443 732 454 774 Q466 816 502.5 844.5 Q539 873 583 873 Z M303 53 Q258 17 220.5 3 Q183 -11 139 -11 Q70 -11 36 44.5 Q2 100 24 177 Q45 253 116.5 291.5 Q188 330 309 330 L357 330 Q359 333 360 336.5 Q361 340 364 352 Q371 379 352 391.5 Q333 404 286 404 Q241 404 200.5 396.5 Q160 389 114 372 L156 529 Q203 542 252.5 548.5 Q302 555 353 555 Q488 555 534.5 488.5 Q581 422 544 284 L468 0 L313 0 L307 52 L303 53 Z M308 228 Q268 228 246 215.5 Q224 203 216 173 Q210 149 219 134.5 Q228 120 251 120 Q270 120 293.5 130.5 Q317 141 329 155 L348 228 L308 228 Z " />
<glyph glyph-name="aring" unicode="&#xe5;" horiz-adv-x="611" d="M460 928 Q528 926 564 877 Q600 828 582 760 Q566 697 517 659 Q468 621 402 621 Q332 621 297 670 Q262 719 281 789 Q297 850 347.5 889.5 Q398 929 460 928 Z M442 823 Q420 823 404 810 Q388 797 382 775 Q376 752 386.5 738.5 Q397 725 421 725 Q441 725 458 738.5 Q475 752 480 773 Q486 796 476 809.5 Q466 823 442 823 Z M303 53 Q258 17 220.5 3 Q183 -11 139 -11 Q70 -11 36 44.5 Q2 100 24 177 Q45 253 116.5 291.5 Q188 330 309 330 L357 330 Q359 333 360 336.5 Q361 340 364 352 Q371 379 352 391.5 Q333 404 286 404 Q241 404 200.5 396.5 Q160 389 114 372 L156 529 Q203 542 252.5 548.5 Q302 555 353 555 Q488 555 534.5 488.5 Q581 422 544 284 L468 0 L313 0 L307 52 L303 53 Z M308 228 Q268 228 246 215.5 Q224 203 216 173 Q210 149 219 134.5 Q228 120 251 120 Q270 120 293.5 130.5 Q317 141 329 155 L348 228 L308 228 Z " />
<glyph glyph-name="amacron" unicode="&#x101;" horiz-adv-x="611" d="M660 840 L625 708 L223 708 L258 840 L660 840 Z M303 53 Q258 17 220.5 3 Q183 -11 139 -11 Q70 -11 36 44.5 Q2 100 24 177 Q45 253 116.5 291.5 Q188 330 309 330 L357 330 Q359 333 360 336.5 Q361 340 364 352 Q371 379 352 391.5 Q333 404 286 404 Q241 404 200.5 396.5 Q160 389 114 372 L156 529 Q203 542 252.5 548.5 Q302 555 353 555 Q488 555 534.5 488.5 Q581 422 544 284 L468 0 L313 0 L307 52 L303 53 Z M308 228 Q268 228 246 215.5 Q224 203 216 173 Q210 149 219 134.5 Q228 120 251 120 Q270 120 293.5 130.5 Q317 141 329 155 L348 228 L308 228 Z " />
<glyph glyph-name="abreve" unicode="&#x103;" horiz-adv-x="566" d="M663 859 Q634 746 567.5 684.5 Q501 623 407 625 Q315 627 273 694.5 Q231 762 257 859 L383 859 Q373 815 386.5 789 Q400 763 434 763 Q469 763 496.5 789 Q524 815 537 859 L663 859 Z M303 53 Q258 17 220.5 3 Q183 -11 139 -11 Q70 -11 36 44.5 Q2 100 24 177 Q45 253 116.5 291.5 Q188 330 309 330 L357 330 Q359 333 360 336.5 Q361 340 364 352 Q371 379 352 391.5 Q333 404 286 404 Q241 404 200.5 396.5 Q160 389 114 372 L156 529 Q203 542 252.5 548.5 Q302 555 353 555 Q488 555 534.5 488.5 Q581 422 544 284 L468 0 L313 0 L307 52 L303 53 Z M308 228 Q268 228 246 215.5 Q224 203 216 173 Q210 149 219 134.5 Q228 120 251 120 Q270 120 293.5 130.5 Q317 141 329 155 L348 228 L308 228 Z " />
<glyph glyph-name="aogonek" unicode="&#x105;" horiz-adv-x="566" d="M410 -215 Q381 -225 347 -230.5 Q313 -236 279 -236 Q213 -236 179 -200 Q145 -164 160 -107 Q169 -73 191 -46 Q213 -19 247 0 Q261 8 277 15 Q293 22 310 28 L307 52 L303 53 Q258 17 220.5 3 Q183 -11 139 -11 Q70 -11 36 44.5 Q2 100 24 177 Q45 253 116.5 291.5 Q188 330 309 330 L357 330 Q359 333 360 336.5 Q361 340 364 352 Q371 379 352 391.5 Q333 404 286 404 Q241 404 200.5 396.5 Q160 389 114 372 L156 529 Q203 542 252.5 548.5 Q302 555 353 555 Q488 555 534.5 488.5 Q581 422 544 284 L468 0 Q418 -9 382 -32 Q346 -55 340 -79 Q336 -93 344 -100.5 Q352 -108 372 -108 Q388 -108 405.5 -104 Q423 -100 444 -91 L410 -215 Z M308 228 Q268 228 246 215.5 Q224 203 216 173 Q210 149 219 134.5 Q228 120 251 120 Q270 120 293.5 130.5 Q317 141 329 155 L348 228 L308 228 Z " />
<glyph glyph-name="aringacute" unicode="&#x1fb;" horiz-adv-x="566" d="M686 1047 L352 908 L318 1029 L624 1199 L686 1047 Z M465 894 Q533 892 569 843 Q605 794 587 726 Q571 663 522 625 Q473 587 407 587 Q337 587 302 636 Q267 685 286 755 Q302 816 352.5 855.5 Q403 895 465 894 Z M447 789 Q425 789 409 776 Q393 763 387 741 Q381 718 391.5 704.5 Q402 691 426 691 Q446 691 463 704.5 Q480 718 485 739 Q491 762 481 775.5 Q471 789 447 789 Z M303 53 Q258 17 220.5 3 Q183 -11 139 -11 Q70 -11 36 44.5 Q2 100 24 177 Q45 253 116.5 291.5 Q188 330 309 330 L357 330 Q359 333 360 336.5 Q361 340 364 352 Q371 379 352 391.5 Q333 404 286 404 Q241 404 200.5 396.5 Q160 389 114 372 L156 529 Q203 542 252.5 548.5 Q302 555 353 555 Q488 555 534.5 488.5 Q581 422 544 284 L468 0 L313 0 L307 52 L303 53 Z M308 228 Q268 228 246 215.5 Q224 203 216 173 Q210 149 219 134.5 Q228 120 251 120 Q270 120 293.5 130.5 Q317 141 329 155 L348 228 L308 228 Z " />
<glyph glyph-name="ae" unicode="&#xe6;" horiz-adv-x="910" d="M574 -8 Q518 -8 474.5 9.5 Q431 27 403 60 Q353 25 297.5 7 Q242 -11 183 -11 Q91 -11 46 41 Q1 93 24 177 Q45 253 116.5 291.5 Q188 330 309 330 L357 330 Q359 333 360 336 Q361 339 364 352 Q371 379 352 391.5 Q333 404 286 404 Q241 404 200.5 396.5 Q160 389 114 372 L156 529 Q203 542 252.5 548.5 Q302 555 353 555 Q406 555 446 545 Q486 535 511 514 Q550 537 596 549 Q642 561 692 559 Q835 555 874 459.5 Q913 364 833 226 L532 226 Q527 183 552 163 Q577 143 636 143 Q669 143 704 148.5 Q739 154 811 175 L771 24 Q721 8 673 0 Q625 -8 574 -8 Z M722 362 Q732 397 717.5 416.5 Q703 436 668 436 Q625 436 597.5 412 Q570 388 556 338 L714 338 Q715 340 717 344.5 Q719 349 722 362 Z M251 120 Q279 117 309.5 127.5 Q340 138 359 155 Q355 172 354 190.5 Q353 209 354 228 L308 228 Q268 228 245.5 215 Q223 202 216 173 Q211 153 221.5 137.5 Q232 122 251 120 Z " />
<glyph glyph-name="aeacute" unicode="&#x1fd;" horiz-adv-x="900" d="M835 803 L561 615 L491 707 L722 924 L835 803 Z M574 -8 Q518 -8 474.5 9.5 Q431 27 403 60 Q353 25 297.5 7 Q242 -11 183 -11 Q91 -11 46 41 Q1 93 24 177 Q45 253 116.5 291.5 Q188 330 309 330 L357 330 Q359 333 360 336 Q361 339 364 352 Q371 379 352 391.5 Q333 404 286 404 Q241 404 200.5 396.5 Q160 389 114 372 L156 529 Q203 542 252.5 548.5 Q302 555 353 555 Q406 555 446 545 Q486 535 511 514 Q550 537 596 549 Q642 561 692 559 Q835 555 874 459.5 Q913 364 833 226 L532 226 Q527 183 552 163 Q577 143 636 143 Q669 143 704 148.5 Q739 154 811 175 L771 24 Q721 8 673 0 Q625 -8 574 -8 Z M722 362 Q732 397 717.5 416.5 Q703 436 668 436 Q625 436 597.5 412 Q570 388 556 338 L714 338 Q715 340 717 344.5 Q719 349 722 362 Z M251 120 Q279 117 309.5 127.5 Q340 138 359 155 Q355 172 354 190.5 Q353 209 354 228 L308 228 Q268 228 245.5 215 Q223 202 216 173 Q211 153 221.5 137.5 Q232 122 251 120 Z " />
<glyph glyph-name="b" unicode="b" horiz-adv-x="665" d="M625 272 Q594 141 495.5 65.5 Q397 -10 255 -10 Q203 -10 148 4 Q93 18 20 49 L219 791 L419 791 L341 501 L343 499 Q383 531 422.5 545 Q462 559 507 556 Q586 551 620 472.5 Q654 394 625 272 Z M250 159 Q261 153 273 150 Q285 147 298 147 Q342 147 374.5 178 Q407 209 421 259 Q440 329 427 363.5 Q414 398 370 398 Q351 398 335 391.5 Q319 385 307 373 L250 159 Z " />
<glyph glyph-name="c" unicode="c" horiz-adv-x="510" d="M405 28 Q359 8 317 -1.5 Q275 -11 235 -10 Q115 -6 64.5 83.5 Q14 173 51 315 Q79 422 167.5 488.5 Q256 555 377 555 Q424 555 460.5 546 Q497 537 522 519 L478 356 Q457 375 427.5 386 Q398 397 365 397 Q319 397 286.5 368 Q254 339 243 288 Q229 226 244 191 Q259 156 300 153 Q337 150 370.5 159 Q404 168 450 196 L405 28 Z " />
<glyph glyph-name="ccedilla" unicode="&#xe7;" horiz-adv-x="510" d="M320 -107 Q305 -164 251.5 -200 Q198 -236 133 -236 Q99 -236 68 -230.5 Q37 -225 12 -215 L46 -91 Q63 -100 76.5 -104 Q90 -108 104 -108 Q125 -108 139.5 -96 Q154 -84 160 -63 Q165 -44 160 -27 Q155 -10 134 13 L137 14 Q70 48 46.5 127 Q23 206 51 315 Q79 422 167.5 488.5 Q256 555 377 555 Q424 555 460.5 546 Q497 537 522 519 L478 356 Q457 375 427.5 386 Q398 397 365 397 Q319 397 286.5 368 Q254 339 243 288 Q229 226 244 191 Q259 156 300 153 Q337 150 370.5 159 Q404 168 450 196 L405 28 Q378 16 352.5 8 Q327 0 302 -5 Q307 -10 309.5 -14.5 Q312 -19 315 -24 Q324 -42 325.5 -62.5 Q327 -83 320 -107 Z " />
<glyph glyph-name="cacute" unicode="&#x107;" horiz-adv-x="510" d="M650 803 L376 615 L306 707 L537 924 L650 803 Z M405 28 Q359 8 317 -1.5 Q275 -11 235 -10 Q115 -6 64.5 83.5 Q14 173 51 315 Q79 422 167.5 488.5 Q256 555 377 555 Q424 555 460.5 546 Q497 537 522 519 L478 356 Q457 375 427.5 386 Q398 397 365 397 Q319 397 286.5 368 Q254 339 243 288 Q229 226 244 191 Q259 156 300 153 Q337 150 370.5 159 Q404 168 450 196 L405 28 Z " />
<glyph glyph-name="ccircumflex" unicode="&#x109;" horiz-adv-x="510" d="M440 736 L278 609 L201 698 L399 890 L534 890 L632 698 L523 609 L440 736 Z M405 28 Q359 8 317 -1.5 Q275 -11 235 -10 Q115 -6 64.5 83.5 Q14 173 51 315 Q79 422 167.5 488.5 Q256 555 377 555 Q424 555 460.5 546 Q497 537 522 519 L478 356 Q457 375 427.5 386 Q398 397 365 397 Q319 397 286.5 368 Q254 339 243 288 Q229 226 244 191 Q259 156 300 153 Q337 150 370.5 159 Q404 168 450 196 L405 28 Z " />
<glyph glyph-name="cdotaccent" unicode="&#x10b;" horiz-adv-x="510" d="M545 744 Q532 694 488.5 660.5 Q445 627 395 627 Q343 627 317.5 660.5 Q292 694 305 744 Q319 794 362.5 827 Q406 860 457 860 Q508 860 533.5 827 Q559 794 545 744 Z M405 28 Q359 8 317 -1.5 Q275 -11 235 -10 Q115 -6 64.5 83.5 Q14 173 51 315 Q79 422 167.5 488.5 Q256 555 377 555 Q424 555 460.5 546 Q497 537 522 519 L478 356 Q457 375 427.5 386 Q398 397 365 397 Q319 397 286.5 368 Q254 339 243 288 Q229 226 244 191 Q259 156 300 153 Q337 150 370.5 159 Q404 168 450 196 L405 28 Z " />
<glyph glyph-name="ccaron" unicode="&#x10d;" horiz-adv-x="510" d="M409 760 L568 896 L643 806 L445 614 L310 614 L212 806 L323 896 L409 760 Z M405 28 Q359 8 317 -1.5 Q275 -11 235 -10 Q115 -6 64.5 83.5 Q14 173 51 315 Q79 422 167.5 488.5 Q256 555 377 555 Q424 555 460.5 546 Q497 537 522 519 L478 356 Q457 375 427.5 386 Q398 397 365 397 Q319 397 286.5 368 Q254 339 243 288 Q229 226 244 191 Q259 156 300 153 Q337 150 370.5 159 Q404 168 450 196 L405 28 Z " />
<glyph glyph-name="d" unicode="d" horiz-adv-x="666" d="M323 43 Q292 16 253 1.5 Q214 -13 175 -11 Q90 -7 52.5 81 Q15 169 49 301 Q77 412 156.5 484.5 Q236 557 332 556 Q366 555 396.5 547.5 Q427 540 450 527 L456 530 L526 791 L726 791 L514 0 L314 0 L325 41 L323 43 Z M418 388 Q410 395 396.5 398.5 Q383 402 368 402 Q322 402 289.5 370 Q257 338 243 281 Q227 215 240.5 178 Q254 141 294 141 Q313 141 329.5 148.5 Q346 156 360 170 L418 388 Z " />
<glyph glyph-name="dcaron" unicode="&#x10f;" horiz-adv-x="666" d="M1025 893 L839 624 L723 663 L851 935 L1025 893 Z M323 43 Q292 16 253 1.5 Q214 -13 175 -11 Q90 -7 52.5 81 Q15 169 49 301 Q77 412 156.5 484.5 Q236 557 332 556 Q366 555 396.5 547.5 Q427 540 450 527 L456 530 L526 791 L726 791 L514 0 L314 0 L325 41 L323 43 Z M418 388 Q410 395 396.5 398.5 Q383 402 368 402 Q322 402 289.5 370 Q257 338 243 281 Q227 215 240.5 178 Q254 141 294 141 Q313 141 329.5 148.5 Q346 156 360 170 L418 388 Z " />
<glyph glyph-name="dslash" unicode="&#x111;" horiz-adv-x="666" d="M323 43 Q292 16 253 1.5 Q214 -13 175 -11 Q90 -7 52.5 81 Q15 169 49 301 Q77 412 156.5 484.5 Q236 557 332 556 Q366 555 396.5 547.5 Q427 540 450 527 L456 530 L479 614 L320 614 L346 710 L504 710 L526 791 L726 791 L704 710 L759 710 L733 614 L679 614 L514 0 L314 0 L325 41 L323 43 Z M418 388 Q410 395 396.5 398.5 Q383 402 368 402 Q322 402 289.5 370 Q257 338 243 281 Q227 215 240.5 178 Q254 141 294 141 Q313 141 329.5 148.5 Q346 156 360 170 L418 388 Z " />
<glyph glyph-name="eth" unicode="&#xf0;" horiz-adv-x="640" d="M601 281 Q564 141 472.5 65 Q381 -11 246 -11 Q120 -11 63.5 71.5 Q7 154 42 284 Q69 385 146 445 Q223 505 330 505 Q356 505 378 502.5 Q400 500 418 495 Q408 521 393.5 545.5 Q379 570 359 592 L255 518 L198 606 L282 660 Q263 673 241.5 685.5 Q220 698 197 709 L356 822 Q379 809 400.5 795 Q422 781 441 765 L543 837 L609 743 L517 690 Q585 606 608 500 Q631 394 601 281 Z M233 253 Q218 195 230.5 168.5 Q243 142 283 142 Q323 142 349.5 169 Q376 196 391 252 Q406 309 394 336.5 Q382 364 343 364 Q302 364 275 337 Q248 310 233 253 Z " />
<glyph glyph-name="e" unicode="e" horiz-adv-x="585" d="M454 21 Q404 5 356 -3 Q308 -11 257 -11 Q128 -11 70.5 78.5 Q13 168 52 317 Q80 426 168.5 493 Q257 560 375 556 Q518 552 557 456.5 Q596 361 516 223 L215 223 Q210 180 235 160 Q260 140 319 140 Q352 140 387 145.5 Q422 151 494 172 L454 21 Z M405 359 Q415 394 400.5 413.5 Q386 433 351 433 Q308 433 280.5 409 Q253 385 239 335 L397 335 Q398 337 400 341.5 Q402 346 405 359 Z " />
<glyph glyph-name="egrave" unicode="&#xe8;" horiz-adv-x="585" d="M309 925 L488 700 L387 612 L167 801 L309 925 Z M454 21 Q404 5 356 -3 Q308 -11 257 -11 Q128 -11 70.5 78.5 Q13 168 52 317 Q80 426 168.5 493 Q257 560 375 556 Q518 552 557 456.5 Q596 361 516 223 L215 223 Q210 180 235 160 Q260 140 319 140 Q352 140 387 145.5 Q422 151 494 172 L454 21 Z M405 359 Q415 394 400.5 413.5 Q386 433 351 433 Q308 433 280.5 409 Q253 385 239 335 L397 335 Q398 337 400 341.5 Q402 346 405 359 Z " />
<glyph glyph-name="eacute" unicode="&#xe9;" horiz-adv-x="585" d="M660 803 L386 615 L316 707 L547 924 L660 803 Z M454 21 Q404 5 356 -3 Q308 -11 257 -11 Q128 -11 70.5 78.5 Q13 168 52 317 Q80 426 168.5 493 Q257 560 375 556 Q518 552 557 456.5 Q596 361 516 223 L215 223 Q210 180 235 160 Q260 140 319 140 Q352 140 387 145.5 Q422 151 494 172 L454 21 Z M405 359 Q415 394 400.5 413.5 Q386 433 351 433 Q308 433 280.5 409 Q253 385 239 335 L397 335 Q398 337 400 341.5 Q402 346 405 359 Z " />
<glyph glyph-name="ecircumflex" unicode="&#xea;" horiz-adv-x="585" d="M430 736 L268 609 L191 698 L389 890 L524 890 L622 698 L513 609 L430 736 Z M454 21 Q404 5 356 -3 Q308 -11 257 -11 Q128 -11 70.5 78.5 Q13 168 52 317 Q80 426 168.5 493 Q257 560 375 556 Q518 552 557 456.5 Q596 361 516 223 L215 223 Q210 180 235 160 Q260 140 319 140 Q352 140 387 145.5 Q422 151 494 172 L454 21 Z M405 359 Q415 394 400.5 413.5 Q386 433 351 433 Q308 433 280.5 409 Q253 385 239 335 L397 335 Q398 337 400 341.5 Q402 346 405 359 Z " />
<glyph glyph-name="edieresis" unicode="&#xeb;" horiz-adv-x="585" d="M328 874 Q372 874 393 845.5 Q414 817 402 774 Q391 732 354.5 703.5 Q318 675 275 675 Q231 675 209.5 703.5 Q188 732 199 774 Q211 817 247.5 845.5 Q284 874 328 874 Z M578 873 Q621 873 643 844.5 Q665 816 653 774 Q642 732 605 703.5 Q568 675 525 675 Q481 675 459.5 703.5 Q438 732 449 774 Q461 816 497.5 844.5 Q534 873 578 873 Z M454 21 Q404 5 356 -3 Q308 -11 257 -11 Q128 -11 70.5 78.5 Q13 168 52 317 Q80 426 168.5 493 Q257 560 375 556 Q518 552 557 456.5 Q596 361 516 223 L215 223 Q210 180 235 160 Q260 140 319 140 Q352 140 387 145.5 Q422 151 494 172 L454 21 Z M405 359 Q415 394 400.5 413.5 Q386 433 351 433 Q308 433 280.5 409 Q253 385 239 335 L397 335 Q398 337 400 341.5 Q402 346 405 359 Z " />
<glyph glyph-name="emacron" unicode="&#x113;" horiz-adv-x="585" d="M657 840 L622 708 L220 708 L255 840 L657 840 Z M454 21 Q404 5 356 -3 Q308 -11 257 -11 Q128 -11 70.5 78.5 Q13 168 52 317 Q80 426 168.5 493 Q257 560 375 556 Q518 552 557 456.5 Q596 361 516 223 L215 223 Q210 180 235 160 Q260 140 319 140 Q352 140 387 145.5 Q422 151 494 172 L454 21 Z M405 359 Q415 394 400.5 413.5 Q386 433 351 433 Q308 433 280.5 409 Q253 385 239 335 L397 335 Q398 337 400 341.5 Q402 346 405 359 Z " />
<glyph glyph-name="ebreve" unicode="&#x115;" horiz-adv-x="585" d="M669 859 Q640 746 573.5 684.5 Q507 623 413 625 Q321 627 279 694.5 Q237 762 263 859 L389 859 Q379 815 392.5 789 Q406 763 440 763 Q475 763 502.5 789 Q530 815 543 859 L669 859 Z M454 21 Q404 5 356 -3 Q308 -11 257 -11 Q128 -11 70.5 78.5 Q13 168 52 317 Q80 426 168.5 493 Q257 560 375 556 Q518 552 557 456.5 Q596 361 516 223 L215 223 Q210 180 235 160 Q260 140 319 140 Q352 140 387 145.5 Q422 151 494 172 L454 21 Z M405 359 Q415 394 400.5 413.5 Q386 433 351 433 Q308 433 280.5 409 Q253 385 239 335 L397 335 Q398 337 400 341.5 Q402 346 405 359 Z " />
<glyph glyph-name="edotaccent" unicode="&#x117;" horiz-adv-x="585" d="M558 744 Q545 694 501.5 660.5 Q458 627 408 627 Q356 627 330.5 660.5 Q305 694 318 744 Q332 794 375.5 827 Q419 860 470 860 Q521 860 546.5 827 Q572 794 558 744 Z M454 21 Q404 5 356 -3 Q308 -11 257 -11 Q128 -11 70.5 78.5 Q13 168 52 317 Q80 426 168.5 493 Q257 560 375 556 Q518 552 557 456.5 Q596 361 516 223 L215 223 Q210 180 235 160 Q260 140 319 140 Q352 140 387 145.5 Q422 151 494 172 L454 21 Z M405 359 Q415 394 400.5 413.5 Q386 433 351 433 Q308 433 280.5 409 Q253 385 239 335 L397 335 Q398 337 400 341.5 Q402 346 405 359 Z " />
<glyph glyph-name="eogonek" unicode="&#x119;" horiz-adv-x="585" d="M316 -215 Q287 -225 253 -230.5 Q219 -236 185 -236 Q119 -236 85 -200 Q51 -164 66 -107 Q75 -73 97 -46 Q119 -19 153 0 Q155 1 157.5 2.5 Q160 4 162 5 Q82 35 51.5 117 Q21 199 52 317 Q80 426 168.5 493 Q257 560 375 556 Q518 552 557 456.5 Q596 361 516 223 L215 223 Q210 180 235 160 Q260 140 319 140 Q352 140 387 145.5 Q422 151 494 172 L454 21 Q434 14 413.5 9 Q393 4 374 0 L374 0 Q324 -9 288 -32 Q252 -55 246 -79 Q242 -93 250 -100.5 Q258 -108 278 -108 Q294 -108 311.5 -104 Q329 -100 350 -91 L316 -215 Z M405 359 Q415 394 400.5 413.5 Q386 433 351 433 Q308 433 280.5 409 Q253 385 239 335 L397 335 Q398 337 400 341.5 Q402 346 405 359 Z " />
<glyph glyph-name="ecaron" unicode="&#x11b;" horiz-adv-x="585" d="M429 760 L588 896 L663 806 L465 614 L330 614 L232 806 L343 896 L429 760 Z M454 21 Q404 5 356 -3 Q308 -11 257 -11 Q128 -11 70.5 78.5 Q13 168 52 317 Q80 426 168.5 493 Q257 560 375 556 Q518 552 557 456.5 Q596 361 516 223 L215 223 Q210 180 235 160 Q260 140 319 140 Q352 140 387 145.5 Q422 151 494 172 L454 21 Z M405 359 Q415 394 400.5 413.5 Q386 433 351 433 Q308 433 280.5 409 Q253 385 239 335 L397 335 Q398 337 400 341.5 Q402 346 405 359 Z " />
<glyph glyph-name="f" unicode="f" horiz-adv-x="479" d="M345 395 L239 0 L39 0 L145 395 L63 395 L103 545 L186 545 Q229 679 305 740 Q381 801 503 801 Q540 801 575 796 Q610 791 645 781 L602 619 Q573 629 547 633 Q521 637 491 637 Q447 637 423 616 Q399 595 386 545 L529 545 L489 395 L345 395 Z " />
<glyph glyph-name="fi" unicode="&#xfb01;" horiz-adv-x="839" d="M905 744 Q892 694 848.5 660.5 Q805 627 755 627 Q703 627 677.5 660.5 Q652 694 665 744 Q679 794 722.5 827 Q766 860 817 860 Q868 860 893.5 827 Q919 794 905 744 Z M345 395 L239 0 L39 0 L145 395 L63 395 L103 545 L186 545 Q229 679 305 740 Q381 801 503 801 Q540 801 575 796 Q610 791 645 781 L602 619 Q573 629 547 633 Q521 637 491 637 Q447 637 423 616 Q399 595 386 545 L529 545 L489 395 L345 395 Z M832 545 L686 0 L486 0 L632 545 L832 545 Z " />
<glyph glyph-name="fl" unicode="&#xfb02;" horiz-adv-x="839" d="M345 395 L239 0 L39 0 L145 395 L63 395 L103 545 L186 545 Q229 679 305 740 Q381 801 503 801 Q540 801 575 796 Q610 791 645 781 L602 619 Q573 629 547 633 Q521 637 491 637 Q447 637 423 616 Q399 595 386 545 L529 545 L489 395 L345 395 Z M898 791 L686 0 L486 0 L698 791 L898 791 Z " />
<glyph glyph-name="f_f" unicode="&#xfb00;" horiz-adv-x="958" d="M345 395 L239 0 L39 0 L145 395 L63 395 L103 545 L186 545 Q229 679 305 740 Q381 801 503 801 Q540 801 575 796 Q610 791 645 781 L602 619 Q573 629 547 633 Q521 637 491 637 Q447 637 423 616 Q399 595 386 545 L529 545 L489 395 L345 395 Z M824 395 L718 0 L518 0 L624 395 L542 395 L582 545 L665 545 Q708 679 784 740 Q860 801 982 801 Q1019 801 1054 796 Q1089 791 1124 781 L1081 619 Q1052 629 1026 633 Q1000 637 970 637 Q926 637 902 616 Q878 595 865 545 L1008 545 L968 395 L824 395 Z " />
<glyph glyph-name="f_f_i" unicode="&#xfb03;" horiz-adv-x="1318" d="M1384 744 Q1371 694 1327.5 660.5 Q1284 627 1234 627 Q1182 627 1156.5 660.5 Q1131 694 1144 744 Q1158 794 1201.5 827 Q1245 860 1296 860 Q1347 860 1372.5 827 Q1398 794 1384 744 Z M345 395 L239 0 L39 0 L145 395 L63 395 L103 545 L186 545 Q229 679 305 740 Q381 801 503 801 Q540 801 575 796 Q610 791 645 781 L602 619 Q573 629 547 633 Q521 637 491 637 Q447 637 423 616 Q399 595 386 545 L529 545 L489 395 L345 395 Z M824 395 L718 0 L518 0 L624 395 L542 395 L582 545 L665 545 Q708 679 784 740 Q860 801 982 801 Q1019 801 1054 796 Q1089 791 1124 781 L1081 619 Q1052 629 1026 633 Q1000 637 970 637 Q926 637 902 616 Q878 595 865 545 L1008 545 L968 395 L824 395 Z M1311 545 L1165 0 L965 0 L1111 545 L1311 545 Z " />
<glyph glyph-name="f_f_l" unicode="&#xfb04;" horiz-adv-x="1318" d="M345 395 L239 0 L39 0 L145 395 L63 395 L103 545 L186 545 Q229 679 305 740 Q381 801 503 801 Q540 801 575 796 Q610 791 645 781 L602 619 Q573 629 547 633 Q521 637 491 637 Q447 637 423 616 Q399 595 386 545 L529 545 L489 395 L345 395 Z M824 395 L718 0 L518 0 L624 395 L542 395 L582 545 L665 545 Q708 679 784 740 Q860 801 982 801 Q1019 801 1054 796 Q1089 791 1124 781 L1081 619 Q1052 629 1026 633 Q1000 637 970 637 Q926 637 902 616 Q878 595 865 545 L1008 545 L968 395 L824 395 Z M1377 791 L1165 0 L965 0 L1177 791 L1377 791 Z " />
<glyph glyph-name="g" unicode="g" horiz-adv-x="632" d="M-46 -79 Q-39 -55 -18.5 -32.5 Q2 -10 33 9 Q16 25 10.5 46.5 Q5 68 12 94 Q19 121 43 152.5 Q67 184 115 229 Q92 259 86.5 298.5 Q81 338 94 384 Q117 463 189.5 509 Q262 555 371 555 Q413 555 447 548 Q481 541 510 527 L671 565 L629 408 L582 408 Q584 343 553 289 Q522 235 464 202 Q413 172 350.5 164.5 Q288 157 222 173 Q214 165 208 157 Q202 149 200 142 Q197 130 202.5 125 Q208 120 223 120 L358 120 Q447 120 490 70.5 Q533 21 513 -56 Q492 -138 405.5 -186.5 Q319 -235 190 -235 Q61 -235 -2.5 -192.5 Q-66 -150 -46 -79 Z M397 359 Q406 393 394.5 411 Q383 429 351 429 Q319 429 297 410.5 Q275 392 266 359 Q257 326 269.5 307.5 Q282 289 313 289 Q345 289 366.5 307 Q388 325 397 359 Z M183 -20 Q170 -20 164.5 -20 Q159 -20 156 -19 Q149 -24 144 -33 Q139 -42 136 -52 Q128 -82 147 -95 Q166 -108 219 -108 Q269 -108 298.5 -95.5 Q328 -83 334 -59 Q340 -38 331 -29 Q322 -20 294 -20 L183 -20 Z " />
<glyph glyph-name="gcircumflex" unicode="&#x11d;" horiz-adv-x="632" d="M452 736 L290 609 L213 698 L411 890 L546 890 L644 698 L535 609 L452 736 Z M-46 -79 Q-39 -55 -18.5 -32.5 Q2 -10 33 9 Q16 25 10.5 46.5 Q5 68 12 94 Q19 121 43 152.5 Q67 184 115 229 Q92 259 86.5 298.5 Q81 338 94 384 Q117 463 189.5 509 Q262 555 371 555 Q413 555 447 548 Q481 541 510 527 L671 565 L629 408 L582 408 Q584 343 553 289 Q522 235 464 202 Q413 172 350.5 164.5 Q288 157 222 173 Q214 165 208 157 Q202 149 200 142 Q197 130 202.5 125 Q208 120 223 120 L358 120 Q447 120 490 70.5 Q533 21 513 -56 Q492 -138 405.5 -186.5 Q319 -235 190 -235 Q61 -235 -2.5 -192.5 Q-66 -150 -46 -79 Z M397 359 Q406 393 394.5 411 Q383 429 351 429 Q319 429 297 410.5 Q275 392 266 359 Q257 326 269.5 307.5 Q282 289 313 289 Q345 289 366.5 307 Q388 325 397 359 Z M183 -20 Q170 -20 164.5 -20 Q159 -20 156 -19 Q149 -24 144 -33 Q139 -42 136 -52 Q128 -82 147 -95 Q166 -108 219 -108 Q269 -108 298.5 -95.5 Q328 -83 334 -59 Q340 -38 331 -29 Q322 -20 294 -20 L183 -20 Z " />
<glyph glyph-name="gbreve" unicode="&#x11f;" horiz-adv-x="632" d="M670 859 Q641 746 574.5 684.5 Q508 623 414 625 Q322 627 280 694.5 Q238 762 264 859 L390 859 Q380 815 393.5 789 Q407 763 441 763 Q476 763 503.5 789 Q531 815 544 859 L670 859 Z M-46 -79 Q-39 -55 -18.5 -32.5 Q2 -10 33 9 Q16 25 10.5 46.5 Q5 68 12 94 Q19 121 43 152.5 Q67 184 115 229 Q92 259 86.5 298.5 Q81 338 94 384 Q117 463 189.5 509 Q262 555 371 555 Q413 555 447 548 Q481 541 510 527 L671 565 L629 408 L582 408 Q584 343 553 289 Q522 235 464 202 Q413 172 350.5 164.5 Q288 157 222 173 Q214 165 208 157 Q202 149 200 142 Q197 130 202.5 125 Q208 120 223 120 L358 120 Q447 120 490 70.5 Q533 21 513 -56 Q492 -138 405.5 -186.5 Q319 -235 190 -235 Q61 -235 -2.5 -192.5 Q-66 -150 -46 -79 Z M397 359 Q406 393 394.5 411 Q383 429 351 429 Q319 429 297 410.5 Q275 392 266 359 Q257 326 269.5 307.5 Q282 289 313 289 Q345 289 366.5 307 Q388 325 397 359 Z M183 -20 Q170 -20 164.5 -20 Q159 -20 156 -19 Q149 -24 144 -33 Q139 -42 136 -52 Q128 -82 147 -95 Q166 -108 219 -108 Q269 -108 298.5 -95.5 Q328 -83 334 -59 Q340 -38 331 -29 Q322 -20 294 -20 L183 -20 Z " />
<glyph glyph-name="gdotaccent" unicode="&#x121;" horiz-adv-x="632" d="M558 744 Q545 694 501.5 660.5 Q458 627 408 627 Q356 627 330.5 660.5 Q305 694 318 744 Q332 794 375.5 827 Q419 860 470 860 Q521 860 546.5 827 Q572 794 558 744 Z M-46 -79 Q-39 -55 -18.5 -32.5 Q2 -10 33 9 Q16 25 10.5 46.5 Q5 68 12 94 Q19 121 43 152.5 Q67 184 115 229 Q92 259 86.5 298.5 Q81 338 94 384 Q117 463 189.5 509 Q262 555 371 555 Q413 555 447 548 Q481 541 510 527 L671 565 L629 408 L582 408 Q584 343 553 289 Q522 235 464 202 Q413 172 350.5 164.5 Q288 157 222 173 Q214 165 208 157 Q202 149 200 142 Q197 130 202.5 125 Q208 120 223 120 L358 120 Q447 120 490 70.5 Q533 21 513 -56 Q492 -138 405.5 -186.5 Q319 -235 190 -235 Q61 -235 -2.5 -192.5 Q-66 -150 -46 -79 Z M397 359 Q406 393 394.5 411 Q383 429 351 429 Q319 429 297 410.5 Q275 392 266 359 Q257 326 269.5 307.5 Q282 289 313 289 Q345 289 366.5 307 Q388 325 397 359 Z M183 -20 Q170 -20 164.5 -20 Q159 -20 156 -19 Q149 -24 144 -33 Q139 -42 136 -52 Q128 -82 147 -95 Q166 -108 219 -108 Q269 -108 298.5 -95.5 Q328 -83 334 -59 Q340 -38 331 -29 Q322 -20 294 -20 L183 -20 Z " />
<glyph glyph-name="gcommaaccent" unicode="&#x123;" horiz-adv-x="632" d="M290 748 L565 936 L634 844 L404 627 L290 748 Z M-46 -79 Q-39 -55 -18.5 -32.5 Q2 -10 33 9 Q16 25 10.5 46.5 Q5 68 12 94 Q19 121 43 152.5 Q67 184 115 229 Q92 259 86.5 298.5 Q81 338 94 384 Q117 463 189.5 509 Q262 555 371 555 Q413 555 447 548 Q481 541 510 527 L671 565 L629 408 L582 408 Q584 343 553 289 Q522 235 464 202 Q413 172 350.5 164.5 Q288 157 222 173 Q214 165 208 157 Q202 149 200 142 Q197 130 202.5 125 Q208 120 223 120 L358 120 Q447 120 490 70.5 Q533 21 513 -56 Q492 -138 405.5 -186.5 Q319 -235 190 -235 Q61 -235 -2.5 -192.5 Q-66 -150 -46 -79 Z M397 359 Q406 393 394.5 411 Q383 429 351 429 Q319 429 297 410.5 Q275 392 266 359 Q257 326 269.5 307.5 Q282 289 313 289 Q345 289 366.5 307 Q388 325 397 359 Z M183 -20 Q170 -20 164.5 -20 Q159 -20 156 -19 Q149 -24 144 -33 Q139 -42 136 -52 Q128 -82 147 -95 Q166 -108 219 -108 Q269 -108 298.5 -95.5 Q328 -83 334 -59 Q340 -38 331 -29 Q322 -20 294 -20 L183 -20 Z " />
<glyph glyph-name="h" unicode="h" horiz-adv-x="686" d="M308 377 L207 0 L7 0 L219 791 L419 791 L344 510 L347 507 Q384 531 424.5 543.5 Q465 556 507 556 Q589 556 621 501.5 Q653 447 627 349 L533 0 L333 0 L418 317 Q430 361 423.5 381 Q417 401 390 401 Q371 401 348 394 Q325 387 308 377 Z " />
<glyph glyph-name="hcircumflex" unicode="&#x125;" horiz-adv-x="686" d="M318 942 L156 815 L79 904 L277 1096 L412 1096 L510 904 L401 815 L318 942 Z M308 377 L207 0 L7 0 L219 791 L419 791 L344 510 L347 507 Q384 531 424.5 543.5 Q465 556 507 556 Q589 556 621 501.5 Q653 447 627 349 L533 0 L333 0 L418 317 Q430 361 423.5 381 Q417 401 390 401 Q371 401 348 394 Q325 387 308 377 Z " />
<glyph glyph-name="hbar" unicode="&#x127;" horiz-adv-x="686" d="M308 377 L207 0 L7 0 L172 614 L117 614 L143 710 L197 710 L219 791 L419 791 L397 710 L556 710 L530 614 L372 614 L344 510 L347 507 Q384 531 424.5 543.5 Q465 556 507 556 Q589 556 621 501.5 Q653 447 627 349 L533 0 L333 0 L418 317 Q430 361 423.5 381 Q417 401 390 401 Q371 401 348 394 Q325 387 308 377 Z " />
<glyph glyph-name="i" unicode="i" horiz-adv-x="360" d="M426 744 Q413 694 369.5 660.5 Q326 627 276 627 Q224 627 198.5 660.5 Q173 694 186 744 Q200 794 243.5 827 Q287 860 338 860 Q389 860 414.5 827 Q440 794 426 744 Z M353 545 L207 0 L7 0 L153 545 L353 545 Z " />
<glyph glyph-name="igrave" unicode="&#xec;" horiz-adv-x="360" d="M211 925 L390 700 L289 612 L69 801 L211 925 Z M353 545 L207 0 L7 0 L153 545 L353 545 Z " />
<glyph glyph-name="iacute" unicode="&#xed;" horiz-adv-x="360" d="M533 803 L259 615 L189 707 L420 924 L533 803 Z M353 545 L207 0 L7 0 L153 545 L353 545 Z " />
<glyph glyph-name="icircumflex" unicode="&#xee;" horiz-adv-x="360" d="M318 735 L156 608 L79 697 L277 889 L412 889 L510 697 L401 608 L318 735 Z M353 544 L207 -1 L7 -1 L153 544 L353 544 Z " />
<glyph glyph-name="idieresis" unicode="&#xef;" horiz-adv-x="360" d="M216 874 Q260 874 281 845.5 Q302 817 290 774 Q279 732 242.5 703.5 Q206 675 163 675 Q119 675 97.5 703.5 Q76 732 87 774 Q99 817 135.5 845.5 Q172 874 216 874 Z M466 873 Q509 873 531 844.5 Q553 816 541 774 Q530 732 493 703.5 Q456 675 413 675 Q369 675 347.5 703.5 Q326 732 337 774 Q349 816 385.5 844.5 Q422 873 466 873 Z M353 544 L207 -1 L7 -1 L153 544 L353 544 Z " />
<glyph glyph-name="itilde" unicode="&#x129;" horiz-adv-x="360" d="M562 879 Q529 755 481 697.5 Q433 640 365 643 Q343 644 325.5 654 Q308 664 287 693 Q271 713 262 719 Q253 725 243 725 Q227 726 213 705.5 Q199 685 188 645 L61 645 Q92 765 142.5 825 Q193 885 258 880 Q284 878 304 867 Q324 856 347 825 Q361 807 369 801.5 Q377 796 386 796 Q399 795 411 815 Q423 835 435 879 L562 879 Z M353 545 L207 0 L7 0 L153 545 L353 545 Z " />
<glyph glyph-name="imacron" unicode="&#x12b;" horiz-adv-x="360" d="M533 840 L498 708 L96 708 L131 840 L533 840 Z M353 545 L207 0 L7 0 L153 545 L353 545 Z " />
<glyph glyph-name="ibreve" unicode="&#x12d;" horiz-adv-x="360" d="M540 859 Q511 746 444.5 684.5 Q378 623 284 625 Q192 627 150 694.5 Q108 762 134 859 L260 859 Q250 815 263.5 789 Q277 763 311 763 Q346 763 373.5 789 Q401 815 414 859 L540 859 Z M353 545 L207 0 L7 0 L153 545 L353 545 Z " />
<glyph glyph-name="iogonek" unicode="&#x12f;" horiz-adv-x="360" d="M425 744 Q412 694 368.5 660.5 Q325 627 275 627 Q223 627 197.5 660.5 Q172 694 185 744 Q199 794 242.5 827 Q286 860 337 860 Q388 860 413.5 827 Q439 794 425 744 Z M148 -215 Q119 -225 85 -230.5 Q51 -236 17 -236 Q-49 -236 -83 -200 Q-117 -164 -102 -107 Q-93 -73 -71 -46 Q-49 -19 -15 0 Q-9 3 -3 6 Q3 9 9 12 L152 545 L352 545 L206 0 Q156 -9 120 -32 Q84 -55 78 -79 Q74 -93 82 -100.5 Q90 -108 110 -108 Q126 -108 143.5 -104 Q161 -100 182 -91 L148 -215 Z " />
<glyph glyph-name="dotlessi" unicode="&#x131;" horiz-adv-x="360" d="M353 545 L207 0 L7 0 L153 545 L353 545 Z " />
<glyph glyph-name="ij" unicode="&#x133;" horiz-adv-x="720" d="M426 744 Q413 694 369.5 660.5 Q326 627 276 627 Q224 627 198.5 660.5 Q173 694 186 744 Q200 794 243.5 827 Q287 860 338 860 Q389 860 414.5 827 Q440 794 426 744 Z M786 743 Q773 693 729.5 659.5 Q686 626 636 626 Q584 626 558.5 659.5 Q533 693 546 743 Q560 793 603.5 826 Q647 859 698 859 Q749 859 774.5 826 Q800 793 786 743 Z M353 545 L207 0 L7 0 L153 545 L353 545 Z M193 -58 Q235 -62 266 -58.5 Q297 -55 319 -43 Q342 -29 357.5 -3 Q373 23 385 67 L513 544 L713 544 L587 73 Q561 -22 523 -84 Q485 -146 430 -181 Q379 -214 308 -227 Q237 -240 146 -232 L193 -58 Z " />
<glyph glyph-name="j" unicode="j" horiz-adv-x="360" d="M426 744 Q413 694 369.5 660.5 Q326 627 276 627 Q224 627 198.5 660.5 Q173 694 186 744 Q200 794 243.5 827 Q287 860 338 860 Q389 860 414.5 827 Q440 794 426 744 Z M-167 -57 Q-125 -61 -94 -57.5 Q-63 -54 -41 -42 Q-18 -28 -2.5 -2 Q13 24 25 68 L153 545 L353 545 L227 74 Q201 -21 163 -83 Q125 -145 70 -180 Q19 -213 -52 -226 Q-123 -239 -214 -231 L-167 -57 Z " />
<glyph glyph-name="jcircumflex" unicode="&#x135;" horiz-adv-x="360" d="M316 736 L154 609 L77 698 L275 890 L410 890 L508 698 L399 609 L316 736 Z M-167 -57 Q-125 -61 -94 -57.5 Q-63 -54 -41 -42 Q-18 -28 -2.5 -2 Q13 24 25 68 L153 545 L353 545 L227 74 Q201 -21 163 -83 Q125 -145 70 -180 Q19 -213 -52 -226 Q-123 -239 -214 -231 L-167 -57 Z " />
<glyph glyph-name="dotlessj" unicode="&#x237;" horiz-adv-x="360" d="M-167 -57 Q-125 -61 -94 -57.5 Q-63 -54 -41 -42 Q-18 -28 -2.5 -2 Q13 24 25 68 L153 545 L353 545 L227 74 Q201 -21 163 -83 Q125 -145 70 -180 Q19 -213 -52 -226 Q-123 -239 -214 -231 L-167 -57 Z " />
<glyph glyph-name="k" unicode="k" horiz-adv-x="626" d="M266 216 L207 0 L7 0 L219 791 L419 791 L306 366 Q332 366 348.5 380.5 Q365 395 403 442 Q413 456 428.5 475.5 Q444 495 482 545 L684 545 L525 362 Q499 332 475 313.5 Q451 295 436 292 L436 289 Q449 286 464.5 267.5 Q480 249 488 224 L558 0 L356 0 Q346 36 342 51.5 Q338 67 334 79 Q326 108 321 126.5 Q316 145 312 158 Q301 192 293 204 Q285 216 266 216 Z " />
<glyph glyph-name="kcommaaccent" unicode="&#x137;" horiz-adv-x="626" d="M266 216 L207 0 L7 0 L219 791 L419 791 L306 366 Q332 366 348.5 380.5 Q365 395 403 442 Q413 456 428.5 475.5 Q444 495 482 545 L684 545 L525 362 Q499 332 475 313.5 Q451 295 436 292 L436 289 Q449 286 464.5 267.5 Q480 249 488 224 L558 0 L356 0 Q346 36 342 51.5 Q338 67 334 79 Q326 108 321 126.5 Q316 145 312 158 Q301 192 293 204 Q285 216 266 216 Z M348 -164 L106 -321 L43 -236 L241 -50 L348 -164 Z " />
<glyph glyph-name="kgreenlandic" unicode="&#x138;" horiz-adv-x="626" d="M250 181 L202 0 L-3 0 L143 545 L348 545 L298 360 Q323 360 334 369 Q345 378 362 403 Q370 414 380 431 Q390 448 405 474 Q413 486 422.5 502.5 Q432 519 447 545 L682 545 L542 367 Q513 330 492.5 310.5 Q472 291 454 283 L453 279 Q464 270 473.5 249 Q483 228 494 184 L543 0 L319 0 Q316 23 314 40 Q312 57 310 71 Q307 96 304 113 Q301 130 298 142 Q292 164 284.5 172.5 Q277 181 250 181 Z " />
<glyph glyph-name="l" unicode="l" horiz-adv-x="360" d="M419 791 L207 0 L7 0 L219 791 L419 791 Z " />
<glyph glyph-name="lacute" unicode="&#x13a;" horiz-adv-x="360" d="M519 1038 L245 850 L175 942 L406 1159 L519 1038 Z M419 791 L207 0 L7 0 L219 791 L419 791 Z " />
<glyph glyph-name="lcommaaccent" unicode="&#x13c;" horiz-adv-x="360" d="M419 791 L207 0 L7 0 L219 791 L419 791 Z M180 -164 L-62 -321 L-125 -236 L73 -50 L180 -164 Z " />
<glyph glyph-name="lcaron" unicode="&#x13e;" horiz-adv-x="360" d="M716 893 L530 624 L414 663 L542 935 L716 893 Z M419 791 L207 0 L7 0 L219 791 L419 791 Z " />
<glyph glyph-name="ldot" unicode="&#x140;" horiz-adv-x="469" d="M419 791 L207 0 L7 0 L219 791 L419 791 Z M643 509 Q630 459 586.5 425.5 Q543 392 493 392 Q441 392 415.5 425.5 Q390 459 403 509 Q417 559 460.5 592 Q504 625 555 625 Q606 625 631.5 592 Q657 559 643 509 Z " />
<glyph glyph-name="lslash" unicode="&#x142;" horiz-adv-x="360" d="M403 462 L319 417 L207 0 L7 0 L85 292 L6 250 L37 365 L116 407 L219 791 L419 791 L350 532 L434 577 L403 462 Z " />
<glyph glyph-name="m" unicode="m" horiz-adv-x="994" d="M308 377 L207 0 L7 0 L153 545 L353 545 L341 500 L344 497 Q390 528 431.5 542 Q473 556 516 556 Q556 556 584 539 Q612 522 625 490 Q677 523 726.5 539.5 Q776 556 820 556 Q900 556 931 503.5 Q962 451 937 358 L841 0 L641 0 L727 319 Q739 363 733.5 382 Q728 401 702 401 Q685 401 666 395 Q647 389 625 377 L524 0 L324 0 L410 319 Q422 362 416 381.5 Q410 401 384 401 Q367 401 345.5 394 Q324 387 308 377 Z " />
<glyph glyph-name="n" unicode="n" horiz-adv-x="686" d="M308 377 L207 0 L7 0 L153 545 L353 545 L344 510 L347 507 Q384 531 424 543.5 Q464 556 507 556 Q588 556 620.5 502 Q653 448 627 352 L533 0 L333 0 L420 326 Q430 365 423.5 383 Q417 401 391 401 Q372 401 348.5 394.5 Q325 388 308 377 Z " />
<glyph glyph-name="ntilde" unicode="&#xf1;" horiz-adv-x="686" d="M725 879 Q692 755 644 697.5 Q596 640 528 643 Q506 644 488.5 654 Q471 664 450 693 Q434 713 425 719 Q416 725 406 725 Q390 726 376 705.5 Q362 685 351 645 L224 645 Q255 765 305.5 825 Q356 885 421 880 Q447 878 467 867 Q487 856 510 825 Q524 807 532 801.5 Q540 796 549 796 Q562 795 574 815 Q586 835 598 879 L725 879 Z M308 377 L207 0 L7 0 L153 545 L353 545 L344 510 L347 507 Q384 531 424 543.5 Q464 556 507 556 Q588 556 620.5 502 Q653 448 627 352 L533 0 L333 0 L420 326 Q430 365 423.5 383 Q417 401 391 401 Q372 401 348.5 394.5 Q325 388 308 377 Z " />
<glyph glyph-name="nacute" unicode="&#x144;" horiz-adv-x="686" d="M713 803 L439 615 L369 707 L600 924 L713 803 Z M308 377 L207 0 L7 0 L153 545 L353 545 L344 510 L347 507 Q384 531 424 543.5 Q464 556 507 556 Q588 556 620.5 502 Q653 448 627 352 L533 0 L333 0 L420 326 Q430 365 423.5 383 Q417 401 391 401 Q372 401 348.5 394.5 Q325 388 308 377 Z " />
<glyph glyph-name="ncommaaccent" unicode="&#x146;" horiz-adv-x="686" d="M308 377 L207 0 L7 0 L153 545 L353 545 L344 510 L347 507 Q384 531 424 543.5 Q464 556 507 556 Q588 556 620.5 502 Q653 448 627 352 L533 0 L333 0 L420 326 Q430 365 423.5 383 Q417 401 391 401 Q372 401 348.5 394.5 Q325 388 308 377 Z M354 -164 L112 -321 L49 -236 L247 -50 L354 -164 Z " />
<glyph glyph-name="ncaron" unicode="&#x148;" horiz-adv-x="686" d="M467 760 L626 896 L701 806 L503 614 L368 614 L270 806 L381 896 L467 760 Z M308 377 L207 0 L7 0 L153 545 L353 545 L344 510 L347 507 Q384 531 424 543.5 Q464 556 507 556 Q588 556 620.5 502 Q653 448 627 352 L533 0 L333 0 L420 326 Q430 365 423.5 383 Q417 401 391 401 Q372 401 348.5 394.5 Q325 388 308 377 Z " />
<glyph glyph-name="napostrophe" unicode="&#x149;" horiz-adv-x="686" d="M233 754 L40 444 L-82 481 L61 786 L233 754 Z M308 377 L207 0 L7 0 L153 545 L353 545 L344 510 L347 507 Q384 531 424 543.5 Q464 556 507 556 Q588 556 620.5 502 Q653 448 627 352 L533 0 L333 0 L420 326 Q430 365 423.5 383 Q417 401 391 401 Q372 401 348.5 394.5 Q325 388 308 377 Z " />
<glyph glyph-name="eng" unicode="&#x14b;" horiz-adv-x="686" d="M396 -180 Q345 -213 274 -226 Q203 -239 112 -231 L159 -57 Q201 -61 232 -57.5 Q263 -54 285 -42 Q308 -28 323.5 -2 Q339 24 351 68 L351 68 L420 326 Q430 365 423.5 383 Q417 401 391 401 Q372 401 348.5 394.5 Q325 388 308 377 L207 0 L7 0 L153 545 L353 545 L344 510 L347 507 Q384 531 424 543.5 Q464 556 507 556 Q588 556 620 502 Q652 448 627 352 L553 73 L553 73 Q527 -22 488.5 -83.5 Q450 -145 396 -180 Z " />
<glyph glyph-name="o" unicode="o" horiz-adv-x="639" d="M594 246 Q563 125 472.5 57 Q382 -11 252 -9 Q123 -7 65.5 78 Q8 163 46 297 Q80 420 169.5 488 Q259 556 386 554 Q517 552 573 468.5 Q629 385 594 246 Z M396 261 Q415 333 405 367 Q395 401 355 402 Q316 403 288 372.5 Q260 342 244 283 Q225 211 235 177.5 Q245 144 285 143 Q324 142 352 172 Q380 202 396 261 Z " />
<glyph glyph-name="ograve" unicode="&#xf2;" horiz-adv-x="639" d="M335 925 L514 700 L413 612 L193 801 L335 925 Z M594 246 Q563 125 472.5 57 Q382 -11 252 -9 Q123 -7 65.5 78 Q8 163 46 297 Q80 420 169.5 488 Q259 556 386 554 Q517 552 573 468.5 Q629 385 594 246 Z M396 261 Q415 333 405 367 Q395 401 355 402 Q316 403 288 372.5 Q260 342 244 283 Q225 211 235 177.5 Q245 144 285 143 Q324 142 352 172 Q380 202 396 261 Z " />
<glyph glyph-name="oacute" unicode="&#xf3;" horiz-adv-x="639" d="M682 803 L408 615 L338 707 L569 924 L682 803 Z M594 246 Q563 125 472.5 57 Q382 -11 252 -9 Q123 -7 65.5 78 Q8 163 46 297 Q80 420 169.5 488 Q259 556 386 554 Q517 552 573 468.5 Q629 385 594 246 Z M396 261 Q415 333 405 367 Q395 401 355 402 Q316 403 288 372.5 Q260 342 244 283 Q225 211 235 177.5 Q245 144 285 143 Q324 142 352 172 Q380 202 396 261 Z " />
<glyph glyph-name="ocircumflex" unicode="&#xf4;" horiz-adv-x="639" d="M458 736 L296 609 L219 698 L417 890 L552 890 L650 698 L541 609 L458 736 Z M594 246 Q563 125 472.5 57 Q382 -11 252 -9 Q123 -7 65.5 78 Q8 163 46 297 Q80 420 169.5 488 Q259 556 386 554 Q517 552 573 468.5 Q629 385 594 246 Z M396 261 Q415 333 405 367 Q395 401 355 402 Q316 403 288 372.5 Q260 342 244 283 Q225 211 235 177.5 Q245 144 285 143 Q324 142 352 172 Q380 202 396 261 Z " />
<glyph glyph-name="otilde" unicode="&#xf5;" horiz-adv-x="639" d="M702 879 Q669 755 621 697.5 Q573 640 505 643 Q483 644 465.5 654 Q448 664 427 693 Q411 713 402 719 Q393 725 383 725 Q367 726 353 705.5 Q339 685 328 645 L201 645 Q232 765 282.5 825 Q333 885 398 880 Q424 878 444 867 Q464 856 487 825 Q501 807 509 801.5 Q517 796 526 796 Q539 795 551 815 Q563 835 575 879 L702 879 Z M594 246 Q563 125 472.5 57 Q382 -11 252 -9 Q123 -7 65.5 78 Q8 163 46 297 Q80 420 169.5 488 Q259 556 386 554 Q517 552 573 468.5 Q629 385 594 246 Z M396 261 Q415 333 405 367 Q395 401 355 402 Q316 403 288 372.5 Q260 342 244 283 Q225 211 235 177.5 Q245 144 285 143 Q324 142 352 172 Q380 202 396 261 Z " />
<glyph glyph-name="odieresis" unicode="&#xf6;" horiz-adv-x="639" d="M356 874 Q400 874 421 845.5 Q442 817 430 774 Q419 732 382.5 703.5 Q346 675 303 675 Q259 675 237.5 703.5 Q216 732 227 774 Q239 817 275.5 845.5 Q312 874 356 874 Z M606 873 Q649 873 671 844.5 Q693 816 681 774 Q670 732 633 703.5 Q596 675 553 675 Q509 675 487.5 703.5 Q466 732 477 774 Q489 816 525.5 844.5 Q562 873 606 873 Z M594 246 Q563 125 472.5 57 Q382 -11 252 -9 Q123 -7 65.5 78 Q8 163 46 297 Q80 420 169.5 488 Q259 556 386 554 Q517 552 573 468.5 Q629 385 594 246 Z M396 261 Q415 333 405 367 Q395 401 355 402 Q316 403 288 372.5 Q260 342 244 283 Q225 211 235 177.5 Q245 144 285 143 Q324 142 352 172 Q380 202 396 261 Z " />
<glyph glyph-name="omacron" unicode="&#x14d;" horiz-adv-x="639" d="M673 840 L638 708 L236 708 L271 840 L673 840 Z M594 246 Q563 125 472.5 57 Q382 -11 252 -9 Q123 -7 65.5 78 Q8 163 46 297 Q80 420 169.5 488 Q259 556 386 554 Q517 552 573 468.5 Q629 385 594 246 Z M396 261 Q415 333 405 367 Q395 401 355 402 Q316 403 288 372.5 Q260 342 244 283 Q225 211 235 177.5 Q245 144 285 143 Q324 142 352 172 Q380 202 396 261 Z " />
<glyph glyph-name="obreve" unicode="&#x14f;" horiz-adv-x="639" d="M680 859 Q651 746 584.5 684.5 Q518 623 424 625 Q332 627 290 694.5 Q248 762 274 859 L400 859 Q390 815 403.5 789 Q417 763 451 763 Q486 763 513.5 789 Q541 815 554 859 L680 859 Z M594 246 Q563 125 472.5 57 Q382 -11 252 -9 Q123 -7 65.5 78 Q8 163 46 297 Q80 420 169.5 488 Q259 556 386 554 Q517 552 573 468.5 Q629 385 594 246 Z M396 261 Q415 333 405 367 Q395 401 355 402 Q316 403 288 372.5 Q260 342 244 283 Q225 211 235 177.5 Q245 144 285 143 Q324 142 352 172 Q380 202 396 261 Z " />
<glyph glyph-name="ohungarumlaut" unicode="&#x151;" horiz-adv-x="639" d="M541 855 L307 618 L210 684 L392 937 L541 855 Z M783 797 L514 600 L440 688 L663 912 L783 797 Z M594 246 Q563 125 472.5 57 Q382 -11 252 -9 Q123 -7 65.5 78 Q8 163 46 297 Q80 420 169.5 488 Q259 556 386 554 Q517 552 573 468.5 Q629 385 594 246 Z M396 261 Q415 333 405 367 Q395 401 355 402 Q316 403 288 372.5 Q260 342 244 283 Q225 211 235 177.5 Q245 144 285 143 Q324 142 352 172 Q380 202 396 261 Z " />
<glyph glyph-name="oslash" unicode="&#xf8;" horiz-adv-x="639" d="M251 -9 Q206 -8 169.5 3 Q133 14 106 34 L45 -20 L-1 30 L60 85 Q35 124 31 178.5 Q27 233 45 297 Q79 420 168.5 488 Q258 556 385 554 Q431 553 468.5 542 Q506 531 533 510 L594 565 L641 515 L579 459 Q601 420 605 365.5 Q609 311 593 246 Q562 125 471.5 57 Q381 -11 251 -9 Z M243 283 Q240 272 237.5 261.5 Q235 251 234 241 L395 386 Q388 394 378 398 Q368 402 354 402 Q315 403 287 372.5 Q259 342 243 283 Z M284 143 Q323 142 351 172 Q379 202 395 261 Q398 272 400.5 282.5 Q403 293 404 302 L244 159 Q251 151 261 147 Q271 143 284 143 Z " />
<glyph glyph-name="oslashacute" unicode="&#x1ff;" horiz-adv-x="639" d="M674 803 L400 615 L330 707 L561 924 L674 803 Z M251 -9 Q206 -8 169.5 3 Q133 14 106 34 L45 -20 L-1 30 L60 85 Q35 124 31 178.5 Q27 233 45 297 Q79 420 168.5 488 Q258 556 385 554 Q431 553 468.5 542 Q506 531 533 510 L594 565 L641 515 L579 459 Q601 420 605 365.5 Q609 311 593 246 Q562 125 471.5 57 Q381 -11 251 -9 Z M243 283 Q240 272 237.5 261.5 Q235 251 234 241 L395 386 Q388 394 378 398 Q368 402 354 402 Q315 403 287 372.5 Q259 342 243 283 Z M284 143 Q323 142 351 172 Q379 202 395 261 Q398 272 400.5 282.5 Q403 293 404 302 L244 159 Q251 151 261 147 Q271 143 284 143 Z " />
<glyph glyph-name="oe" unicode="&#x153;" horiz-adv-x="955" d="M825 21 Q775 5 727 -3 Q679 -11 628 -11 Q575 -11 533 5 Q491 21 463 50 Q421 20 367.5 5 Q314 -10 252 -9 Q123 -7 65.5 78 Q8 163 46 297 Q80 420 169.5 488 Q259 556 386 554 Q438 553 478.5 539 Q519 525 547 499 Q588 528 639 543 Q690 558 746 556 Q889 552 928 456.5 Q967 361 887 223 L587 223 Q587 221 586.5 220 Q586 219 585 217 Q583 177 608 158.5 Q633 140 690 140 Q723 140 758 145.5 Q793 151 865 172 L825 21 Z M776 359 Q786 394 771.5 413.5 Q757 433 722 433 Q679 433 651.5 409 Q624 385 610 335 L768 335 Q769 337 771 341.5 Q773 346 776 359 Z M396 261 Q415 333 405 367 Q395 401 355 402 Q316 403 288 372.5 Q260 342 244 283 Q225 211 235 177.5 Q245 144 285 143 Q324 142 352 172 Q380 202 396 261 Z " />
<glyph glyph-name="p" unicode="p" horiz-adv-x="666" d="M211 15 L147 -224 L-53 -224 L153 545 L353 545 L342 505 L345 503 Q378 531 416.5 544.5 Q455 558 495 556 Q578 552 616 469.5 Q654 387 625 267 Q596 143 516.5 66 Q437 -11 334 -11 Q301 -11 270.5 -3.5 Q240 4 217 18 L211 15 Z M373 404 Q354 404 337.5 396.5 Q321 389 307 375 L249 157 Q258 150 271 146.5 Q284 143 299 143 Q343 143 376.5 175 Q410 207 423 260 Q439 328 426.5 366 Q414 404 373 404 Z " />
<glyph glyph-name="thorn" unicode="&#xfe;" horiz-adv-x="666" d="M334 -11 Q301 -11 270.5 -3.5 Q240 4 217 18 L211 15 L147 -224 L-53 -224 L219 791 L419 791 L342 505 L345 503 Q378 531 416.5 544.5 Q455 558 495 556 Q578 552 616 469.5 Q654 387 625 267 Q596 143 516.5 66 Q437 -11 334 -11 Z M373 404 Q354 404 337.5 396.5 Q321 389 307 375 L249 157 Q258 150 271 146.5 Q284 143 299 143 Q343 143 376.5 175 Q410 207 423 260 Q439 328 426.5 366 Q414 404 373 404 Z " />
<glyph glyph-name="q" unicode="q" horiz-adv-x="666" d="M323 43 Q294 17 255 2.5 Q216 -12 176 -11 Q90 -8 54 79 Q18 166 49 295 Q78 415 156.5 485.5 Q235 556 345 556 Q379 556 410.5 547 Q442 538 467 521 L663 555 L454 -224 L254 -224 L325 41 L323 43 Z M418 388 Q410 395 396.5 398.5 Q383 402 368 402 Q323 402 291 371 Q259 340 245 285 Q227 218 239.5 179.5 Q252 141 293 141 Q313 141 329.5 148.5 Q346 156 360 170 L418 388 Z " />
<glyph glyph-name="r" unicode="r" horiz-adv-x="491" d="M285 292 L207 0 L7 0 L153 545 L353 545 L336 480 L339 477 Q387 520 425.5 538 Q464 556 502 556 Q512 556 523 555 Q534 554 546 551 L491 346 Q473 349 465.5 349.5 Q458 350 452 350 Q394 350 355 336.5 Q316 323 285 292 Z " />
<glyph glyph-name="racute" unicode="&#x155;" horiz-adv-x="491" d="M650 803 L376 615 L306 707 L537 924 L650 803 Z M285 292 L207 0 L7 0 L153 545 L353 545 L336 480 L339 477 Q387 520 425.5 538 Q464 556 502 556 Q512 556 523 555 Q534 554 546 551 L491 346 Q473 349 465.5 349.5 Q458 350 452 350 Q394 350 355 336.5 Q316 323 285 292 Z " />
<glyph glyph-name="rcommaaccent" unicode="&#x157;" horiz-adv-x="491" d="M285 292 L207 0 L7 0 L153 545 L353 545 L336 480 L339 477 Q387 520 425.5 538 Q464 556 502 556 Q512 556 523 555 Q534 554 546 551 L491 346 Q473 349 465.5 349.5 Q458 350 452 350 Q394 350 355 336.5 Q316 323 285 292 Z M212 -164 L-30 -321 L-93 -236 L105 -50 L212 -164 Z " />
<glyph glyph-name="rcaron" unicode="&#x159;" horiz-adv-x="491" d="M396 760 L555 896 L630 806 L432 614 L297 614 L199 806 L310 896 L396 760 Z M285 292 L207 0 L7 0 L153 545 L353 545 L336 480 L339 477 Q387 520 425.5 538 Q464 556 502 556 Q512 556 523 555 Q534 554 546 551 L491 346 Q473 349 465.5 349.5 Q458 350 452 350 Q394 350 355 336.5 Q316 323 285 292 Z " />
<glyph glyph-name="s" unicode="s" horiz-adv-x="534" d="M451 148 Q434 74 363.5 31 Q293 -12 190 -12 Q131 -12 81 -3.5 Q31 5 -6 21 L36 181 Q69 160 113.5 146.5 Q158 133 198 133 Q228 133 244 139.5 Q260 146 264 159 Q268 174 258 185.5 Q248 197 206 217 Q161 239 140 255 Q119 271 106 291 Q91 315 87.5 345.5 Q84 376 92 414 Q107 481 175 518 Q243 555 352 555 Q403 555 445 549 Q487 543 527 530 L485 375 Q463 390 419 400.5 Q375 411 333 411 Q306 411 293 405.5 Q280 400 276 386 Q272 373 282.5 362 Q293 351 334 332 Q379 312 400 297 Q421 282 434 265 Q451 242 455 213 Q459 184 451 148 Z " />
<glyph glyph-name="sacute" unicode="&#x15b;" horiz-adv-x="534" d="M626 803 L352 615 L282 707 L513 924 L626 803 Z M451 148 Q434 74 363.5 31 Q293 -12 190 -12 Q131 -12 81 -3.5 Q31 5 -6 21 L36 181 Q69 160 113.5 146.5 Q158 133 198 133 Q228 133 244 139.5 Q260 146 264 159 Q268 174 258 185.5 Q248 197 206 217 Q161 239 140 255 Q119 271 106 291 Q91 315 87.5 345.5 Q84 376 92 414 Q107 481 175 518 Q243 555 352 555 Q403 555 445 549 Q487 543 527 530 L485 375 Q463 390 419 400.5 Q375 411 333 411 Q306 411 293 405.5 Q280 400 276 386 Q272 373 282.5 362 Q293 351 334 332 Q379 312 400 297 Q421 282 434 265 Q451 242 455 213 Q459 184 451 148 Z " />
<glyph glyph-name="scircumflex" unicode="&#x15d;" horiz-adv-x="534" d="M407 736 L245 609 L168 698 L366 890 L501 890 L599 698 L490 609 L407 736 Z M451 148 Q434 74 363.5 31 Q293 -12 190 -12 Q131 -12 81 -3.5 Q31 5 -6 21 L36 181 Q69 160 113.5 146.5 Q158 133 198 133 Q228 133 244 139.5 Q260 146 264 159 Q268 174 258 185.5 Q248 197 206 217 Q161 239 140 255 Q119 271 106 291 Q91 315 87.5 345.5 Q84 376 92 414 Q107 481 175 518 Q243 555 352 555 Q403 555 445 549 Q487 543 527 530 L485 375 Q463 390 419 400.5 Q375 411 333 411 Q306 411 293 405.5 Q280 400 276 386 Q272 373 282.5 362 Q293 351 334 332 Q379 312 400 297 Q421 282 434 265 Q451 242 455 213 Q459 184 451 148 Z " />
<glyph glyph-name="scedilla" unicode="&#x15f;" horiz-adv-x="534" d="M313 -107 Q298 -164 244.5 -200 Q191 -236 126 -236 Q92 -236 61 -230.5 Q30 -225 5 -215 L39 -91 Q56 -100 69.5 -104 Q83 -108 97 -108 Q118 -108 132.5 -96 Q147 -84 153 -63 Q157 -49 155.5 -37 Q154 -25 145 -11 Q101 -8 62.5 0 Q24 8 -6 21 L36 181 Q69 160 113.5 146.5 Q158 133 198 133 Q228 133 244 139.5 Q260 146 264 159 Q268 174 258 185.5 Q248 197 206 217 Q161 239 140 255 Q119 271 106 291 Q91 315 87.5 345.5 Q84 376 92 414 Q107 481 175 518 Q243 555 352 555 Q403 555 445 549 Q487 543 527 530 L485 375 Q463 390 419 400.5 Q375 411 333 411 Q306 411 293 405.5 Q280 400 276 386 Q272 373 282.5 362 Q293 351 334 332 Q379 312 400 297 Q421 282 434 265 Q451 242 455 213 Q459 184 451 148 Q438 94 396 55.5 Q354 17 291 0 Q298 -7 301.5 -12.5 Q305 -18 308 -24 Q317 -42 318.5 -62.5 Q320 -83 313 -107 Z " />
<glyph glyph-name="scaron" unicode="&#x161;" horiz-adv-x="534" d="M390 760 L549 896 L624 806 L426 614 L291 614 L193 806 L304 896 L390 760 Z M451 148 Q434 74 363.5 31 Q293 -12 190 -12 Q131 -12 81 -3.5 Q31 5 -6 21 L36 181 Q69 160 113.5 146.5 Q158 133 198 133 Q228 133 244 139.5 Q260 146 264 159 Q268 174 258 185.5 Q248 197 206 217 Q161 239 140 255 Q119 271 106 291 Q91 315 87.5 345.5 Q84 376 92 414 Q107 481 175 518 Q243 555 352 555 Q403 555 445 549 Q487 543 527 530 L485 375 Q463 390 419 400.5 Q375 411 333 411 Q306 411 293 405.5 Q280 400 276 386 Q272 373 282.5 362 Q293 351 334 332 Q379 312 400 297 Q421 282 434 265 Q451 242 455 213 Q459 184 451 148 Z " />
<glyph glyph-name="scommaaccent" unicode="&#x219;" horiz-adv-x="534" d="M451 148 Q434 74 363.5 31 Q293 -12 190 -12 Q131 -12 81 -3.5 Q31 5 -6 21 L36 181 Q69 160 113.5 146.5 Q158 133 198 133 Q228 133 244 139.5 Q260 146 264 159 Q268 174 258 185.5 Q248 197 206 217 Q161 239 140 255 Q119 271 106 291 Q91 315 87.5 345.5 Q84 376 92 414 Q107 481 175 518 Q243 555 352 555 Q403 555 445 549 Q487 543 527 530 L485 375 Q463 390 419 400.5 Q375 411 333 411 Q306 411 293 405.5 Q280 400 276 386 Q272 373 282.5 362 Q293 351 334 332 Q379 312 400 297 Q421 282 434 265 Q451 242 455 213 Q459 184 451 148 Z M277 -164 L35 -321 L-28 -236 L170 -50 L277 -164 Z " />
<glyph glyph-name="longs" unicode="&#x17f;" horiz-adv-x="479" d="M385 545 L239 0 L39 0 L145 395 L63 395 L103 545 L186 545 Q227 681 303.5 741 Q380 801 509 801 Q542 801 576.5 796 Q611 791 645 781 L602 619 Q573 629 547 633 Q521 637 491 637 Q447 637 423 616.5 Q399 596 385 545 Z " />
<glyph glyph-name="germandbls" unicode="&#xdf;" horiz-adv-x="864" d="M39 0 L145 395 L63 395 L103 545 L186 545 Q229 676 326 738.5 Q423 801 581 801 Q709 801 774 741 Q839 681 815 595 Q802 549 772 514 Q742 479 671 440 Q633 419 620.5 407.5 Q608 396 605 384 Q601 370 612 359 Q623 348 666 330 Q712 311 733 297 Q754 283 766 266 Q783 244 786.5 215 Q790 186 781 150 Q761 73 690.5 30.5 Q620 -12 513 -12 Q459 -12 409.5 -3.5 Q360 5 324 21 L366 181 Q399 160 443.5 146.5 Q488 133 528 133 Q559 133 575 140 Q591 147 594 162 Q598 177 587.5 188 Q577 199 532 216 Q486 234 465 247.5 Q444 261 431 277 Q415 299 411 327.5 Q407 356 417 392 Q425 423 449.5 449.5 Q474 476 536 513 Q579 539 593.5 553 Q608 567 612 581 Q618 606 594.5 621.5 Q571 637 526 637 Q463 637 426.5 600 Q390 563 367 476 L239 0 L39 0 Z " />
<glyph glyph-name="t" unicode="t" horiz-adv-x="500" d="M400 13 Q364 2 327 -4 Q290 -10 251 -10 Q154 -10 110 52.5 Q66 115 93 215 L141 395 L53 395 L93 545 L181 545 L220 689 L420 689 L381 545 L533 545 L493 395 L341 395 L305 259 Q292 211 303.5 186.5 Q315 162 351 162 Q368 162 391.5 165.5 Q415 169 444 176 L400 13 Z " />
<glyph glyph-name="tcommaaccent" unicode="&#x21b;" horiz-adv-x="500" d="M400 13 Q364 2 327 -4 Q290 -10 251 -10 Q154 -10 110 52.5 Q66 115 93 215 L141 395 L53 395 L93 545 L181 545 L220 689 L420 689 L381 545 L533 545 L493 395 L341 395 L305 259 Q292 211 303.5 186.5 Q315 162 351 162 Q368 162 391.5 165.5 Q415 169 444 176 L400 13 Z M303 -164 L61 -321 L-2 -236 L196 -50 L303 -164 Z " />
<glyph glyph-name="tcaron" unicode="&#x165;" horiz-adv-x="500" d="M740 863 L554 594 L438 633 L566 905 L740 863 Z M400 13 Q364 2 327 -4 Q290 -10 251 -10 Q154 -10 110 52.5 Q66 115 93 215 L141 395 L53 395 L93 545 L181 545 L220 689 L420 689 L381 545 L533 545 L493 395 L341 395 L305 259 Q292 211 303.5 186.5 Q315 162 351 162 Q368 162 391.5 165.5 Q415 169 444 176 L400 13 Z " />
<glyph glyph-name="tbar" unicode="&#x167;" horiz-adv-x="500" d="M400 13 Q364 2 327 -4 Q290 -10 251 -10 Q154 -10 110 52.5 Q66 115 93 215 L96 225 L17 225 L43 321 L121 321 L141 395 L53 395 L93 545 L181 545 L220 689 L420 689 L381 545 L533 545 L493 395 L341 395 L321 321 L462 321 L436 225 L299 225 Q296 194 309 178 Q322 162 351 162 Q368 162 391.5 165.5 Q415 169 444 176 L400 13 Z " />
<glyph glyph-name="u" unicode="u" horiz-adv-x="686" d="M341 44 Q301 16 260.5 2 Q220 -12 179 -12 Q101 -12 67.5 45 Q34 102 59 196 L153 544 L353 544 L267 223 Q256 181 262 162 Q268 143 292 143 Q313 143 337 151.5 Q361 160 380 174 L479 544 L679 544 L533 0 L333 0 L344 41 L341 44 Z " />
<glyph glyph-name="ugrave" unicode="&#xf9;" horiz-adv-x="686" d="M365 925 L544 700 L443 612 L223 801 L365 925 Z M341 44 Q301 16 260.5 2 Q220 -12 179 -12 Q101 -12 67.5 45 Q34 102 59 196 L153 544 L353 544 L267 223 Q256 181 262 162 Q268 143 292 143 Q313 143 337 151.5 Q361 160 380 174 L479 544 L679 544 L533 0 L333 0 L344 41 L341 44 Z " />
<glyph glyph-name="uacute" unicode="&#xfa;" horiz-adv-x="686" d="M706 803 L432 615 L362 707 L593 924 L706 803 Z M341 44 Q301 16 260.5 2 Q220 -12 179 -12 Q101 -12 67.5 45 Q34 102 59 196 L153 544 L353 544 L267 223 Q256 181 262 162 Q268 143 292 143 Q313 143 337 151.5 Q361 160 380 174 L479 544 L679 544 L533 0 L333 0 L344 41 L341 44 Z " />
<glyph glyph-name="ucircumflex" unicode="&#xfb;" horiz-adv-x="686" d="M481 736 L319 609 L242 698 L440 890 L575 890 L673 698 L564 609 L481 736 Z M341 44 Q301 16 260.5 2 Q220 -12 179 -12 Q101 -12 67.5 45 Q34 102 59 196 L153 544 L353 544 L267 223 Q256 181 262 162 Q268 143 292 143 Q313 143 337 151.5 Q361 160 380 174 L479 544 L679 544 L533 0 L333 0 L344 41 L341 44 Z " />
<glyph glyph-name="udieresis" unicode="&#xfc;" horiz-adv-x="686" d="M379 874 Q423 874 444 845.5 Q465 817 453 774 Q442 732 405.5 703.5 Q369 675 326 675 Q282 675 260.5 703.5 Q239 732 250 774 Q262 817 298.5 845.5 Q335 874 379 874 Z M629 873 Q672 873 694 844.5 Q716 816 704 774 Q693 732 656 703.5 Q619 675 576 675 Q532 675 510.5 703.5 Q489 732 500 774 Q512 816 548.5 844.5 Q585 873 629 873 Z M341 44 Q301 16 260.5 2 Q220 -12 179 -12 Q101 -12 67.5 45 Q34 102 59 196 L153 544 L353 544 L267 223 Q256 181 262 162 Q268 143 292 143 Q313 143 337 151.5 Q361 160 380 174 L479 544 L679 544 L533 0 L333 0 L344 41 L341 44 Z " />
<glyph glyph-name="utilde" unicode="&#x169;" horiz-adv-x="686" d="M742 879 Q709 755 661 697.5 Q613 640 545 643 Q523 644 505.5 654 Q488 664 467 693 Q451 713 442 719 Q433 725 423 725 Q407 726 393 705.5 Q379 685 368 645 L241 645 Q272 765 322.5 825 Q373 885 438 880 Q464 878 484 867 Q504 856 527 825 Q541 807 549 801.5 Q557 796 566 796 Q579 795 591 815 Q603 835 615 879 L742 879 Z M341 44 Q301 16 260.5 2 Q220 -12 179 -12 Q101 -12 67.5 45 Q34 102 59 196 L153 544 L353 544 L267 223 Q256 181 262 162 Q268 143 292 143 Q313 143 337 151.5 Q361 160 380 174 L479 544 L679 544 L533 0 L333 0 L344 41 L341 44 Z " />
<glyph glyph-name="umacron" unicode="&#x16b;" horiz-adv-x="686" d="M696 840 L661 708 L259 708 L294 840 L696 840 Z M341 44 Q301 16 260.5 2 Q220 -12 179 -12 Q101 -12 67.5 45 Q34 102 59 196 L153 544 L353 544 L267 223 Q256 181 262 162 Q268 143 292 143 Q313 143 337 151.5 Q361 160 380 174 L479 544 L679 544 L533 0 L333 0 L344 41 L341 44 Z " />
<glyph glyph-name="ubreve" unicode="&#x16d;" horiz-adv-x="686" d="M703 860 Q674 747 607.5 685.5 Q541 624 447 626 Q355 628 313 695.5 Q271 763 297 860 L423 860 Q413 816 426.5 790 Q440 764 474 764 Q509 764 536.5 790 Q564 816 577 860 L703 860 Z M341 44 Q301 16 260.5 2 Q220 -12 179 -12 Q101 -12 67.5 45 Q34 102 59 196 L153 544 L353 544 L267 223 Q256 181 262 162 Q268 143 292 143 Q313 143 337 151.5 Q361 160 380 174 L479 544 L679 544 L533 0 L333 0 L344 41 L341 44 Z " />
<glyph glyph-name="uring" unicode="&#x16f;" horiz-adv-x="686" d="M506 928 Q574 926 610 877 Q646 828 628 760 Q612 697 563 659 Q514 621 448 621 Q378 621 343 670 Q308 719 327 789 Q343 850 393.5 889.5 Q444 929 506 928 Z M488 823 Q466 823 450 810 Q434 797 428 775 Q422 752 432.5 738.5 Q443 725 467 725 Q487 725 504 738.5 Q521 752 526 773 Q532 796 522 809.5 Q512 823 488 823 Z M341 44 Q301 16 260.5 2 Q220 -12 179 -12 Q101 -12 67.5 45 Q34 102 59 196 L153 544 L353 544 L267 223 Q256 181 262 162 Q268 143 292 143 Q313 143 337 151.5 Q361 160 380 174 L479 544 L679 544 L533 0 L333 0 L344 41 L341 44 Z " />
<glyph glyph-name="uhungarumlaut" unicode="&#x171;" horiz-adv-x="686" d="M575 855 L341 618 L244 684 L426 937 L575 855 Z M817 797 L548 600 L474 688 L697 912 L817 797 Z M341 44 Q301 16 260.5 2 Q220 -12 179 -12 Q101 -12 67.5 45 Q34 102 59 196 L153 544 L353 544 L267 223 Q256 181 262 162 Q268 143 292 143 Q313 143 337 151.5 Q361 160 380 174 L479 544 L679 544 L533 0 L333 0 L344 41 L341 44 Z " />
<glyph glyph-name="uogonek" unicode="&#x173;" horiz-adv-x="686" d="M475 -215 Q446 -225 412 -230.5 Q378 -236 344 -236 Q278 -236 244 -200 Q210 -164 225 -107 Q234 -73 256 -46 Q278 -19 312 0 Q318 3 324 6 Q330 9 336 12 L344 41 L341 44 Q301 16 260.5 2 Q220 -12 179 -12 Q101 -12 67.5 45 Q34 102 59 196 L153 544 L353 544 L267 223 Q256 181 262 162 Q268 143 292 143 Q313 143 337 151.5 Q361 160 380 174 L479 544 L679 544 L533 0 Q483 -9 447 -32 Q411 -55 405 -79 Q401 -93 409 -100.5 Q417 -108 437 -108 Q453 -108 470.5 -104 Q488 -100 509 -91 L475 -215 Z " />
<glyph glyph-name="v" unicode="v" horiz-adv-x="593" d="M666 545 L313 0 L133 0 L73 545 L279 545 L274 299 Q274 263 272 237.5 Q270 212 267 198 L270 198 Q275 212 287 237.5 Q299 263 317 299 L443 545 L666 545 Z " />
<glyph glyph-name="w" unicode="w" horiz-adv-x="856" d="M374 144 L298 0 L129 0 L73 545 L272 545 L268 317 Q267 287 266 265.5 Q265 244 263 232 L265 232 Q268 245 277 266 Q286 287 301 317 L412 545 L585 545 L578 317 Q577 287 576.5 265.5 Q576 244 576 232 L578 232 Q580 245 588 266 Q596 287 611 317 L727 545 L929 545 L603 0 L434 0 L431 144 Q430 183 430.5 212 Q431 241 433 261 L429 261 Q422 241 408 212 Q394 183 374 144 Z " />
<glyph glyph-name="wcircumflex" unicode="&#x175;" horiz-adv-x="856" d="M566 736 L404 609 L327 698 L525 890 L660 890 L758 698 L649 609 L566 736 Z M374 144 L298 0 L129 0 L73 545 L272 545 L268 317 Q267 287 266 265.5 Q265 244 263 232 L265 232 Q268 245 277 266 Q286 287 301 317 L412 545 L585 545 L578 317 Q577 287 576.5 265.5 Q576 244 576 232 L578 232 Q580 245 588 266 Q596 287 611 317 L727 545 L929 545 L603 0 L434 0 L431 144 Q430 183 430.5 212 Q431 241 433 261 L429 261 Q422 241 408 212 Q394 183 374 144 Z " />
<glyph glyph-name="wgrave" unicode="&#x1e81;" horiz-adv-x="856" d="M445 925 L624 700 L523 612 L303 801 L445 925 Z M374 144 L298 0 L129 0 L73 545 L272 545 L268 317 Q267 287 266 265.5 Q265 244 263 232 L265 232 Q268 245 277 266 Q286 287 301 317 L412 545 L585 545 L578 317 Q577 287 576.5 265.5 Q576 244 576 232 L578 232 Q580 245 588 266 Q596 287 611 317 L727 545 L929 545 L603 0 L434 0 L431 144 Q430 183 430.5 212 Q431 241 433 261 L429 261 Q422 241 408 212 Q394 183 374 144 Z " />
<glyph glyph-name="wacute" unicode="&#x1e83;" horiz-adv-x="856" d="M783 803 L509 615 L439 707 L670 924 L783 803 Z M374 144 L298 0 L129 0 L73 545 L272 545 L268 317 Q267 287 266 265.5 Q265 244 263 232 L265 232 Q268 245 277 266 Q286 287 301 317 L412 545 L585 545 L578 317 Q577 287 576.5 265.5 Q576 244 576 232 L578 232 Q580 245 588 266 Q596 287 611 317 L727 545 L929 545 L603 0 L434 0 L431 144 Q430 183 430.5 212 Q431 241 433 261 L429 261 Q422 241 408 212 Q394 183 374 144 Z " />
<glyph glyph-name="wdieresis" unicode="&#x1e85;" horiz-adv-x="856" d="M464 874 Q508 874 529 845.5 Q550 817 538 774 Q527 732 490.5 703.5 Q454 675 411 675 Q367 675 345.5 703.5 Q324 732 335 774 Q347 817 383.5 845.5 Q420 874 464 874 Z M714 873 Q757 873 779 844.5 Q801 816 789 774 Q778 732 741 703.5 Q704 675 661 675 Q617 675 595.5 703.5 Q574 732 585 774 Q597 816 633.5 844.5 Q670 873 714 873 Z M374 144 L298 0 L129 0 L73 545 L272 545 L268 317 Q267 287 266 265.5 Q265 244 263 232 L265 232 Q268 245 277 266 Q286 287 301 317 L412 545 L585 545 L578 317 Q577 287 576.5 265.5 Q576 244 576 232 L578 232 Q580 245 588 266 Q596 287 611 317 L727 545 L929 545 L603 0 L434 0 L431 144 Q430 183 430.5 212 Q431 241 433 261 L429 261 Q422 241 408 212 Q394 183 374 144 Z " />
<glyph glyph-name="x" unicode="x" horiz-adv-x="619" d="M272 136 L157 0 L-63 0 L205 292 L99 545 L310 545 L353 419 L356 419 L452 545 L672 545 L416 265 L529 0 L319 0 L276 136 L272 136 Z " />
<glyph glyph-name="y" unicode="y" horiz-adv-x="613" d="M323 0 Q229 -140 155 -187 Q81 -234 -34 -234 Q-49 -234 -66.5 -233.5 Q-84 -233 -102 -231 L-55 -57 Q-37 -58 -28 -58.5 Q-19 -59 -12 -59 Q42 -59 81.5 -42 Q121 -25 143 7 L73 545 L283 545 L288 299 Q289 267 288.5 244 Q288 221 286 208 L289 208 Q292 221 302.5 244 Q313 267 331 299 L467 545 L686 545 L323 0 Z " />
<glyph glyph-name="yacute" unicode="&#xfd;" horiz-adv-x="613" d="M675 803 L401 615 L331 707 L562 924 L675 803 Z M323 0 Q229 -140 155 -187 Q81 -234 -34 -234 Q-49 -234 -66.5 -233.5 Q-84 -233 -102 -231 L-55 -57 Q-37 -58 -28 -58.5 Q-19 -59 -12 -59 Q42 -59 81.5 -42 Q121 -25 143 7 L73 545 L283 545 L288 299 Q289 267 288.5 244 Q288 221 286 208 L289 208 Q292 221 302.5 244 Q313 267 331 299 L467 545 L686 545 L323 0 Z " />
<glyph glyph-name="ydieresis" unicode="&#xff;" horiz-adv-x="613" d="M342 874 Q386 874 407 845.5 Q428 817 416 774 Q405 732 368.5 703.5 Q332 675 289 675 Q245 675 223.5 703.5 Q202 732 213 774 Q225 817 261.5 845.5 Q298 874 342 874 Z M592 873 Q635 873 657 844.5 Q679 816 667 774 Q656 732 619 703.5 Q582 675 539 675 Q495 675 473.5 703.5 Q452 732 463 774 Q475 816 511.5 844.5 Q548 873 592 873 Z M323 0 Q229 -140 155 -187 Q81 -234 -34 -234 Q-49 -234 -66.5 -233.5 Q-84 -233 -102 -231 L-55 -57 Q-37 -58 -28 -58.5 Q-19 -59 -12 -59 Q42 -59 81.5 -42 Q121 -25 143 7 L73 545 L283 545 L288 299 Q289 267 288.5 244 Q288 221 286 208 L289 208 Q292 221 302.5 244 Q313 267 331 299 L467 545 L686 545 L323 0 Z " />
<glyph glyph-name="ycircumflex" unicode="&#x177;" horiz-adv-x="613" d="M445 736 L283 609 L206 698 L404 890 L539 890 L637 698 L528 609 L445 736 Z M323 0 Q229 -140 155 -187 Q81 -234 -34 -234 Q-49 -234 -66.5 -233.5 Q-84 -233 -102 -231 L-55 -57 Q-37 -58 -28 -58.5 Q-19 -59 -12 -59 Q42 -59 81.5 -42 Q121 -25 143 7 L73 545 L283 545 L288 299 Q289 267 288.5 244 Q288 221 286 208 L289 208 Q292 221 302.5 244 Q313 267 331 299 L467 545 L686 545 L323 0 Z " />
<glyph glyph-name="ygrave" unicode="&#x1ef3;" horiz-adv-x="613" d="M326 925 L505 700 L404 612 L184 801 L326 925 Z M323 0 Q229 -140 155 -187 Q81 -234 -34 -234 Q-49 -234 -66.5 -233.5 Q-84 -233 -102 -231 L-55 -57 Q-37 -58 -28 -58.5 Q-19 -59 -12 -59 Q42 -59 81.5 -42 Q121 -25 143 7 L73 545 L283 545 L288 299 Q289 267 288.5 244 Q288 221 286 208 L289 208 Q292 221 302.5 244 Q313 267 331 299 L467 545 L686 545 L323 0 Z " />
<glyph glyph-name="z" unicode="z" horiz-adv-x="554" d="M484 162 L441 0 L-23 0 L11 128 L293 379 L292 383 L90 383 L133 545 L576 545 L542 417 L258 165 L259 162 L484 162 Z " />
<glyph glyph-name="zacute" unicode="&#x17a;" horiz-adv-x="564" d="M622 803 L348 615 L278 707 L509 924 L622 803 Z M484 162 L441 0 L-23 0 L11 128 L293 379 L292 383 L90 383 L133 545 L576 545 L542 417 L258 165 L259 162 L484 162 Z " />
<glyph glyph-name="zdotaccent" unicode="&#x17c;" horiz-adv-x="564" d="M528 744 Q515 694 471.5 660.5 Q428 627 378 627 Q326 627 300.5 660.5 Q275 694 288 744 Q302 794 345.5 827 Q389 860 440 860 Q491 860 516.5 827 Q542 794 528 744 Z M484 162 L441 0 L-23 0 L11 128 L293 379 L292 383 L90 383 L133 545 L576 545 L542 417 L258 165 L259 162 L484 162 Z " />
<glyph glyph-name="zcaron" unicode="&#x17e;" horiz-adv-x="564" d="M407 760 L566 896 L641 806 L443 614 L308 614 L210 806 L321 896 L407 760 Z M484 162 L441 0 L-23 0 L11 128 L293 379 L292 383 L90 383 L133 545 L576 545 L542 417 L258 165 L259 162 L484 162 Z " />
<glyph glyph-name="ordfeminine" unicode="&#xaa;" horiz-adv-x="480" d="M339 480 Q307 456 282 447 Q257 438 228 438 Q180 438 157 472 Q134 506 148 555 Q163 609 210 633 Q257 657 345 657 L372 657 Q373 660 374 662.5 Q375 665 376 668 Q380 685 367.5 692.5 Q355 700 323 700 Q295 700 270 695.5 Q245 691 207 679 L236 785 Q268 794 302 798 Q336 802 373 802 Q461 802 495 757.5 Q529 713 506 626 L457 445 L346 445 L341 479 L339 480 Z M340 583 Q316 583 303 578 Q290 573 284 558 Q279 547 285.5 537.5 Q292 528 304 528 Q319 528 334 534 Q349 540 356 549 L365 583 L340 583 Z M457 392 L425 274 L65 274 L97 392 L457 392 Z " />
<glyph glyph-name="ordmasculine" unicode="&#xba;" horiz-adv-x="505" d="M541 607 Q519 524 457 480 Q395 436 301 437 Q217 439 177.5 494 Q138 549 161 634 Q182 715 243 757 Q304 799 398 798 Q481 796 522 742.5 Q563 689 541 607 Z M399 616 Q411 658 404 678.5 Q397 699 372 700 Q347 700 329.5 680 Q312 660 300 618 Q289 575 295.5 555 Q302 535 327 534 Q352 534 370 554.5 Q388 575 399 616 Z M469 392 L437 274 L77 274 L109 392 L469 392 Z " />
<glyph glyph-name="litre" unicode="&#x2113;" horiz-adv-x="523" d="M396 26 Q365 10 318.5 0 Q272 -10 230 -10 Q164 -10 123 30.5 Q82 71 72 141 L12 98 L-33 201 L81 277 L142 503 Q185 661 255 731.5 Q325 802 443 802 Q533 802 572.5 739 Q612 676 584 577 Q562 500 484.5 419.5 Q407 339 279 262 Q268 208 281.5 184 Q295 160 335 160 Q354 160 378 166.5 Q402 173 439 189 L396 26 Z M353 546 L319 418 Q360 452 385.5 492.5 Q411 533 425 587 Q436 626 433.5 643.5 Q431 661 415 661 Q397 661 384 636 Q371 611 353 546 Z " />
<glyph glyph-name="ampersand" unicode="&#x26;" horiz-adv-x="855" d="M348 554 Q336 512 360 489 Q384 466 441 466 L868 466 L824 304 L692 304 L679 255 Q665 201 674 181.5 Q683 162 717 162 Q730 162 749.5 165 Q769 168 800 176 L756 13 Q720 1 685.5 -4.5 Q651 -10 617 -10 Q559 -10 520 15 Q481 40 467 87 Q448 70 426 55 Q404 40 378 27 Q342 9 305.5 -0.5 Q269 -10 233 -10 Q126 -10 73 65.5 Q20 141 54 245 Q70 295 116.5 335.5 Q163 376 217 387 L218 391 Q176 415 159 470 Q142 525 159 592 Q181 676 263 725.5 Q345 775 471 775 Q534 775 592.5 762.5 Q651 750 689 728 L640 544 Q623 558 601 570.5 Q579 583 552 593 Q527 602 502 606.5 Q477 611 452 611 Q409 611 382.5 596.5 Q356 582 348 554 Z M253 242 Q241 201 261 177.5 Q281 154 328 154 Q372 154 408 169 Q444 184 468 213 L492 304 L406 304 Q328 304 295 289.5 Q262 275 253 242 Z " />
<glyph glyph-name="i.superior" unicode="&#x2071;" horiz-adv-x="311" d="M382 749 Q372 712 336 687.5 Q300 663 257 663 Q211 663 188 687.5 Q165 712 175 749 Q185 786 221 810 Q257 834 302 834 Q346 834 369 810 Q392 786 382 749 Z M341 623 L247 273 L64 273 L158 623 L341 623 Z " />
<glyph glyph-name="n.superior" unicode="&#x207f;" horiz-adv-x="532" d="M310 508 L247 273 L64 273 L158 623 L341 623 L335 602 L338 600 Q362 615 387 622.5 Q412 630 437 630 Q494 630 518.5 591 Q543 552 526 488 L468 273 L285 273 L341 482 Q346 499 344.5 507 Q343 515 335 515 Q331 515 324.5 513 Q318 511 310 508 Z " />
<glyph glyph-name="zero" unicode="0" horiz-adv-x="760" d="M725 359 Q682 177 578 83 Q474 -11 317 -8 Q167 -6 107.5 108 Q48 222 96 407 Q143 590 245.5 682 Q348 774 502 771 Q654 769 712.5 661 Q771 553 725 359 Z M521 362 Q555 486 542.5 543.5 Q530 601 470 602 Q413 603 370 553 Q327 503 300 404 Q265 277 278 219.5 Q291 162 351 161 Q408 160 451 210.5 Q494 261 521 362 Z " />
<glyph glyph-name="one" unicode="1" horiz-adv-x="564" d="M505 164 L461 0 L-23 0 L21 164 L163 164 L258 517 L116 517 L155 663 Q174 663 191.5 665.5 Q209 668 225 673 Q242 678 257 686.5 Q272 695 285 706 Q300 719 309.5 733.5 Q319 748 323 763 L523 763 L363 164 L505 164 Z " />
<glyph glyph-name="two" unicode="2" horiz-adv-x="621" d="M532 164 L488 0 L-23 0 L22 168 Q267 352 336.5 417.5 Q406 483 419 531 Q430 572 412 591 Q394 610 345 610 Q293 610 241 596 Q189 582 138 555 L184 728 Q236 751 296 763 Q356 775 418 775 Q532 775 590 706 Q648 637 618 531 Q597 456 521.5 377 Q446 298 276 168 L278 164 L532 164 Z " />
<glyph glyph-name="three" unicode="3" horiz-adv-x="617" d="M206 -10 Q177 -10 150 -8.5 Q123 -7 97 -4 Q62 1 35.5 7 Q9 13 -8 20 L40 196 Q60 187 84 179.5 Q108 172 136 166 Q163 160 188 157 Q213 154 236 154 Q290 154 322 171.5 Q354 189 364 223 Q376 265 349.5 284.5 Q323 304 248 304 L157 304 L201 466 L292 466 Q354 466 390.5 485.5 Q427 505 437 543 Q447 578 429.5 594.5 Q412 611 368 611 Q341 611 312 606 Q283 601 252 591 Q221 581 194 569.5 Q167 558 144 544 L193 728 Q242 750 308 762.5 Q374 775 437 775 Q554 775 609.5 710.5 Q665 646 638 550 Q624 499 582.5 456.5 Q541 414 484 391 L483 387 Q528 367 550.5 315 Q573 263 559 202 Q537 101 444.5 45.5 Q352 -10 206 -10 Z " />
<glyph glyph-name="four" unicode="4" horiz-adv-x="708" d="M306 0 L350 163 L11 163 L51 315 L459 763 L710 763 L591 319 L670 319 L629 163 L550 163 L506 0 L306 0 Z M269 322 L269 319 L391 319 L437 460 Q446 489 456.5 518 Q467 547 479 576 L476 576 Q451 549 426.5 520 Q402 491 378 460 L269 322 Z " />
<glyph glyph-name="five" unicode="5" horiz-adv-x="643" d="M196 -11 Q170 -11 145.5 -9.5 Q121 -8 97 -5 Q66 -1 42 4.5 Q18 10 2 17 L48 192 Q68 184 91.5 177 Q115 170 142 165 Q169 159 193.5 156 Q218 153 239 153 Q293 153 330.5 175 Q368 197 378 233 Q396 300 340.5 321.5 Q285 343 100 333 L215 763 L684 763 L641 599 L372 599 L341 487 Q481 491 544.5 423.5 Q608 356 578 233 Q549 115 451 52 Q353 -11 196 -11 Z " />
<glyph glyph-name="six" unicode="6" horiz-adv-x="711" d="M642 213 Q612 111 523.5 52.5 Q435 -6 308 -3 Q161 0 105 113 Q49 226 98 417 Q145 598 259.5 690 Q374 782 552 782 Q601 782 646.5 775.5 Q692 769 720 757 L671 575 Q635 596 594.5 607 Q554 618 510 618 Q429 618 378 577 Q327 536 306 455 Q342 476 381 486.5 Q420 497 460 497 Q574 497 626.5 418.5 Q679 340 642 213 Z M449 246 Q459 294 441.5 322 Q424 350 384 350 Q355 350 325 340 Q295 330 271 312 Q253 244 270 204 Q287 164 337 161 Q379 159 410 182 Q441 205 449 246 Z " />
<glyph glyph-name="seven" unicode="7" horiz-adv-x="580" d="M641 611 L234 0 L-2 0 L414 597 L414 599 L108 599 L151 763 L681 763 L641 611 Z " />
<glyph glyph-name="eight" unicode="8" horiz-adv-x="724" d="M643 181 Q616 93 527.5 41.5 Q439 -10 311 -10 Q170 -10 100 60.5 Q30 131 60 236 Q74 285 117 329 Q160 373 224 405 Q186 448 174.5 490 Q163 532 174 581 Q193 670 275 721.5 Q357 773 480 773 Q602 773 664 711 Q726 649 705 555 Q695 510 658 470 Q621 430 565 405 Q624 366 644 308.5 Q664 251 643 181 Z M505 546 Q514 577 497.5 597 Q481 617 446 617 Q416 617 396 604 Q376 591 370 567 Q362 536 379 512 Q396 488 437 472 Q468 491 483.5 508.5 Q499 526 505 546 Z M448 214 Q455 250 430 277 Q405 304 334 332 Q302 313 280.5 287.5 Q259 262 251 234 Q240 195 265 170.5 Q290 146 342 146 Q385 146 413.5 164 Q442 182 448 214 Z " />
<glyph glyph-name="nine" unicode="9" horiz-adv-x="711" d="M131 562 Q161 664 249.5 722.5 Q338 781 465 778 Q612 775 668 662 Q724 549 675 358 Q628 177 513.5 85 Q399 -7 221 -7 Q172 -7 126.5 -0.5 Q81 6 53 18 L102 200 Q138 179 178.5 168 Q219 157 263 157 Q344 157 395 198 Q446 239 467 320 Q431 299 392 288.5 Q353 278 313 278 Q199 278 146.5 356.5 Q94 435 131 562 Z M324 529 Q314 481 331.5 453 Q349 425 389 425 Q418 425 448 435 Q478 445 502 463 Q520 531 503 571 Q486 611 436 614 Q394 616 363 593 Q332 570 324 529 Z " />
<glyph glyph-name="dollar" unicode="&#x24;" horiz-adv-x="644" d="M576 204 Q555 120 490 67 Q425 14 322 -3 L302 -78 L102 -78 L122 -6 Q82 -2 49 6 Q16 14 -16 27 L34 213 Q75 185 130.5 170 Q186 155 247 155 Q295 155 323 170 Q351 185 359 215 Q365 238 350 258 Q335 278 274 313 Q217 345 191 366.5 Q165 388 150 412 Q128 444 123 482.5 Q118 521 129 567 Q146 637 197 685.5 Q248 734 325 756 L356 870 L556 870 L529 770 Q578 766 616.5 755.5 Q655 745 683 729 L631 533 Q601 566 548 585.5 Q495 605 436 605 Q394 605 371 593.5 Q348 582 342 558 Q335 533 350.5 511.5 Q366 490 431 451 Q486 418 511.5 397.5 Q537 377 553 354 Q575 323 581 285.5 Q587 248 576 204 Z " />
<glyph glyph-name="cent" unicode="&#xa2;" horiz-adv-x="510" d="M406 138 Q383 128 360.5 120.5 Q338 113 316 108 L288 0 L88 0 L122 129 L128 129 Q66 165 45.5 242.5 Q25 320 52 425 Q73 504 128 562.5 Q183 621 261 647 L292 763 L492 763 L463 656 Q481 651 496 644.5 Q511 638 523 629 L479 466 Q458 485 428.5 496 Q399 507 366 507 Q320 507 287.5 478 Q255 449 244 398 Q230 336 245 301 Q260 266 301 263 Q338 260 371.5 269 Q405 278 451 306 L406 138 Z " />
<glyph glyph-name="sterling" unicode="&#xa3;" horiz-adv-x="688" d="M609 164 L565 0 L-13 0 L31 164 L117 164 Q146 197 163.5 233 Q181 269 188 310 L84 310 L128 474 L197 474 Q199 499 201.5 522.5 Q204 546 209 564 Q234 665 316 719 Q398 773 527 773 Q592 773 650.5 759.5 Q709 746 735 725 L690 555 Q672 577 624.5 594.5 Q577 612 530 612 Q467 612 437 594 Q407 576 397 536 Q395 530 393 513.5 Q391 497 388 474 L646 474 L602 310 L366 310 Q365 308 364.5 306 Q364 304 364 302 Q354 261 339 226.5 Q324 192 305 164 L609 164 Z " />
<glyph glyph-name="yen" unicode="&#xa5;" horiz-adv-x="744" d="M595 115 L439 115 L408 0 L192 0 L223 115 L51 115 L78 216 L250 216 L267 281 L266 285 L96 285 L123 386 L237 386 L131 763 L368 763 L403 564 Q408 534 411 508.5 Q414 483 415 456 L421 456 Q454 516 464 532 Q474 548 485 564 L625 763 L869 763 L567 386 L667 386 L640 285 L486 285 L483 281 L466 216 L622 216 L595 115 Z " />
<glyph glyph-name="Euro" unicode="&#x20ac;" horiz-adv-x="714" d="M614 47 Q556 16 488 1 Q420 -14 359 -10 Q253 -3 189.5 66 Q126 135 118 246 L14 246 L41 347 L121 347 Q124 364 127 381 Q130 398 135 416 L59 416 L86 517 L170 517 Q225 636 331.5 704.5 Q438 773 577 773 Q639 773 685.5 763 Q732 753 770 731 L717 537 Q685 564 649 576.5 Q613 589 565 589 Q514 589 473.5 570.5 Q433 552 404 517 L608 517 L581 416 L353 416 Q352 413 351.5 410.5 Q351 408 350 405 Q346 390 343 375 Q340 360 338 347 L563 347 L536 246 L343 246 Q354 212 380.5 194 Q407 176 448 175 Q498 174 555.5 190.5 Q613 207 663 236 L614 47 Z " />
<glyph glyph-name="florin" unicode="&#x192;" horiz-adv-x="498" d="M219 22 Q175 -110 91.5 -172.5 Q8 -235 -124 -235 Q-146 -235 -166 -234 Q-186 -233 -205 -231 L-158 -57 Q-81 -67 -39 -46 Q3 -25 21 29 L118 317 L27 317 L67 467 L169 467 L195 545 Q239 675 319 738 Q399 801 518 801 Q551 801 585.5 796 Q620 791 654 781 L611 619 Q582 629 556 633 Q530 637 500 637 Q459 637 436 618 Q413 599 395 545 L369 467 L493 467 L453 317 L318 317 L219 22 Z " />
<glyph glyph-name="numbersign" unicode="&#x23;" horiz-adv-x="864" d="M302 0 L401 181 L303 181 L204 0 L22 0 L121 181 L25 181 L68 341 L209 341 L249 415 L160 415 L203 575 L337 575 L440 763 L622 763 L519 575 L617 575 L720 763 L902 763 L799 575 L895 575 L852 415 L711 415 L671 341 L760 341 L717 181 L583 181 L484 0 L302 0 Z M391 341 L489 341 L529 415 L431 415 L391 341 Z " />
<glyph glyph-name="zeroinferior" unicode="&#x2080;" horiz-adv-x="584" d="M488 4 Q459 -116 386 -173.5 Q313 -231 193 -229 Q82 -227 33 -153 Q-16 -79 13 38 Q43 158 116.5 215.5 Q190 273 310 271 Q422 269 469.5 196.5 Q517 124 488 4 Z M304 7 Q323 81 316.5 112.5 Q310 144 278 145 Q252 145 231.5 116.5 Q211 88 196 35 Q177 -40 183 -71 Q189 -102 221 -102 Q247 -103 268.5 -74.5 Q290 -46 304 7 Z " />
<glyph glyph-name="oneinferior" unicode="&#x2081;" horiz-adv-x="428" d="M353 -102 L320 -224 L-42 -224 L-9 -102 L81 -102 L134 95 L49 95 L78 204 Q96 204 111.5 207.5 Q127 211 139 219 Q156 228 166 239.5 Q176 251 179 266 L360 266 L262 -102 L353 -102 Z " />
<glyph glyph-name="twoinferior" unicode="&#x2082;" horiz-adv-x="474" d="M366 -102 L333 -224 L-46 -224 L-13 -103 Q118 -13 172.5 33.5 Q227 80 236 112 Q241 131 228 140.5 Q215 150 184 150 Q151 150 120 143 Q89 136 54 120 L89 248 Q133 263 181.5 270 Q230 277 275 274 Q355 269 395.5 225 Q436 181 416 115 Q402 69 353.5 19 Q305 -31 212 -99 L213 -102 L366 -102 Z " />
<glyph glyph-name="threeinferior" unicode="&#x2083;" horiz-adv-x="475" d="M361 -106 Q345 -167 276.5 -198.5 Q208 -230 89 -230 Q46 -230 10 -226 Q-26 -222 -54 -214 L-19 -84 Q25 -96 62.5 -102 Q100 -108 131 -108 Q158 -108 172 -99.5 Q186 -91 191 -71 Q196 -54 183.5 -46.5 Q171 -39 136 -39 L65 -39 L97 82 L168 82 Q197 82 213 90.5 Q229 99 234 118 Q238 135 227.5 143.5 Q217 152 190 152 Q174 152 154 148 Q134 144 110 135 Q90 128 71.5 120 Q53 112 36 103 L73 242 Q112 257 163 265.5 Q214 274 262 274 Q350 274 391.5 235.5 Q433 197 417 137 Q407 99 379 70 Q351 41 312 25 L311 21 Q347 4 360 -28.5 Q373 -61 361 -106 Z " />
<glyph glyph-name="fourinferior" unicode="&#x2084;" horiz-adv-x="542" d="M165 -224 L192 -124 L-45 -124 L-15 -10 L247 266 L476 266 L403 -7 L452 -7 L421 -124 L372 -124 L345 -224 L165 -224 Z M157 -5 L155 -7 L223 -7 L244 55 Q247 65 256.5 93 Q266 121 272 137 L270 137 Q261 121 237 92 Q213 63 206 55 L157 -5 Z " />
<glyph glyph-name="fiveinferior" unicode="&#x2085;" horiz-adv-x="489" d="M369 -68 Q347 -151 277.5 -191 Q208 -231 88 -231 Q44 -231 7.5 -227.5 Q-29 -224 -58 -217 L-23 -87 Q14 -98 49.5 -103.5 Q85 -109 118 -109 Q148 -109 167 -97.5 Q186 -86 191 -65 Q199 -30 155.5 -20.5 Q112 -11 4 -18 L80 266 L432 266 L399 143 L228 143 L216 96 Q309 98 350 54.5 Q391 11 369 -68 Z " />
<glyph glyph-name="sixinferior" unicode="&#x2086;" horiz-adv-x="550" d="M435 -71 Q414 -149 347 -192.5 Q280 -236 182 -231 Q74 -226 28.5 -149.5 Q-17 -73 16 49 Q47 161 126.5 217 Q206 273 335 273 Q374 273 417.5 267.5 Q461 262 483 253 L447 117 Q419 133 384.5 142 Q350 151 314 151 Q265 151 236.5 129.5 Q208 108 195 59 Q221 72 253 79.5 Q285 87 316 87 Q387 87 420.5 43.5 Q454 0 435 -71 Z M259 -72 Q265 -51 259 -38 Q253 -25 235 -23 Q225 -21 208.5 -27 Q192 -33 177 -45 Q169 -75 177 -94.5 Q185 -114 209 -114 Q226 -114 240 -103 Q254 -92 259 -72 Z " />
<glyph glyph-name="seveninferior" unicode="&#x2087;" horiz-adv-x="449" d="M387 157 L119 -224 L-67 -224 L198 143 L199 144 L-12 144 L20 266 L416 266 L387 157 Z " />
<glyph glyph-name="eightinferior" unicode="&#x2088;" horiz-adv-x="549" d="M416 -99 Q401 -156 331 -193 Q261 -230 168 -230 Q67 -230 15.5 -186 Q-36 -142 -19 -78 Q-10 -44 17 -15 Q44 14 86 35 Q63 54 54.5 86.5 Q46 119 58 155 Q75 205 136 238.5 Q197 272 281 272 Q376 272 422.5 234.5 Q469 197 453 136 Q446 108 422 82 Q398 56 364 40 Q400 17 414 -18.5 Q428 -54 416 -99 Z M278 120 Q283 137 276.5 146 Q270 155 254 155 Q242 155 234.5 149 Q227 143 224 132 Q220 118 227 108 Q234 98 255 88 Q269 101 272.5 107 Q276 113 278 120 Z M227 -43 Q219 -38 204 -30.5 Q189 -23 184 -20 Q167 -36 158.5 -48 Q150 -60 147 -70 Q142 -91 154 -102.5 Q166 -114 195 -114 Q215 -114 230 -105 Q245 -96 249 -82 Q252 -71 246.5 -61.5 Q241 -52 227 -43 Z " />
<glyph glyph-name="nineinferior" unicode="&#x2089;" horiz-adv-x="550" d="M37 114 Q58 192 125 235.5 Q192 279 290 274 Q398 269 443.5 192.5 Q489 116 456 -6 Q425 -118 345.5 -174 Q266 -230 137 -230 Q98 -230 54.5 -224.5 Q11 -219 -11 -210 L25 -74 Q53 -90 87.5 -99 Q122 -108 158 -108 Q207 -108 235.5 -86.5 Q264 -65 277 -16 Q251 -29 219 -36.5 Q187 -44 156 -44 Q85 -44 51.5 -0.5 Q18 43 37 114 Z M213 115 Q207 94 213 81 Q219 68 237 66 Q247 64 263.5 70 Q280 76 295 88 Q303 118 295 137.5 Q287 157 263 157 Q246 157 232 146 Q218 135 213 115 Z " />
<glyph glyph-name="zerosuperior" unicode="&#x2070;" horiz-adv-x="584" d="M599 501 Q570 381 497 323.5 Q424 266 304 268 Q193 270 144 344 Q95 418 124 535 Q154 655 227.5 712.5 Q301 770 421 768 Q533 766 580.5 693.5 Q628 621 599 501 Z M415 504 Q434 578 427.5 609.5 Q421 641 389 642 Q363 642 342.5 613.5 Q322 585 307 532 Q288 457 294 426 Q300 395 332 395 Q358 394 379.5 422.5 Q401 451 415 504 Z " />
<glyph glyph-name="onesuperior" unicode="&#xb9;" horiz-adv-x="428" d="M421 395 L388 273 L26 273 L59 395 L149 395 L202 592 L117 592 L146 701 Q164 701 179.5 704.5 Q195 708 207 716 Q224 725 234 736.5 Q244 748 247 763 L428 763 L330 395 L421 395 Z " />
<glyph glyph-name="twosuperior" unicode="&#xb2;" horiz-adv-x="474" d="M451 395 L418 273 L39 273 L72 394 Q203 484 257.5 530.5 Q312 577 321 609 Q326 628 313 637.5 Q300 647 269 647 Q236 647 205 640 Q174 633 139 617 L174 745 Q218 760 266.5 767 Q315 774 360 771 Q440 766 480.5 722 Q521 678 501 612 Q487 566 438.5 516 Q390 466 297 398 L298 395 L451 395 Z " />
<glyph glyph-name="threesuperior" unicode="&#xb3;" horiz-adv-x="475" d="M456 391 Q440 330 371.5 298.5 Q303 267 184 267 Q141 267 105 271 Q69 275 41 283 L76 413 Q120 401 157.5 395 Q195 389 226 389 Q253 389 267 397.5 Q281 406 286 426 Q291 443 278.5 450.5 Q266 458 231 458 L160 458 L192 579 L263 579 Q292 579 308 587.5 Q324 596 329 615 Q333 632 322.5 640.5 Q312 649 285 649 Q269 649 249 645 Q229 641 205 632 Q185 625 166.5 617 Q148 609 131 600 L168 739 Q207 754 258 762.5 Q309 771 357 771 Q445 771 486.5 732.5 Q528 694 512 634 Q502 596 474 567 Q446 538 407 522 L406 518 Q442 501 455 468.5 Q468 436 456 391 Z " />
<glyph glyph-name="foursuperior" unicode="&#x2074;" horiz-adv-x="542" d="M261 273 L288 373 L51 373 L81 487 L343 763 L572 763 L499 490 L548 490 L517 373 L468 373 L441 273 L261 273 Z M253 492 L251 490 L319 490 L340 552 Q343 562 352.5 590 Q362 618 368 634 L366 634 Q357 618 333 589 Q309 560 302 552 L253 492 Z " />
<glyph glyph-name="fivesuperior" unicode="&#x2075;" horiz-adv-x="489" d="M481 429 Q459 346 389.5 306 Q320 266 200 266 Q156 266 119.5 269.5 Q83 273 54 280 L89 410 Q126 399 161.5 393.5 Q197 388 230 388 Q260 388 279 399.5 Q298 411 303 432 Q311 467 267.5 476.5 Q224 486 116 479 L192 763 L544 763 L511 640 L340 640 L328 593 Q421 595 462 551.5 Q503 508 481 429 Z " />
<glyph glyph-name="sixsuperior" unicode="&#x2076;" horiz-adv-x="550" d="M547 426 Q526 348 459 304.5 Q392 261 294 266 Q186 271 140.5 347.5 Q95 424 128 546 Q159 658 238.5 714 Q318 770 447 770 Q486 770 529.5 764.5 Q573 759 595 750 L559 614 Q531 630 496.5 639 Q462 648 426 648 Q377 648 348.5 626.5 Q320 605 307 556 Q333 569 365 576.5 Q397 584 428 584 Q499 584 532.5 540.5 Q566 497 547 426 Z M371 425 Q377 446 371 459 Q365 472 347 474 Q337 476 320.5 470 Q304 464 289 452 Q281 422 289 402.5 Q297 383 321 383 Q338 383 352 394 Q366 405 371 425 Z " />
<glyph glyph-name="sevensuperior" unicode="&#x2077;" horiz-adv-x="449" d="M508 654 L240 273 L54 273 L319 640 L320 641 L109 641 L141 763 L537 763 L508 654 Z " />
<glyph glyph-name="eightsuperior" unicode="&#x2078;" horiz-adv-x="549" d="M529 398 Q514 341 444 304 Q374 267 281 267 Q180 267 128.5 311 Q77 355 94 419 Q103 453 130 482 Q157 511 199 532 Q176 551 167.5 583.5 Q159 616 171 652 Q188 702 249 735.5 Q310 769 394 769 Q489 769 535.5 731.5 Q582 694 566 633 Q559 605 535 579 Q511 553 477 537 Q513 514 527 478.5 Q541 443 529 398 Z M391 617 Q396 634 389.5 643 Q383 652 367 652 Q355 652 347.5 646 Q340 640 337 629 Q333 615 340 605 Q347 595 368 585 Q382 598 385.5 604 Q389 610 391 617 Z M340 454 Q332 459 317 466.5 Q302 474 297 477 Q280 461 271.5 449 Q263 437 260 427 Q255 406 267 394.5 Q279 383 308 383 Q328 383 343 392 Q358 401 362 415 Q365 426 359.5 435.5 Q354 445 340 454 Z " />
<glyph glyph-name="ninesuperior" unicode="&#x2079;" horiz-adv-x="550" d="M133 610 Q154 688 221 731.5 Q288 775 386 770 Q494 765 539.5 688.5 Q585 612 552 490 Q521 378 441.5 322 Q362 266 233 266 Q194 266 150.5 271.5 Q107 277 85 286 L121 422 Q149 406 183.5 397 Q218 388 254 388 Q303 388 331.5 409.5 Q360 431 373 480 Q347 467 315 459.5 Q283 452 252 452 Q181 452 147.5 495.5 Q114 539 133 610 Z M309 611 Q303 590 309 577 Q315 564 333 562 Q343 560 359.5 566 Q376 572 391 584 Q399 614 391 633.5 Q383 653 359 653 Q342 653 328 642 Q314 631 309 611 Z " />
<glyph glyph-name="percent" unicode="&#x25;" horiz-adv-x="1332" d="M618 501 Q589 381 516 323.5 Q443 266 323 268 Q212 270 163 344 Q114 418 143 535 Q173 655 246.5 712.5 Q320 770 440 768 Q552 766 599.5 693.5 Q647 621 618 501 Z M1052 763 L519 0 L337 0 L870 763 L1052 763 Z M434 504 Q453 578 446.5 609.5 Q440 641 408 642 Q382 642 361.5 613.5 Q341 585 326 532 Q307 457 313 426 Q319 395 351 395 Q377 394 398.5 422.5 Q420 451 434 504 Z M1328 224 Q1299 104 1226 46.5 Q1153 -11 1033 -9 Q922 -7 873 67 Q824 141 853 258 Q883 378 956.5 435.5 Q1030 493 1150 491 Q1262 489 1309.5 416.5 Q1357 344 1328 224 Z M1144 227 Q1163 301 1156.5 332.5 Q1150 364 1118 365 Q1092 365 1071.5 336.5 Q1051 308 1036 255 Q1017 180 1023 149 Q1029 118 1061 118 Q1087 117 1108.5 145.5 Q1130 174 1144 227 Z " />
<glyph glyph-name="perthousand" unicode="&#x2030;" horiz-adv-x="1864" d="M618 502 Q589 382 516 324.5 Q443 267 323 269 Q212 271 163 345 Q114 419 143 536 Q173 656 246.5 713.5 Q320 771 440 769 Q552 767 599.5 694.5 Q647 622 618 502 Z M1052 764 L519 1 L337 1 L870 764 L1052 764 Z M434 505 Q453 579 446.5 610.5 Q440 642 408 643 Q382 643 361.5 614.5 Q341 586 326 533 Q307 458 313 427 Q319 396 351 396 Q377 395 398.5 423.5 Q420 452 434 505 Z M1328 225 Q1299 105 1226 47.5 Q1153 -10 1033 -8 Q922 -6 873 68 Q824 142 853 259 Q883 379 956.5 436.5 Q1030 494 1150 492 Q1262 490 1309.5 417.5 Q1357 345 1328 225 Z M1860 224 Q1831 104 1758 46.5 Q1685 -11 1565 -9 Q1454 -7 1405 67 Q1356 141 1385 258 Q1415 378 1488.5 435.5 Q1562 493 1682 491 Q1794 489 1841.5 416.5 Q1889 344 1860 224 Z M1144 228 Q1163 302 1156.5 333.5 Q1150 365 1118 366 Q1092 366 1071.5 337.5 Q1051 309 1036 256 Q1017 181 1023 150 Q1029 119 1061 119 Q1087 118 1108.5 146.5 Q1130 175 1144 228 Z M1676 227 Q1695 301 1688.5 332.5 Q1682 364 1650 365 Q1624 365 1603.5 336.5 Q1583 308 1568 255 Q1549 180 1555 149 Q1561 118 1593 118 Q1619 117 1640.5 145.5 Q1662 174 1676 227 Z " />
<glyph glyph-name="onequarter" unicode="&#xbc;" horiz-adv-x="1233" d="M452 395 L419 273 L57 273 L90 395 L180 395 L233 592 L148 592 L177 701 Q195 701 210.5 704.5 Q226 708 238 716 Q255 725 265 736.5 Q275 748 278 763 L459 763 L361 395 L452 395 Z M1000 763 L467 0 L285 0 L818 763 L1000 763 Z M921 0 L948 100 L711 100 L741 214 L1003 490 L1232 490 L1159 217 L1208 217 L1177 100 L1128 100 L1101 0 L921 0 Z M913 219 L911 217 L979 217 L1000 279 Q1003 289 1012.5 317 Q1022 345 1028 361 L1026 361 Q1017 345 993 316 Q969 287 962 279 L913 219 Z " />
<glyph glyph-name="onehalf" unicode="&#xbd;" horiz-adv-x="1236" d="M452 395 L419 273 L57 273 L90 395 L180 395 L233 592 L148 592 L177 701 Q195 701 210.5 704.5 Q226 708 238 716 Q255 725 265 736.5 Q275 748 278 763 L459 763 L361 395 L452 395 Z M1000 763 L467 0 L285 0 L818 763 L1000 763 Z M1194 122 L1161 0 L782 0 L815 121 Q946 211 1000.5 257.5 Q1055 304 1064 336 Q1069 355 1056 364.5 Q1043 374 1012 374 Q979 374 948 367 Q917 360 882 344 L917 472 Q961 487 1009.5 494 Q1058 501 1103 498 Q1183 493 1223.5 449 Q1264 405 1244 339 Q1230 293 1181.5 243 Q1133 193 1040 125 L1041 122 L1194 122 Z " />
<glyph glyph-name="threequarters" unicode="&#xbe;" horiz-adv-x="1229" d="M475 391 Q459 330 390.5 298.5 Q322 267 203 267 Q160 267 124 271 Q88 275 60 283 L95 413 Q139 401 176.5 395 Q214 389 245 389 Q272 389 286 397.5 Q300 406 305 426 Q310 443 297.5 450.5 Q285 458 250 458 L179 458 L211 579 L282 579 Q311 579 327 587.5 Q343 596 348 615 Q352 632 341.5 640.5 Q331 649 304 649 Q288 649 268 645 Q248 641 224 632 Q204 625 185.5 617 Q167 609 150 600 L187 739 Q226 754 277 762.5 Q328 771 376 771 Q464 771 505.5 732.5 Q547 694 531 634 Q521 596 493 567 Q465 538 426 522 L425 518 Q461 501 474 468.5 Q487 436 475 391 Z M996 763 L463 0 L281 0 L814 763 L996 763 Z M917 0 L944 100 L707 100 L737 214 L999 490 L1228 490 L1155 217 L1204 217 L1173 100 L1124 100 L1097 0 L917 0 Z M909 219 L907 217 L975 217 L996 279 Q999 289 1008.5 317 Q1018 345 1024 361 L1022 361 Q1013 345 989 316 Q965 287 958 279 L909 219 Z " />
<glyph glyph-name="plus" unicode="&#x2b;" horiz-adv-x="742" d="M630 192 L435 192 L383 0 L213 0 L265 192 L68 192 L111 352 L307 352 L359 544 L529 544 L477 352 L673 352 L630 192 Z " />
<glyph glyph-name="minus" unicode="&#x2212;" horiz-adv-x="742" d="M673 352 L630 192 L68 192 L111 352 L673 352 Z " />
<glyph glyph-name="plusminus" unicode="&#xb1;" horiz-adv-x="742" d="M622 160 L579 0 L17 0 L60 160 L256 160 L280 248 L83 248 L126 408 L323 408 L359 544 L529 544 L493 408 L688 408 L645 248 L450 248 L426 160 L622 160 Z " />
<glyph glyph-name="multiply" unicode="&#xd7;" horiz-adv-x="731" d="M597 110 L454 -3 L335 159 L129 -3 L46 110 L252 272 L133 434 L278 547 L396 386 L601 547 L684 434 L479 272 L597 110 Z " />
<glyph glyph-name="divide" unicode="&#xf7;" horiz-adv-x="732" d="M534 506 Q522 463 483 432.5 Q444 402 401 402 Q358 402 335.5 432.5 Q313 463 325 506 Q336 549 375 579.5 Q414 610 456 610 Q500 610 522.5 579.5 Q545 549 534 506 Z M668 352 L625 192 L63 192 L106 352 L668 352 Z M408 38 Q397 -5 358 -35.5 Q319 -66 275 -66 Q233 -66 210.5 -35.5 Q188 -5 199 38 Q211 81 249.5 111.5 Q288 142 331 142 Q374 142 397 111.5 Q420 81 408 38 Z " />
<glyph glyph-name="equal" unicode="&#x3d;" horiz-adv-x="742" d="M711 492 L668 332 L106 332 L149 492 L711 492 Z M636 212 L593 52 L31 52 L74 212 L636 212 Z " />
<glyph glyph-name="approxequal" unicode="&#x2248;" horiz-adv-x="791" d="M487 533 Q516 512 529.5 506 Q543 500 555 500 Q582 500 599 521 Q616 542 630 595 L777 595 Q758 469 689.5 390 Q621 311 530 311 Q495 311 463 322.5 Q431 334 383 369 Q355 390 341.5 396 Q328 402 317 402 Q290 402 273 381.5 Q256 361 242 307 L95 307 Q116 434 183.5 512.5 Q251 591 341 591 Q376 591 408 579.5 Q440 568 487 533 Z M405 226 Q434 205 447.5 199 Q461 193 473 193 Q499 193 516 214 Q533 235 547 288 L694 288 Q676 162 607.5 83 Q539 4 448 4 Q413 4 381 15.5 Q349 27 301 62 Q273 83 259.5 89 Q246 95 235 95 Q208 95 191 74.5 Q174 54 160 0 L13 0 Q33 126 100.5 205 Q168 284 258 284 Q293 284 325 272.5 Q357 261 405 226 Z " />
<glyph glyph-name="notequal" unicode="&#x2260;" horiz-adv-x="724" d="M593 52 L269 52 L206 -40 L94 -40 L157 52 L31 52 L74 212 L265 212 L347 332 L106 332 L149 492 L456 492 L519 585 L631 585 L568 492 L711 492 L668 332 L459 332 L377 212 L636 212 L593 52 Z " />
<glyph glyph-name="less" unicode="&#x3c;" horiz-adv-x="742" d="M612 133 L521 -11 L71 202 L109 343 L673 556 L688 393 L342 262 L612 133 Z " />
<glyph glyph-name="greater" unicode="&#x3e;" horiz-adv-x="742" d="M649 202 L85 -11 L69 154 L412 284 L145 412 L237 556 L687 343 L649 202 Z " />
<glyph glyph-name="lessequal" unicode="&#x2264;" horiz-adv-x="742" d="M668 337 L595 201 L121 344 L158 483 L158 483 L169 523 L719 665 L719 519 L347 427 L668 337 Z M643 160 L600 0 L38 0 L81 160 L643 160 Z " />
<glyph glyph-name="greaterequal" unicode="&#x2265;" horiz-adv-x="742" d="M692 344 L142 201 L142 347 L514 438 L194 529 L266 665 L740 523 L703 384 L703 384 L692 344 Z M656 160 L613 0 L51 0 L94 160 L656 160 Z " />
<glyph glyph-name="logicalnot" unicode="&#xac;" horiz-adv-x="742" d="M111 352 L673 352 L579 0 L409 0 L460 192 L68 192 L111 352 Z " />
<glyph glyph-name="fraction" unicode="&#x2044;" horiz-adv-x="556" d="M663 763 L130 0 L-52 0 L481 763 L663 763 Z " />
<glyph glyph-name="radical" unicode="&#x221a;" horiz-adv-x="677" d="M9 232 L52 392 L314 392 L312 299 Q311 263 309.5 237.5 Q308 212 305 198 L308 198 Q313 212 324.5 237.5 Q336 263 355 299 L593 763 L808 763 L343 0 L163 0 L138 232 L9 232 Z " />
<glyph glyph-name="infinity" unicode="&#x221e;" horiz-adv-x="1023" d="M805 545 Q859 545 901.5 518 Q944 491 967 442 Q986 401 988 350 Q990 299 975 241 Q946 130 863 65 Q780 0 670 0 Q599 0 549 30.5 Q499 61 464 129 Q419 71 352.5 35.5 Q286 0 218 0 Q116 0 66.5 86 Q17 172 49 304 Q75 413 156 479 Q237 545 340 545 Q418 545 466.5 518.5 Q515 492 557 416 Q602 474 669 509.5 Q736 545 805 545 Z M204 287 Q189 231 208.5 196 Q228 161 270 161 Q314 161 354.5 183 Q395 205 425 245 Q415 315 390 349.5 Q365 384 323 384 Q285 384 250.5 356 Q216 328 204 287 Z M818 254 Q834 313 815 348.5 Q796 384 752 384 Q708 384 667 361.5 Q626 339 597 299 Q608 227 633 194 Q658 161 700 161 Q738 161 773 188 Q808 215 818 254 Z " />
<glyph glyph-name="integral" unicode="&#x222b;" horiz-adv-x="485" d="M497 637 Q454 637 430 616.5 Q406 596 392 545 L249 21 Q215 -103 132 -169 Q49 -235 -74 -235 Q-107 -235 -142 -230 Q-177 -225 -211 -215 L-167 -53 Q-138 -63 -112 -67 Q-86 -71 -56 -71 Q-13 -71 11 -50.5 Q35 -30 49 21 L192 545 Q226 669 309 735 Q392 801 515 801 Q548 801 582.5 796 Q617 791 651 781 L608 619 Q579 629 553 633 Q527 637 497 637 Z " />
<glyph glyph-name="partialdiff" unicode="&#x2202;" horiz-adv-x="641" d="M608 294 Q574 156 480 72.5 Q386 -11 262 -11 Q129 -11 70 74 Q11 159 45 287 Q78 408 167.5 480.5 Q257 553 380 556 Q351 591 307.5 622.5 Q264 654 207 682 L358 812 Q510 732 578.5 593 Q647 454 608 294 Z M244 272 Q226 204 236.5 172.5 Q247 141 286 141 Q326 141 354 173 Q382 205 400 272 Q418 339 407 371.5 Q396 404 356 404 Q317 404 289.5 372 Q262 340 244 272 Z " />
<glyph glyph-name="alpha" unicode="&#x3b1;" horiz-adv-x="731" d="M744 545 L584 273 L608 0 L443 0 L440 105 Q389 48 331.5 18.5 Q274 -11 212 -11 Q107 -11 60 77.5 Q13 166 46 295 Q76 411 161.5 483.5 Q247 556 352 556 Q421 556 468 527 Q515 498 531 448 L578 545 L744 545 Z M196 287 Q185 246 210.5 220 Q236 194 286 194 Q336 194 376 213 Q416 232 437 268 Q431 308 399.5 329 Q368 350 316 350 Q271 350 237 332.5 Q203 315 196 287 Z " />
<glyph glyph-name="beta" unicode="&#xa7b5;" horiz-adv-x="646" d="M168 31 L141 -224 L-53 -224 L152 542 Q186 670 269 736 Q352 802 478 802 Q586 802 640.5 738.5 Q695 675 668 581 Q652 523 616.5 479 Q581 435 524 402 Q572 375 587.5 318.5 Q603 262 583 187 Q560 101 483.5 45.5 Q407 -10 307 -10 Q270 -10 232.5 1 Q195 12 168 31 Z M426 603 Q370 604 340.5 582 Q311 560 298 510 L218 211 Q238 198 265 191.5 Q292 185 323 185 Q375 185 405.5 202 Q436 219 445 253 Q453 285 436.5 301.5 Q420 318 378 318 Q355 314 338 312.5 Q321 311 301 311 L347 482 Q363 482 381.5 480.5 Q400 479 421 477 Q448 477 471 495 Q494 513 501 539 Q511 573 494.5 587.5 Q478 602 426 603 Z " />
<glyph glyph-name="delta" unicode="&#x3b4;" horiz-adv-x="644" d="M592 226 Q564 125 466.5 57 Q369 -11 255 -11 Q130 -11 67.5 68 Q5 147 39 266 Q57 329 112.5 389.5 Q168 450 240 482 Q200 518 189 551.5 Q178 585 190 632 Q208 698 289 750 Q370 802 470 802 Q545 802 608 791 Q671 780 732 756 L628 583 Q578 600 527 609.5 Q476 619 435 619 Q410 619 396 613 Q382 607 379 596 Q375 583 397 565 Q419 547 476 514 Q561 465 590 393 Q619 321 592 226 Z M192 269 Q180 223 206 199 Q232 175 294 175 Q354 175 396 199 Q438 223 449 264 Q459 304 432 338 Q405 372 347 392 Q299 383 251 346 Q203 309 192 269 Z " />
<glyph glyph-name="epsilon" unicode="&#x3b5;" horiz-adv-x="560" d="M364 383 Q322 383 296.5 374.5 Q271 366 267 351 Q263 338 272.5 330 Q282 322 303 322 Q337 329 371.5 333.5 Q406 338 434 338 L397 203 Q373 203 345.5 206 Q318 209 275 217 Q247 217 228.5 209.5 Q210 202 207 189 Q202 174 222.5 167.5 Q243 161 293 161 Q347 161 387.5 166.5 Q428 172 461 183 L472 56 Q421 23 349.5 6 Q278 -11 192 -11 Q92 -11 41 35.5 Q-10 82 8 154 Q18 193 53.5 225 Q89 257 142 273 Q99 304 87 337 Q75 370 88 415 Q106 480 182.5 518 Q259 556 377 556 Q445 556 500.5 538.5 Q556 521 586 491 L505 360 Q468 372 433.5 377.5 Q399 383 364 383 Z " />
<glyph glyph-name="theta" unicode="&#x3b8;" horiz-adv-x="573" d="M427 797 Q538 797 576 685 Q614 573 565 391 Q516 209 418 97 Q320 -15 209 -15 Q99 -15 61 97 Q23 209 72 391 Q121 573 218.5 685 Q316 797 427 797 Z M374 599 Q334 599 298.5 557.5 Q263 516 237 440 L426 440 Q440 517 427 558 Q414 599 374 599 Z M262 183 Q302 183 338 225 Q374 267 401 345 L211 345 Q196 267 209 225 Q222 183 262 183 Z " />
<glyph glyph-name="lambda" unicode="&#x3bb;" horiz-adv-x="613" d="M125 605 Q118 605 109 604.5 Q100 604 81 603 L127 777 Q147 779 164 779.5 Q181 780 197 780 Q312 780 361.5 733 Q411 686 429 546 L499 1 L284 1 L280 247 Q280 280 281 302.5 Q282 325 285 338 L282 338 Q278 325 267 302.5 Q256 280 237 247 L100 1 L-114 1 L249 546 Q243 575 211.5 590 Q180 605 125 605 Z " />
<glyph glyph-name="mu.math" unicode="&#xb5;" horiz-adv-x="686" d="M339 38 Q308 18 274 5.5 Q240 -7 204 -10 L147 -224 L-53 -224 L73 246 L73 246 L153 545 L353 545 L266 219 Q254 177 260 160.5 Q266 144 293 144 Q313 144 337 150.5 Q361 157 378 168 L479 545 L679 545 L533 1 L333 1 L342 35 L339 38 Z " />
<glyph glyph-name="nu" unicode="&#x3bd;" horiz-adv-x="643" d="M155 0 Q155 168 136 292 Q117 416 73 545 L289 545 Q308 487 315.5 383 Q323 279 316 179 L318 179 Q364 239 414 338 Q464 437 502 545 L716 545 Q660 419 545.5 255 Q431 91 341 0 L155 0 Z " />
<glyph glyph-name="pi" unicode="&#x3c0;" horiz-adv-x="741" d="M43 395 L83 545 L764 545 L724 395 L622 395 L584 255 Q571 206 578 184 Q585 162 612 162 Q626 162 639.5 165 Q653 168 675 176 L631 13 Q596 -1 573.5 -5.5 Q551 -10 522 -10 Q425 -10 383.5 43 Q342 96 367 191 L422 395 L326 395 L220 0 L20 0 L126 395 L43 395 Z " />
<glyph glyph-name="rho" unicode="&#x3c1;" horiz-adv-x="644" d="M168 31 L141 -224 L-53 -224 L153 545 L313 545 L294 473 Q330 511 377 532.5 Q424 554 470 554 Q566 554 601.5 474.5 Q637 395 600 256 Q567 135 487.5 62.5 Q408 -10 308 -10 Q264 -10 228.5 0.5 Q193 11 168 31 Z M362 340 Q330 340 299.5 328.5 Q269 317 245 295 L220 201 Q239 191 263.5 185.5 Q288 180 310 180 Q365 181 401.5 201.5 Q438 222 447 258 Q458 299 437 319.5 Q416 340 362 340 Z " />
<glyph glyph-name="increment" unicode="&#x2206;" horiz-adv-x="804" d="M-48 0 L-45 12 L524 763 L536 763 L709 12 L706 0 L-48 0 Z M495 161 L443 434 L249 161 L495 161 Z " />
<glyph glyph-name="product" unicode="&#x220f;" horiz-adv-x="850" d="M447 -78 L638 633 L448 633 L257 -78 L57 -78 L248 633 L157 633 L200 793 L950 793 L907 633 L838 633 L647 -78 L447 -78 Z " />
<glyph glyph-name="summation" unicode="&#x2211;" horiz-adv-x="604" d="M652 602 L353 602 L525 347 L214 83 L513 83 L470 -78 L-54 -78 L-17 58 L320 347 L135 627 L171 763 L695 763 L652 602 Z " />
<glyph glyph-name="Omega" unicode="&#x3a9;" horiz-adv-x="848" d="M149 171 Q112 209 95.5 295.5 Q79 382 101 465 Q137 606 255.5 689.5 Q374 773 535 773 Q613 773 677.5 748.5 Q742 724 785 678 Q830 629 844 562.5 Q858 496 838 421 Q819 348 764 278.5 Q709 209 645 171 L754 171 L708 0 L408 0 L454 173 Q517 228 555 284 Q593 340 611 405 Q635 496 608 548 Q581 600 508 600 Q436 600 384 549.5 Q332 499 309 405 Q292 338 299.5 282.5 Q307 227 340 173 L294 0 L-6 0 L40 171 L149 171 Z " />
<glyph glyph-name="lozenge" unicode="&#x25ca;" horiz-adv-x="629" d="M638 382 L638 380 L241 -11 L237 -11 L49 380 L49 382 L447 774 L451 774 L638 382 Z M311 259 L429 381 L377 503 L258 381 L311 259 Z " />
<glyph glyph-name="whitesquarebracketleft" unicode="&#x301a;" horiz-adv-x="688" d="M587 -68 L545 -224 L-73 -224 L199 791 L508 791 L466 635 L357 635 L169 -68 L278 -68 L508 791 L817 791 L775 635 L666 635 L478 -68 L587 -68 Z " />
<glyph glyph-name="whitesquarebracketright" unicode="&#x301b;" horiz-adv-x="688" d="M107 635 L149 791 L767 791 L495 -224 L186 -224 L228 -68 L337 -68 L525 635 L416 635 L186 -224 L-123 -224 L-81 -68 L28 -68 L216 635 L107 635 Z " />
<glyph glyph-name="parendblleft" unicode="&#x2e28;" horiz-adv-x="702" d="M273 312 Q243 198 242 81.5 Q241 -35 269 -165 L123 -247 Q60 -133 47.5 19 Q35 171 76 345 Q105 470 189.5 598 Q274 726 394 823 L513 728 Q423 632 362.5 527 Q302 422 273 312 Z M582 312 Q552 198 551 81.5 Q550 -35 578 -165 L432 -247 Q369 -133 356.5 19 Q344 171 385 345 Q414 470 498.5 598 Q583 726 703 823 L822 728 Q732 632 671.5 527 Q611 422 582 312 Z " />
<glyph glyph-name="parendblright" unicode="&#x2e29;" horiz-adv-x="702" d="M136 255 Q166 369 167 485.5 Q168 602 140 732 L286 814 Q349 700 361.5 548 Q374 396 333 222 Q304 97 219.5 -31 Q135 -159 15 -256 L-104 -161 Q-14 -65 46.5 40 Q107 145 136 255 Z M445 255 Q475 369 476 485.5 Q477 602 449 732 L595 814 Q658 700 670.5 548 Q683 396 642 222 Q613 97 528.5 -31 Q444 -159 324 -256 L205 -161 Q295 -65 355.5 40 Q416 145 445 255 Z " />
<glyph glyph-name="emptyset" unicode="&#x2205;" horiz-adv-x="867" d="M371 -11 Q318 -10 271.5 3.5 Q225 17 188 44 L124 -20 L62 40 L126 104 Q122 109 118.5 114.5 Q115 120 112 125 Q75 185 66.5 262 Q58 339 81 420 Q127 585 255.5 681.5 Q384 778 558 774 Q613 773 660.5 759.5 Q708 746 745 721 L808 783 L870 723 L808 662 Q811 658 813.5 654.5 Q816 651 819 647 Q859 589 868 513.5 Q877 438 855 356 Q809 184 679 84.5 Q549 -15 371 -11 Z M295 397 Q284 358 282.5 325 Q281 292 289 266 L589 564 Q574 572 556.5 576.5 Q539 581 519 581 Q441 582 378.5 530 Q316 478 295 397 Z M411 182 Q489 181 551.5 233 Q614 285 636 367 Q646 405 647.5 437.5 Q649 470 641 495 L343 198 Q356 190 373.5 186 Q391 182 411 182 Z " />
<glyph glyph-name="Ndblstruck" unicode="&#x2115;" horiz-adv-x="807" d="M230 293 L151 0 L30 0 L206 658 L206 658 L234 763 L359 763 L604 455 Q613 444 622.5 429 Q632 414 642 394 L645 394 Q650 418 654 437 Q658 456 662 470 L740 763 L861 763 L685 105 L685 105 L657 0 L532 0 L288 308 Q279 320 269.5 335 Q260 350 250 369 L247 369 Q242 346 238 327 Q234 308 230 293 Z M571 121 L576 121 Q579 144 586.5 176.5 Q594 209 608 262 L336 615 Q329 624 325.5 630 Q322 636 320 645 L316 645 Q314 625 307 593.5 Q300 562 283 501 L555 148 Q565 134 567.5 130 Q570 126 571 121 Z " />
<glyph glyph-name="Zdblstruck" unicode="&#x2124;" horiz-adv-x="735" d="M180 654 L209 763 L804 763 L777 659 L371 112 L373 109 L639 109 L610 0 L-5 0 L23 105 L428 651 L426 654 L180 654 Z M156 109 L241 109 L645 651 L643 654 L558 654 L154 112 L156 109 Z " />
<glyph glyph-name="Rdblstruck" unicode="&#x211d;" horiz-adv-x="898" d="M316 654 L141 0 L20 0 L224 763 L636 763 Q773 763 840.5 693.5 Q908 624 878 511 Q859 441 821 396 Q783 351 720 325 L798 0 L677 0 L612 302 Q596 299 577.5 297.5 Q559 296 530 296 L580 0 L470 0 L428 293 L400 292 L322 0 L211 0 L386 654 L316 654 Z M770 524 Q787 590 758 627.5 Q729 665 663 665 Q689 645 698.5 608 Q708 571 698 530 Q685 479 654 441 Q623 403 578 382 Q655 384 704 420 Q753 456 770 524 Z M590 527 Q608 594 583 630 Q558 666 500 664 L425 383 Q488 385 529.5 421.5 Q571 458 590 527 Z " />
<glyph glyph-name="union" unicode="&#x222a;" horiz-adv-x="782" d="M733 380 Q676 167 583.5 78 Q491 -11 332 -11 Q183 -11 120 86.5 Q57 184 103 352 L187 663 L347 663 L264 358 Q233 245 255.5 194 Q278 143 357 143 Q437 143 485.5 192.5 Q534 242 567 362 L649 663 L809 663 L733 380 Z " />
<glyph glyph-name="unionarray" unicode="&#x22c3;" horiz-adv-x="782" d="M733 380 Q676 167 583.5 78 Q491 -11 332 -11 Q183 -11 120 86.5 Q57 184 103 352 L187 663 L347 663 L264 358 Q233 245 255.5 194 Q278 143 357 143 Q437 143 485.5 192.5 Q534 242 567 362 L649 663 L809 663 L733 380 Z " />
<glyph glyph-name="propersubset" unicode="&#x2282;" horiz-adv-x="794" d="M410 80 Q230 80 141.5 178 Q53 276 86 428 Q118 573 221 637.5 Q324 702 530 702 L833 702 L790 547 L462 547 Q378 547 325 513.5 Q272 480 259 417 Q239 325 287.5 280.5 Q336 236 456 236 L710 236 L667 80 L410 80 Z " />
<glyph glyph-name="element" unicode="&#x2208;" horiz-adv-x="794" d="M714 230 L671 74 L414 74 Q234 74 145.5 172 Q57 270 90 422 Q122 567 225 631.5 Q328 696 534 696 L837 696 L794 541 L466 541 Q404 541 359 523 Q314 505 288 470 L719 470 L676 310 L266 310 Q283 270 331.5 250 Q380 230 460 230 L714 230 Z " />
<glyph glyph-name="notelement" unicode="&#x2209;" horiz-adv-x="794" d="M414 74 Q400 74 386 74.5 Q372 75 359 77 L307 0 L195 0 L261 98 Q157 134 111 220 Q65 306 90 422 Q122 567 225 631.5 Q328 696 534 696 L668 696 L713 763 L825 763 L780 696 L837 696 L794 541 L674 541 L626 470 L719 470 L676 310 L517 310 L463 230 L714 230 L671 74 L414 74 Z M466 541 Q404 541 359 523 Q314 505 288 470 L514 470 L562 541 L466 541 Z M266 310 Q277 285 300 267.5 Q323 250 358 241 L405 310 L266 310 Z " />
<glyph glyph-name="propersuperset" unicode="&#x2283;" horiz-adv-x="794" d="M437 702 Q617 702 705.5 604 Q794 506 761 354 Q729 209 626 144.5 Q523 80 317 80 L14 80 L57 235 L385 235 Q469 235 522 268.5 Q575 302 588 365 Q608 457 559.5 501.5 Q511 546 391 546 L137 546 L180 702 L437 702 Z " />
<glyph glyph-name="suchthat" unicode="&#x220b;" horiz-adv-x="794" d="M761 354 Q729 209 626 144.5 Q523 80 317 80 L14 80 L57 235 L385 235 Q449 235 495.5 254.5 Q542 274 567 312 L108 312 L151 472 L582 472 Q564 509 516 527.5 Q468 546 391 546 L137 546 L180 702 L437 702 Q617 702 705.5 604 Q794 506 761 354 Z " />
<glyph glyph-name="notcontains" unicode="&#x220c;" horiz-adv-x="794" d="M317 80 L181 80 L127 0 L15 0 L69 80 L14 80 L57 235 L175 235 L227 312 L108 312 L151 472 L335 472 L386 546 L137 546 L180 702 L437 702 Q451 702 464 701.5 Q477 701 490 700 L533 763 L645 763 L588 679 Q693 643 739.5 556.5 Q786 470 761 354 Q729 209 626 144.5 Q523 80 317 80 Z M447 472 L582 472 Q571 495 548 511 Q525 527 491 536 L447 472 Z M385 235 Q449 235 495.5 254.5 Q542 274 567 312 L339 312 L287 235 L385 235 Z " />
<glyph glyph-name="intersection" unicode="&#x2229;" horiz-adv-x="782" d="M85 283 Q142 496 234.5 585 Q327 674 486 674 Q635 674 698 576.5 Q761 479 715 311 L631 0 L471 0 L554 305 Q585 418 562.5 469 Q540 520 461 520 Q381 520 332.5 470.5 Q284 421 251 301 L169 0 L9 0 L85 283 Z " />
<glyph glyph-name="intersectionarray" unicode="&#x22c2;" horiz-adv-x="782" d="M85 283 Q142 496 234.5 585 Q327 674 486 674 Q635 674 698 576.5 Q761 479 715 311 L631 0 L471 0 L554 305 Q585 418 562.5 469 Q540 520 461 520 Q381 520 332.5 470.5 Q284 421 251 301 L169 0 L9 0 L85 283 Z " />
<glyph glyph-name="bulletoperator" unicode="&#x2219;" horiz-adv-x="324" d="M400 309 Q386 259 342.5 225.5 Q299 192 248 192 Q195 192 168.5 225.5 Q142 259 156 309 Q169 359 213.5 392 Q258 425 310 425 Q361 425 387 392 Q413 359 400 309 Z " />
<glyph glyph-name="arrowleft" unicode="&#x2190;" horiz-adv-x="1022" d="M971 222 L348 222 L348 92 L1 272 L1 273 L348 453 L348 323 L971 323 L971 222 Z " />
<glyph glyph-name="arrowup" unicode="&#x2191;" horiz-adv-x="363" d="M131 -213 L131 410 L1 410 L181 757 L182 757 L362 410 L232 410 L232 -213 L131 -213 Z " />
<glyph glyph-name="arrowright" unicode="&#x2192;" horiz-adv-x="1022" d="M51 323 L674 323 L674 453 L1021 273 L1021 272 L674 92 L674 222 L51 222 L51 323 Z " />
<glyph glyph-name="arrowdown" unicode="&#x2193;" horiz-adv-x="363" d="M232 757 L232 134 L362 134 L182 -213 L181 -213 L1 134 L131 134 L131 757 L232 757 Z " />
<glyph glyph-name="arrowleftfrombar" unicode="&#x21a4;" horiz-adv-x="1022" d="M328 456 L185 323 L870 323 L870 453 L971 453 L971 92 L870 92 L870 222 L186 222 L328 89 L256 17 L1 272 L1 273 L256 528 L328 456 Z " />
<glyph glyph-name="arrowrightfrombar" unicode="&#x21a6;" horiz-adv-x="1022" d="M694 89 L837 222 L152 222 L152 92 L51 92 L51 453 L152 453 L152 323 L836 323 L694 456 L766 528 L1021 273 L1021 272 L766 17 L694 89 Z " />
<glyph glyph-name="arrowupfrombar" unicode="&#x21a5;" horiz-adv-x="513" d="M425 430 L292 573 L292 -112 L422 -112 L422 -213 L61 -213 L61 -112 L191 -112 L191 572 L58 430 L-14 502 L241 757 L242 757 L497 502 L425 430 Z " />
<glyph glyph-name="arrowdownfrombar" unicode="&#x21a7;" horiz-adv-x="513" d="M73 114 L206 -29 L206 656 L76 656 L76 757 L437 757 L437 656 L307 656 L307 -28 L440 114 L512 42 L257 -213 L256 -213 L1 42 L73 114 Z " />
<glyph glyph-name="arrowdblleft" unicode="&#x21d0;" horiz-adv-x="1122" d="M429 557 L296 424 L1071 424 L1071 323 L194 323 L144 273 L144 272 L194 222 L1071 222 L1071 121 L296 121 L429 -12 L357 -84 L1 272 L1 273 L357 629 L429 557 Z " />
<glyph glyph-name="arrowdblright" unicode="&#x21d2;" horiz-adv-x="1122" d="M693 -12 L826 121 L51 121 L51 222 L928 222 L978 272 L978 273 L928 323 L51 323 L51 424 L826 424 L693 557 L765 629 L1121 273 L1121 272 L765 -84 L693 -12 Z " />
<glyph glyph-name="arrowdblboth" unicode="&#x21d4;" horiz-adv-x="1441" d="M429 557 L296 424 L1145 424 L1012 557 L1084 629 L1440 273 L1440 272 L1084 -84 L1012 -12 L1145 121 L296 121 L429 -12 L357 -84 L1 272 L1 273 L357 629 L429 557 Z M1247 222 L1297 272 L1297 273 L1247 323 L194 323 L144 273 L144 272 L194 222 L1247 222 Z " />
<glyph glyph-name="dblarrowleftrightstroke" unicode="&#x21ce;" horiz-adv-x="1441" d="M471 -144 L595 121 L296 121 L429 -12 L357 -84 L1 272 L1 273 L357 629 L429 557 L296 424 L736 424 L880 732 L972 689 L848 424 L1145 424 L1012 557 L1084 629 L1440 273 L1440 272 L1084 -84 L1012 -12 L1145 121 L707 121 L563 -187 L471 -144 Z M194 323 L144 273 L144 272 L194 222 L642 222 L689 323 L194 323 Z M1247 222 L1297 272 L1297 273 L1247 323 L801 323 L754 222 L1247 222 Z " />
<glyph glyph-name="dblarrowleftstroke" unicode="&#x21cd;" horiz-adv-x="1122" d="M520 -144 L644 121 L296 121 L429 -12 L357 -84 L1 272 L1 273 L357 629 L429 557 L296 424 L785 424 L929 732 L1021 689 L897 424 L1071 424 L1071 323 L850 323 L803 222 L1071 222 L1071 121 L756 121 L612 -187 L520 -144 Z M194 323 L144 273 L144 272 L194 222 L691 222 L738 323 L194 323 Z " />
<glyph glyph-name="dblarrowrightstroke" unicode="&#x21cf;" horiz-adv-x="1122" d="M101 -144 L225 121 L51 121 L51 222 L272 222 L319 323 L51 323 L51 424 L366 424 L510 732 L602 689 L478 424 L826 424 L693 557 L765 629 L1121 273 L1121 272 L765 -84 L693 -12 L826 121 L337 121 L193 -187 L101 -144 Z M928 222 L978 272 L978 273 L928 323 L431 323 L384 222 L928 222 Z " />
<glyph glyph-name="currency" unicode="&#xa4;" horiz-adv-x="691" d="M592 90 L449 -23 L377 74 Q356 67 333.5 63 Q311 59 288 59 Q265 59 244.5 62.5 Q224 66 207 73 L84 -23 L1 90 L124 187 Q122 206 124 227.5 Q126 249 132 272 Q138 295 147.5 316.5 Q157 338 169 358 L99 454 L243 567 L313 471 Q334 478 356.5 481.5 Q379 485 402 485 Q425 485 445.5 481 Q466 477 483 470 L606 567 L690 454 L566 356 Q568 337 566 316 Q564 295 558 272 Q552 249 542.5 228 Q533 207 521 188 L592 90 Z M406 272 Q413 300 401 316.5 Q389 333 361 333 Q333 333 312 316.5 Q291 300 284 272 Q276 244 288.5 227.5 Q301 211 329 211 Q356 211 377 227.5 Q398 244 406 272 Z " />
<glyph glyph-name="underscore" unicode="&#x5f;" horiz-adv-x="570" d="M485 -64 L442 -224 L-138 -224 L-95 -64 L485 -64 Z " />
<glyph glyph-name="hyphen" unicode="&#x2d;" horiz-adv-x="480" d="M462 353 L419 193 L19 193 L62 353 L462 353 Z " />
<glyph glyph-name="hyphensoft" unicode="&#xad;" horiz-adv-x="480" d="M462 353 L419 193 L19 193 L62 353 L462 353 Z " />
<glyph glyph-name="endash" unicode="&#x2013;" horiz-adv-x="700" d="M662 353 L619 193 L39 193 L82 353 L662 353 Z " />
<glyph glyph-name="emdash" unicode="&#x2014;" horiz-adv-x="870" d="M832 353 L789 193 L39 193 L82 353 L832 353 Z " />
<glyph glyph-name="parenleft" unicode="&#x28;" horiz-adv-x="393" d="M273 312 Q243 198 242 81.5 Q241 -35 269 -165 L123 -247 Q60 -133 47.5 19 Q35 171 76 345 Q105 470 189.5 598 Q274 726 394 823 L513 728 Q423 632 362.5 527 Q302 422 273 312 Z " />
<glyph glyph-name="bracketleft" unicode="&#x5b;" horiz-adv-x="379" d="M466 635 L357 635 L169 -68 L278 -68 L236 -224 L-73 -224 L199 791 L508 791 L466 635 Z " />
<glyph glyph-name="braceleft" unicode="&#x7b;" horiz-adv-x="383" d="M32 51 Q57 87 66.5 104.5 Q76 122 79 136 Q87 162 74.5 185 Q62 208 33 217 L69 349 Q103 358 127 381 Q151 404 158 430 Q162 444 162 461.5 Q162 479 157 515 Q151 554 151 573.5 Q151 593 155 610 Q183 713 273.5 761.5 Q364 810 501 795 L462 649 Q410 654 386 640.5 Q362 627 352 591 Q348 574 347.5 554.5 Q347 535 351 497 Q355 458 354.5 438 Q354 418 349 400 Q339 363 316 338 Q293 313 241 283 Q277 253 286.5 228 Q296 203 286 166 Q282 148 272 128 Q262 108 236 69 Q211 31 201.5 11.5 Q192 -8 187 -25 Q178 -61 194.5 -74.5 Q211 -88 266 -83 L227 -229 Q81 -244 17 -195.5 Q-47 -147 -20 -44 Q-15 -27 -4.5 -7 Q6 13 32 51 Z " />
<glyph glyph-name="parenright" unicode="&#x29;" horiz-adv-x="393" d="M136 255 Q166 369 167 485.5 Q168 602 140 732 L286 814 Q349 700 361.5 548 Q374 396 333 222 Q304 97 219.5 -31 Q135 -159 15 -256 L-104 -161 Q-14 -65 46.5 40 Q107 145 136 255 Z " />
<glyph glyph-name="bracketright" unicode="&#x5d;" horiz-adv-x="379" d="M216 635 L107 635 L149 791 L458 791 L186 -224 L-123 -224 L-81 -68 L28 -68 L216 635 Z " />
<glyph glyph-name="braceright" unicode="&#x7d;" horiz-adv-x="383" d="M358 516 Q333 480 323.5 462.5 Q314 445 310 431 Q303 405 315.5 382 Q328 359 357 350 L321 218 Q287 209 263 186 Q239 163 232 137 Q228 123 228 105.5 Q228 88 233 52 Q239 14 239 -6 Q239 -26 234 -43 Q207 -145 117 -194 Q27 -243 -111 -228 L-72 -82 Q-21 -87 3.5 -73.5 Q28 -60 38 -24 Q42 -7 42.5 12.5 Q43 32 39 70 Q35 109 35.5 129 Q36 149 41 167 Q51 204 73.5 228.5 Q96 253 149 284 Q113 315 103.5 339.5 Q94 364 103 401 Q108 419 118 439 Q128 459 154 498 Q179 536 188.5 555.5 Q198 575 203 592 Q212 628 195 641.5 Q178 655 124 650 L163 796 Q309 811 373 762 Q437 713 410 611 Q405 594 394.5 574 Q384 554 358 516 Z " />
<glyph glyph-name="guilsinglleft" unicode="&#x2039;" horiz-adv-x="414" d="M340 120 L216 0 L16 204 L52 341 L362 545 L432 406 L216 254 L340 120 Z " />
<glyph glyph-name="guillemotleft" unicode="&#xab;" horiz-adv-x="768" d="M340 120 L216 0 L16 204 L52 341 L362 545 L432 406 L216 254 L340 120 Z M694 120 L570 0 L370 204 L406 341 L716 545 L786 406 L570 254 L694 120 Z " />
<glyph glyph-name="guilsinglright" unicode="&#x203a;" horiz-adv-x="414" d="M78 423 L202 545 L402 341 L366 204 L56 0 L-14 139 L202 289 L78 423 Z " />
<glyph glyph-name="guillemotright" unicode="&#xbb;" horiz-adv-x="763" d="M425 425 L549 545 L749 341 L713 204 L403 0 L333 139 L549 291 L425 425 Z M71 425 L195 545 L395 341 L359 204 L49 0 L-21 139 L195 291 L71 425 Z " />
<glyph glyph-name="quoteleft" unicode="&#x2018;" horiz-adv-x="367" d="M311 444 L118 754 L290 786 L433 481 L311 444 Z " />
<glyph glyph-name="quotedblleft" unicode="&#x201c;" horiz-adv-x="592" d="M304 444 L111 754 L283 786 L426 481 L304 444 Z M546 444 L353 754 L525 786 L668 481 L546 444 Z " />
<glyph glyph-name="quoteright" unicode="&#x2019;" horiz-adv-x="292" d="M378 754 L185 444 L63 481 L206 786 L378 754 Z " />
<glyph glyph-name="quotesingle" unicode="&#x27;" horiz-adv-x="292" d="M379 754 L186 444 L64 481 L207 786 L379 754 Z " />
<glyph glyph-name="quotedbl" unicode="&#x22;" horiz-adv-x="523" d="M391 754 L198 444 L76 481 L219 786 L391 754 Z M622 754 L429 444 L307 481 L450 786 L622 754 Z " />
<glyph glyph-name="quotedblright" unicode="&#x201d;" horiz-adv-x="534" d="M378 754 L185 444 L63 481 L206 786 L378 754 Z M620 754 L427 444 L305 481 L448 786 L620 754 Z " />
<glyph glyph-name="quotesinglbase" unicode="&#x201a;" horiz-adv-x="308" d="M240 76 L-6 -205 L-111 -141 L88 145 L240 76 Z " />
<glyph glyph-name="quotedblbase" unicode="&#x201e;" horiz-adv-x="601" d="M240 76 L-6 -205 L-111 -141 L88 145 L240 76 Z M533 76 L287 -205 L182 -141 L381 145 L533 76 Z " />
<glyph glyph-name="period" unicode="&#x2e;" horiz-adv-x="324" d="M238 104 Q224 54 180.5 20.5 Q137 -13 86 -13 Q33 -13 6.5 20.5 Q-20 54 -6 104 Q7 154 51.5 187 Q96 220 148 220 Q199 220 225 187 Q251 154 238 104 Z " />
<glyph glyph-name="ellipsis" unicode="&#x2026;" horiz-adv-x="976" d="M890 104 Q876 54 832.5 20.5 Q789 -13 738 -13 Q685 -13 658.5 20.5 Q632 54 646 104 Q659 154 703.5 187 Q748 220 800 220 Q851 220 877 187 Q903 154 890 104 Z M564 104 Q550 54 506.5 20.5 Q463 -13 412 -13 Q359 -13 332.5 20.5 Q306 54 320 104 Q333 154 377.5 187 Q422 220 474 220 Q525 220 551 187 Q577 154 564 104 Z M238 104 Q224 54 180.5 20.5 Q137 -13 86 -13 Q33 -13 6.5 20.5 Q-20 54 -6 104 Q7 154 51.5 187 Q96 220 148 220 Q199 220 225 187 Q251 154 238 104 Z " />
<glyph glyph-name="middot" unicode="&#xb7;" horiz-adv-x="324" d="M288 309 Q274 259 230.5 225.5 Q187 192 136 192 Q83 192 56.5 225.5 Q30 259 44 309 Q57 359 101.5 392 Q146 425 198 425 Q249 425 275 392 Q301 359 288 309 Z " />
<glyph glyph-name="bullet" unicode="&#x2022;" horiz-adv-x="426" d="M261 446 Q333 446 369.5 395.5 Q406 345 387 273 Q368 201 304 150.5 Q240 100 168 100 Q96 100 59 150.5 Q22 201 41 273 Q60 345 124.5 395.5 Q189 446 261 446 Z " />
<glyph glyph-name="comma" unicode="&#x2c;" horiz-adv-x="308" d="M240 76 L-6 -205 L-111 -141 L88 145 L240 76 Z " />
<glyph glyph-name="colon" unicode="&#x3a;" horiz-adv-x="324" d="M328 440 Q314 390 270.5 356.5 Q227 323 176 323 Q123 323 96.5 356.5 Q70 390 84 440 Q97 490 141.5 523 Q186 556 238 556 Q289 556 315 523 Q341 490 328 440 Z M238 104 Q224 54 180.5 20.5 Q137 -13 86 -13 Q33 -13 6.5 20.5 Q-20 54 -6 104 Q7 154 51.5 187 Q96 220 148 220 Q199 220 225 187 Q251 154 238 104 Z " />
<glyph glyph-name="semicolon" unicode="&#x3b;" horiz-adv-x="343" d="M352 467 Q338 417 294.5 383.5 Q251 350 200 350 Q147 350 120.5 383.5 Q94 417 108 467 Q121 517 165.5 550 Q210 583 262 583 Q313 583 339 550 Q365 517 352 467 Z M230 76 L-16 -205 L-121 -141 L78 145 L230 76 Z " />
<glyph glyph-name="question" unicode="&#x3f;" horiz-adv-x="537" d="M582 591 Q572 552 545 517.5 Q518 483 447 428 Q380 376 355 345 Q330 314 321 279 L138 279 Q151 332 185.5 377.5 Q220 423 303 485 Q344 516 357.5 530 Q371 544 374 556 Q381 584 364 597 Q347 610 303 610 Q261 610 215 596.5 Q169 583 116 555 L162 728 Q210 749 270 762 Q330 775 381 775 Q495 775 550.5 725 Q606 675 582 591 Z M312 104 Q298 54 254.5 20.5 Q211 -13 160 -13 Q107 -13 80.5 20.5 Q54 54 68 104 Q81 154 125.5 187 Q170 220 222 220 Q273 220 299 187 Q325 154 312 104 Z " />
<glyph glyph-name="questiondown" unicode="&#xbf;" horiz-adv-x="537" d="M225 437 Q239 487 282.5 520.5 Q326 554 377 554 Q430 554 456.5 520.5 Q483 487 469 437 Q456 387 411.5 354 Q367 321 315 321 Q264 321 238 354 Q212 387 225 437 Z M-45 -50 Q-35 -11 -8 23.5 Q19 58 90 113 Q157 165 182 196 Q207 227 216 262 L399 262 Q386 209 351.5 163.5 Q317 118 234 56 Q193 25 179.5 11 Q166 -3 163 -15 Q156 -43 173 -56 Q190 -69 234 -69 Q276 -69 322 -55.5 Q368 -42 421 -14 L375 -187 Q327 -208 267 -221 Q207 -234 156 -234 Q42 -234 -13.5 -184 Q-69 -134 -45 -50 Z " />
<glyph glyph-name="exclam" unicode="&#x21;" horiz-adv-x="324" d="M127 474 Q154 590 169 650.5 Q184 711 197 763 L408 763 Q396 716 380 661 Q364 606 332 500 Q303 403 290 358.5 Q277 314 268 279 L80 279 Q88 310 97.5 349.5 Q107 389 127 474 Z M256 104 Q242 54 198.5 20.5 Q155 -13 104 -13 Q51 -13 24.5 20.5 Q-2 54 12 104 Q25 154 69.5 187 Q114 220 166 220 Q217 220 243 187 Q269 154 256 104 Z " />
<glyph glyph-name="exclamdown" unicode="&#xa1;" horiz-adv-x="324" d="M73 435 Q87 485 130.5 518.5 Q174 552 225 552 Q278 552 304.5 518.5 Q331 485 317 435 Q304 385 259.5 352 Q215 319 163 319 Q112 319 86 352 Q60 385 73 435 Z M202 65 Q175 -51 160 -111.5 Q145 -172 132 -224 L-79 -224 Q-67 -177 -51 -122 Q-35 -67 -3 39 Q26 136 39 180.5 Q52 225 61 260 L249 260 Q241 229 231.5 189.5 Q222 150 202 65 Z " />
<glyph glyph-name="slash" unicode="&#x2f;" horiz-adv-x="529" d="M479 870 L679 870 L116 -78 L-84 -78 L479 870 Z " />
<glyph glyph-name="backslash" unicode="&#x5c;" horiz-adv-x="529" d="M127 870 L309 870 L457 -78 L275 -78 L127 870 Z " />
<glyph glyph-name="bar" unicode="&#x7c;" horiz-adv-x="360" d="M-53 -224 L219 791 L419 791 L147 -224 L-53 -224 Z " />
<glyph glyph-name="brokenbar" unicode="&#xa6;" horiz-adv-x="360" d="M112 390 L219 791 L419 791 L312 390 L112 390 Z M-53 -224 L55 181 L255 181 L147 -224 L-53 -224 Z " />
<glyph glyph-name="copyright" unicode="&#xa9;" horiz-adv-x="838" d="M449 773 Q614 773 721 662 Q828 551 828 381 Q828 211 721 100.5 Q614 -10 449 -10 Q284 -10 177 100.5 Q70 211 70 381 Q70 551 177 662 Q284 773 449 773 Z M449 676 Q326 676 246 592.5 Q166 509 166 381 Q166 253 246 169.5 Q326 86 449 86 Q572 86 652 169.5 Q732 253 732 381 Q732 509 652 592.5 Q572 676 449 676 Z M577 188 Q545 175 514 169 Q483 163 452 163 Q357 163 301 224 Q245 285 245 384 Q245 483 299 539 Q353 595 452 595 Q489 595 518 589 Q547 583 575 570 L575 437 Q556 447 533 452.5 Q510 458 483 458 Q445 458 425.5 439 Q406 420 406 384 Q406 344 425 324.5 Q444 305 483 305 Q511 305 534 310.5 Q557 316 577 327 L577 188 Z " />
<glyph glyph-name="soundcopyright" unicode="&#x2117;" horiz-adv-x="838" d="M449 773 Q614 773 721 662 Q828 551 828 381 Q828 211 721 100.5 Q614 -10 449 -10 Q284 -10 177 100.5 Q70 211 70 381 Q70 551 177 662 Q284 773 449 773 Z M449 676 Q326 676 246 592.5 Q166 509 166 381 Q166 253 246 169.5 Q326 86 449 86 Q572 86 652 169.5 Q732 253 732 381 Q732 509 652 592.5 Q572 676 449 676 Z M451 273 L451 158 L290 158 L290 591 L477 591 Q569 591 621 551 Q673 511 673 438 Q673 359 619.5 316 Q566 273 470 273 L451 273 Z M481 472 L451 472 L451 392 L481 392 Q494 392 504.5 403.5 Q515 415 515 432 Q515 451 506 461.5 Q497 472 481 472 Z " />
<glyph glyph-name="registered" unicode="&#xae;" horiz-adv-x="721" d="M422 826 Q562 826 652.5 733 Q743 640 743 496 Q743 353 652.5 260 Q562 167 422 167 Q283 167 192.5 260 Q102 353 102 496 Q102 640 192.5 733 Q283 826 422 826 Z M422 733 Q324 733 259.5 666 Q195 599 195 496 Q195 394 259.5 327 Q324 260 422 260 Q521 260 585.5 327 Q650 394 650 496 Q650 599 585.5 666 Q521 733 422 733 Z M408 442 L408 349 L303 349 L303 653 L425 653 Q490 653 523.5 627.5 Q557 602 557 553 Q557 527 547 505 Q537 483 519 470 L573 349 L456 349 L424 442 L408 442 Z M425 574 L408 574 L408 522 L420 522 Q436 522 443.5 528.5 Q451 535 451 549 Q451 561 444 567.5 Q437 574 425 574 Z " />
<glyph glyph-name="trademark" unicode="&#x2122;" horiz-adv-x="1179" d="M433 619 L340 273 L158 273 L251 619 L122 619 L161 763 L600 763 L562 619 L433 619 Z M705 351 L685 273 L504 273 L686 763 L847 763 L864 561 Q865 536 866 506.5 Q867 477 866 446 L870 446 Q874 452 878 460 Q882 468 891 486 Q905 517 913.5 532 Q922 547 929 560 L1050 763 L1227 763 L1150 273 L969 273 L990 351 Q999 387 1007.5 421 Q1016 455 1023 487 L1018 487 Q1001 456 982 421.5 Q963 387 942 349 L901 273 L750 273 L748 351 Q747 388 744.5 421.5 Q742 455 740 485 L735 485 Q729 453 721.5 419.5 Q714 386 705 351 Z " />
<glyph glyph-name="paragraph" unicode="&#xb6;" horiz-adv-x="854" d="M616 763 L391 -78 L191 -78 L285 273 Q183 273 132 350 Q81 427 111 540 Q139 648 218 705.5 Q297 763 416 763 L616 763 Z M706 763 L906 763 L681 -78 L481 -78 L706 763 Z " />
<glyph glyph-name="section" unicode="&#xa7;" horiz-adv-x="724" d="M563 9 Q531 -111 433.5 -173 Q336 -235 179 -235 Q116 -235 64.5 -226 Q13 -217 -36 -198 L14 -12 Q55 -40 110.5 -55 Q166 -70 226 -70 Q275 -70 302.5 -55 Q330 -40 338 -10 Q344 10 326 26 Q308 42 238 69 Q174 94 143.5 110.5 Q113 127 93 147 Q62 176 53.5 214.5 Q45 253 57 300 Q69 342 95.5 377.5 Q122 413 167 444 Q157 465 156.5 490.5 Q156 516 163 545 Q192 653 287 713 Q382 773 524 773 Q582 773 635 761.5 Q688 750 723 729 L671 533 Q641 566 588 585.5 Q535 605 476 605 Q434 605 411 593.5 Q388 582 382 558 Q376 536 395 518.5 Q414 501 489 471 Q551 446 580 430.5 Q609 415 628 397 Q661 369 671 333.5 Q681 298 669 254 Q657 212 631 176 Q605 140 556 104 Q567 84 569 60 Q571 36 563 9 Z M376 218 Q392 212 405.5 207 Q419 202 430 197 Q439 206 446 218 Q453 230 457 245 Q462 264 443.5 280 Q425 296 352 322 Q333 329 317.5 335 Q302 341 289 346 Q280 339 273.5 328.5 Q267 318 263 303 Q258 282 278 264.5 Q298 247 376 218 Z " />
<glyph glyph-name="numero" unicode="&#x2116;" horiz-adv-x="1247" d="M1283 607 Q1261 524 1199 480 Q1137 436 1043 437 Q959 439 919.5 494 Q880 549 903 634 Q924 715 985 757 Q1046 799 1140 798 Q1223 796 1264 742.5 Q1305 689 1283 607 Z M299 315 L215 0 L7 0 L211 763 L411 763 L506 452 Q516 420 524.5 389 Q533 358 541 329 L545 330 Q551 361 557.5 391 Q564 421 572 451 L655 763 L863 763 L659 0 L459 0 L365 314 Q356 346 347.5 376.5 Q339 407 331 437 L326 436 Q321 406 314 375.5 Q307 345 299 315 Z M1141 616 Q1153 658 1146 678.5 Q1139 699 1114 700 Q1089 700 1071.5 680 Q1054 660 1042 618 Q1031 575 1037.5 555 Q1044 535 1069 534 Q1094 534 1112 554.5 Q1130 575 1141 616 Z M1211 392 L1179 274 L819 274 L851 392 L1211 392 Z " />
<glyph glyph-name="at" unicode="&#x40;" horiz-adv-x="849" d="M375 -82 Q424 -82 480 -72.5 Q536 -63 567 -48 L526 -200 Q496 -215 445.5 -224 Q395 -233 338 -233 Q252 -233 183.5 -198 Q115 -163 73 -98 Q34 -37 25 41 Q16 119 39 204 Q86 375 208.5 465.5 Q331 556 520 556 Q686 556 752.5 474.5 Q819 393 777 238 L713 0 L558 0 L552 52 L548 53 Q504 18 466.5 3.5 Q429 -11 387 -11 Q320 -11 284 46 Q248 103 268 173 Q292 256 362.5 293 Q433 330 567 330 L602 330 Q604 334 606 340 Q608 346 608 347 Q615 372 581 387.5 Q547 403 485 403 Q382 403 305 346.5 Q228 290 202 201 Q168 82 216.5 0 Q265 -82 375 -82 Z M550 216 Q508 216 486.5 205.5 Q465 195 460 170 Q456 152 465.5 140 Q475 128 493 128 Q516 128 540 138 Q564 148 576 163 L590 216 L550 216 Z " />
<glyph glyph-name="estimated" unicode="&#x212e;" horiz-adv-x="771" d="M667 203 L673 203 L673 126 Q628 61 557 25.5 Q486 -10 402 -10 Q256 -10 158 85 Q60 180 60 326 Q60 466 151.5 558 Q243 650 386 650 Q529 650 620 555 Q711 460 711 316 Q711 305 710.5 295 Q710 285 708 274 L186 274 L186 141 Q224 95 281 70 Q338 45 403 45 Q485 45 558.5 89.5 Q632 134 667 203 Z M577 519 Q540 557 491.5 576.5 Q443 596 386 596 Q325 596 273.5 573.5 Q222 551 186 509 L186 326 L577 326 L577 519 Z " />
<glyph glyph-name="dagger" unicode="&#x2020;" horiz-adv-x="560" d="M572 430 L405 443 L307 0 L107 0 L245 443 L72 430 L121 612 L284 603 L311 763 L511 763 L452 603 L453 603 L621 612 L572 430 Z " />
<glyph glyph-name="daggerdbl" unicode="&#x2021;" horiz-adv-x="560" d="M334 160 L334 160 L307 0 L107 0 L165 160 L-4 147 L45 329 L204 320 L212 392 L235 443 L72 430 L121 612 L284 603 L311 763 L511 763 L452 603 L453 603 L621 612 L572 430 L416 443 L416 443 L411 392 L381 320 L545 329 L496 147 L334 160 Z " />
<glyph glyph-name="asterisk" unicode="&#x2a;" horiz-adv-x="594" d="M492 506 L554 392 L389 302 L344 407 L247 302 L123 409 L234 505 L117 540 L214 711 L325 664 L341 791 L523 791 L484 667 L616 711 L624 545 L492 506 Z " />
<glyph glyph-name="asterism" unicode="&#x2042;" horiz-adv-x="1224" d="M786 506 L848 392 L683 302 L638 407 L541 302 L417 409 L528 505 L411 540 L508 711 L619 664 L635 791 L817 791 L778 667 L910 711 L918 545 L786 506 Z M356 -20 L418 -134 L253 -224 L208 -119 L111 -224 L-13 -117 L98 -21 L-19 14 L78 185 L189 138 L205 265 L387 265 L348 141 L480 185 L488 19 L356 -20 Z M986 -20 L1048 -134 L883 -224 L838 -119 L741 -224 L617 -117 L728 -21 L611 14 L708 185 L819 138 L835 265 L1017 265 L978 141 L1110 185 L1118 19 L986 -20 Z " />
<glyph glyph-name="degree" unicode="&#xb0;" horiz-adv-x="482" d="M137 589 Q159 675 221 724.5 Q283 774 371 774 Q453 774 495.5 716.5 Q538 659 515 576 Q493 493 428 442.5 Q363 392 280 392 Q198 392 157 448.5 Q116 505 137 589 Z M414 576 Q426 620 407.5 647 Q389 674 346 674 Q308 674 278.5 650.5 Q249 627 239 589 Q228 546 246 519.5 Q264 493 305 493 Q342 493 373 516.5 Q404 540 414 576 Z " />
<glyph glyph-name="largecircle" unicode="&#x25ef;" horiz-adv-x="646" d="M47 304 Q78 421 169.5 489 Q261 557 387 555 Q511 553 573 463 Q635 373 600 245 Q568 129 474 59 Q380 -11 259 -9 Q134 -7 73 83 Q12 173 47 304 Z M409 259 Q421 303 404 332 Q387 361 348 364 Q309 367 278.5 344.5 Q248 322 237 285 Q225 243 243 214 Q261 185 299 183 Q338 181 369 203 Q400 225 409 259 Z " />
<glyph glyph-name="A.small" unicode="&#xe000;" horiz-adv-x="636" d="M203 81 L162 0 L-53 0 L288 545 L493 545 L543 0 L338 0 L341 81 L203 81 Z M348 389 Q344 375 327.5 337 Q311 299 296 273 L270 228 L352 228 L351 272 Q350 308 351 343.5 Q352 379 355 389 L348 389 Z " />
<glyph glyph-name="B.small" unicode="&#xe00d;" horiz-adv-x="610" d="M429 545 Q511 545 550.5 501 Q590 457 569 389 Q558 354 523.5 324.5 Q489 295 444 283 L444 282 Q496 272 519.5 232 Q543 192 527 137 Q507 68 439 34 Q371 0 253 0 L10 0 L156 545 L429 545 Z M295 340 L330 340 Q348 340 358.5 347.5 Q369 355 373 371 Q378 387 371 394.5 Q364 402 345 402 L312 402 L295 340 Z M242 143 L299 143 Q315 143 327.5 151.5 Q340 160 344 174 Q348 190 340.5 198.5 Q333 207 314 207 L259 207 L242 143 Z " />
<glyph glyph-name="C.small" unicode="&#xe00e;" horiz-adv-x="544" d="M244 289 Q227 228 243 197.5 Q259 167 308 167 Q347 167 391.5 179.5 Q436 192 474 213 L426 35 Q383 14 334.5 3.5 Q286 -7 229 -7 Q112 -7 59.5 78 Q7 163 40 288 Q73 416 164 484 Q255 552 396 552 Q443 552 476.5 546 Q510 540 540 526 L490 346 Q465 363 436.5 371 Q408 379 368 379 Q316 379 287 358 Q258 337 244 289 Z " />
<glyph glyph-name="D.small" unicode="&#xe014;" horiz-adv-x="641" d="M597 250 Q567 130 474.5 65 Q382 0 240 0 L9 0 L155 545 L364 545 Q508 545 569.5 466 Q631 387 597 250 Z M328 385 L316 385 L256 160 L280 160 Q326 160 354.5 184.5 Q383 209 396 260 Q412 324 395.5 354.5 Q379 385 328 385 Z " />
<glyph glyph-name="E.small" unicode="&#xe017;" horiz-adv-x="557" d="M465 147 L426 0 L6 0 L152 545 L558 545 L519 398 L317 398 L301 338 L484 338 L448 205 L265 205 L249 147 L465 147 Z " />
<glyph glyph-name="F.small" unicode="&#xe027;" horiz-adv-x="538" d="M138 545 L545 545 L506 398 L303 398 L287 338 L471 338 L435 205 L251 205 L196 0 L-8 0 L138 545 Z " />
<glyph glyph-name="G.small" unicode="&#xe028;" horiz-adv-x="642" d="M376 297 L581 297 L512 39 Q455 15 401 4 Q347 -7 281 -7 Q153 -7 89 82 Q25 171 61 305 Q94 427 193 489.5 Q292 552 454 552 Q503 552 543 548 Q583 544 628 534 L579 366 Q554 381 522 387.5 Q490 394 429 394 Q356 394 316.5 367.5 Q277 341 259 280 Q240 215 256.5 183 Q273 151 325 151 L336 151 L376 297 Z " />
<glyph glyph-name="H.small" unicode="&#xe02d;" horiz-adv-x="678" d="M263 193 L211 0 L7 0 L153 545 L357 545 L306 353 L416 353 L467 545 L671 545 L525 0 L321 0 L373 193 L263 193 Z " />
<glyph glyph-name="I.small" unicode="&#xe030;" horiz-adv-x="490" d="M396 147 L357 0 L-13 0 L26 147 L109 147 L177 398 L94 398 L133 545 L503 545 L464 398 L382 398 L314 147 L396 147 Z " />
<glyph glyph-name="J.small" unicode="&#xe03b;" horiz-adv-x="517" d="M453 217 Q422 103 352 48 Q282 -7 167 -7 Q121 -7 72.5 1 Q24 9 4 21 L52 201 Q78 186 107 178.5 Q136 171 168 171 Q202 171 224 189 Q246 207 256 244 L297 398 L122 398 L161 545 L541 545 L453 217 Z " />
<glyph glyph-name="K.small" unicode="&#xe03d;" horiz-adv-x="626" d="M250 181 L202 0 L-3 0 L143 545 L348 545 L298 360 Q323 360 334 369 Q345 378 362 403 Q370 414 380 431 Q390 448 405 474 Q413 486 422.5 502.5 Q432 519 447 545 L682 545 L542 367 Q513 330 492.5 310.5 Q472 291 454 283 L453 279 Q464 270 473.5 249 Q483 228 494 184 L543 0 L319 0 Q316 23 314 40 Q312 57 310 71 Q307 96 304 113 Q301 130 298 142 Q292 164 284.5 172.5 Q277 181 250 181 Z " />
<glyph glyph-name="L.small" unicode="&#xe03f;" horiz-adv-x="526" d="M463 160 L420 0 L4 0 L150 545 L354 545 L251 160 L463 160 Z " />
<glyph glyph-name="M.small" unicode="&#xe045;" horiz-adv-x="848" d="M222 87 L200 0 L-1 0 L201 545 L380 545 L399 320 Q401 293 402 260 Q403 227 402 192 L406 192 Q410 199 414.5 208 Q419 217 429 237 Q445 271 454.5 288 Q464 305 472 319 L606 545 L803 545 L717 0 L516 0 L539 87 Q550 127 559 164.5 Q568 202 576 238 L571 238 Q552 204 530.5 165.5 Q509 127 486 84 L441 0 L273 0 L270 87 Q269 128 266.5 165.5 Q264 203 261 236 L256 236 Q249 200 240.5 163 Q232 126 222 87 Z " />
<glyph glyph-name="N.small" unicode="&#xe046;" horiz-adv-x="678" d="M246 174 L200 0 L7 0 L153 545 L330 545 L383 384 Q394 351 401.5 324.5 Q409 298 413 278 L417 279 Q418 300 422.5 325.5 Q427 351 435 380 L479 545 L671 545 L525 0 L349 0 L297 170 Q288 199 281 225.5 Q274 252 268 275 L264 273 Q262 249 257.5 224 Q253 199 246 174 Z " />
<glyph glyph-name="O.small" unicode="&#xe04b;" horiz-adv-x="667" d="M624 255 Q591 124 500.5 58 Q410 -8 266 -6 Q134 -4 71.5 80.5 Q9 165 44 291 Q81 422 170 487.5 Q259 553 399 551 Q531 549 593.5 465.5 Q656 382 624 255 Z M420 258 Q438 324 424 357 Q410 390 365 391 Q320 392 291 366 Q262 340 248 288 Q230 221 243 188 Q256 155 301 154 Q346 153 376 179.5 Q406 206 420 258 Z " />
<glyph glyph-name="P.small" unicode="&#xe057;" horiz-adv-x="593" d="M233 144 L194 0 L-9 0 L137 545 L373 545 Q485 545 537.5 482 Q590 419 559 317 Q535 237 461.5 190.5 Q388 144 284 144 L233 144 Z M331 395 L300 395 L273 294 L306 294 Q329 294 345.5 307.5 Q362 321 368 345 Q373 367 362.5 381 Q352 395 331 395 Z " />
<glyph glyph-name="Q.small" unicode="&#xe058;" horiz-adv-x="659" d="M572 26 L428 -80 L383 8 Q354 1 321.5 -2.5 Q289 -6 254 -6 Q122 -4 59.5 80.5 Q-3 165 32 291 Q69 422 158 487.5 Q247 553 387 551 Q519 549 581.5 465.5 Q644 382 612 255 Q598 201 575 158 Q552 115 519 83 L572 26 Z M408 258 Q426 324 412 357 Q398 390 353 391 Q308 392 279 366 Q250 340 236 288 Q218 221 231 188 Q244 155 289 154 Q334 153 364 179.5 Q394 206 408 258 Z " />
<glyph glyph-name="R.small" unicode="&#xe059;" horiz-adv-x="613" d="M222 157 L180 0 L-23 0 L123 545 L356 544 Q472 543 524.5 490.5 Q577 438 553 347 Q541 301 511.5 265.5 Q482 230 439 208 L490 0 L275 0 L268 159 Q258 158 246 157.5 Q234 157 226 157 L222 157 Z M321 395 L286 395 L262 306 L297 306 Q318 306 334 318 Q350 330 356 350 Q361 371 351.5 383 Q342 395 321 395 Z " />
<glyph glyph-name="S.small" unicode="&#xe05d;" horiz-adv-x="549" d="M470 132 Q453 65 382 29 Q311 -7 194 -7 Q121 -7 76 -1 Q31 5 -10 18 L35 187 Q70 166 113.5 155.5 Q157 145 212 145 Q242 145 255.5 150.5 Q269 156 272 170 Q274 180 264.5 188 Q255 196 216 210 Q167 227 144 241.5 Q121 256 107 274 Q89 298 85 329 Q81 360 91 399 Q109 472 180.5 512 Q252 552 367 552 Q424 552 471 543 Q518 534 548 516 L504 353 Q476 374 431.5 386 Q387 398 337 398 Q310 398 299 394 Q288 390 284 378 Q280 366 290.5 355 Q301 344 344 325 Q391 303 413.5 287.5 Q436 272 450 255 Q469 230 474 199.5 Q479 169 470 132 Z " />
<glyph glyph-name="T.small" unicode="&#xe065;" horiz-adv-x="489" d="M376 385 L273 0 L70 0 L173 385 L30 385 L73 545 L562 545 L519 385 L376 385 Z " />
<glyph glyph-name="U.small" unicode="&#xe06a;" horiz-adv-x="678" d="M585 268 Q543 110 476 51.5 Q409 -7 269 -7 Q137 -7 84.5 64.5 Q32 136 67 268 L141 545 L345 545 L267 255 Q254 204 262.5 185.5 Q271 167 300 167 Q327 167 345.5 185.5 Q364 204 377 255 L455 545 L659 545 L585 268 Z " />
<glyph glyph-name="V.small" unicode="&#xe075;" horiz-adv-x="636" d="M689 545 L345 0 L145 0 L93 545 L299 545 L297 213 L301 213 L475 545 L689 545 Z " />
<glyph glyph-name="W.small" unicode="&#xe076;" horiz-adv-x="856" d="M374 177 L276 0 L79 0 L113 545 L311 545 L289 410 Q278 346 271.5 308.5 Q265 271 263 261 L268 261 Q274 272 280.5 285.5 Q287 299 300 327 Q316 361 324.5 378.5 Q333 396 341 410 L417 545 L581 545 L586 408 Q587 377 587.5 347.5 Q588 318 588 259 L593 259 Q600 287 613 328.5 Q626 370 638 407 L686 545 L889 545 L634 0 L444 0 L438 175 Q436 222 436 250.5 Q436 279 438 307 L434 307 Q406 240 396 219.5 Q386 199 374 177 Z " />
<glyph glyph-name="X.small" unicode="&#xe07b;" horiz-adv-x="618" d="M263 132 L155 0 L-63 0 L206 300 L93 545 L312 545 L359 419 L363 419 L461 545 L679 545 L412 262 L535 0 L317 0 L265 132 L263 132 Z " />
<glyph glyph-name="Y.small" unicode="&#xe07c;" horiz-adv-x="589" d="M368 164 L324 0 L121 0 L165 164 L63 545 L287 545 L300 427 Q303 402 303.5 382 Q304 362 303 323 L309 323 Q312 329 315.5 335.5 Q319 342 325 354 Q338 379 346.5 394 Q355 409 364 424 L439 545 L672 545 L368 164 Z " />
<glyph glyph-name="Z.small" unicode="&#xe081;" horiz-adv-x="539" d="M459 160 L416 0 L-23 0 L14 140 L288 383 L287 385 L88 385 L131 545 L555 545 L516 399 L244 162 L245 160 L459 160 Z " />
<glyph glyph-name="acute" unicode="&#xb4;" horiz-adv-x="440" d="M525 803 L251 615 L181 707 L412 924 L525 803 Z " />
<glyph glyph-name="hungarumlaut" unicode="&#x2dd;" horiz-adv-x="582" d="M461 855 L227 618 L130 684 L312 937 L461 855 Z M703 797 L434 600 L360 688 L583 912 L703 797 Z " />
<glyph glyph-name="grave" unicode="&#x60;" horiz-adv-x="338" d="M251 925 L430 700 L329 612 L109 801 L251 925 Z " />
<glyph glyph-name="circumflex" unicode="&#x2c6;" horiz-adv-x="491" d="M383 736 L221 609 L144 698 L342 890 L477 890 L575 698 L466 609 L383 736 Z " />
<glyph glyph-name="dieresis" unicode="&#xa8;" horiz-adv-x="524" d="M298 874 Q342 874 363 845.5 Q384 817 372 774 Q361 732 324.5 703.5 Q288 675 245 675 Q201 675 179.5 703.5 Q158 732 169 774 Q181 817 217.5 845.5 Q254 874 298 874 Z M548 873 Q591 873 613 844.5 Q635 816 623 774 Q612 732 575 703.5 Q538 675 495 675 Q451 675 429.5 703.5 Q408 732 419 774 Q431 816 467.5 844.5 Q504 873 548 873 Z " />
<glyph glyph-name="overscore" unicode="&#xaf;" horiz-adv-x="422" d="M564 840 L529 708 L127 708 L162 840 L564 840 Z " />
<glyph glyph-name="breve" unicode="&#x2d8;" horiz-adv-x="466" d="M593 859 Q564 746 497.5 684.5 Q431 623 337 625 Q245 627 203 694.5 Q161 762 187 859 L313 859 Q303 815 316.5 789 Q330 763 364 763 Q399 763 426.5 789 Q454 815 467 859 L593 859 Z " />
<glyph glyph-name="dotaccent" unicode="&#x2d9;" horiz-adv-x="360" d="M427 744 Q414 694 370.5 660.5 Q327 627 277 627 Q225 627 199.5 660.5 Q174 694 187 744 Q201 794 244.5 827 Q288 860 339 860 Q390 860 415.5 827 Q441 794 427 744 Z " />
<glyph glyph-name="ring" unicode="&#x2da;" horiz-adv-x="308" d="M317 928 Q385 926 421 877 Q457 828 439 760 Q423 697 374 659 Q325 621 259 621 Q189 621 154 670 Q119 719 138 789 Q154 850 204.5 889.5 Q255 929 317 928 Z M299 823 Q277 823 261 810 Q245 797 239 775 Q233 752 243.5 738.5 Q254 725 278 725 Q298 725 315 738.5 Q332 752 337 773 Q343 796 333 809.5 Q323 823 299 823 Z " />
<glyph glyph-name="ring.cap" unicode="&#xe0ff;" horiz-adv-x="454" d="M432 1079 Q523 1077 571.5 1034 Q620 991 603 931 Q587 872 525.5 836 Q464 800 378 801 Q287 803 240 847 Q193 891 210 955 Q224 1010 286.5 1045 Q349 1080 432 1079 Z M419 989 Q383 990 358 977 Q333 964 327 941 Q321 919 339 905.5 Q357 892 393 891 Q429 890 454 903 Q479 916 485 939 Q491 961 473 974.5 Q455 988 419 989 Z " />
<glyph glyph-name="tilde" unicode="&#x2dc;" horiz-adv-x="498" d="M631 879 Q598 755 550 697.5 Q502 640 434 643 Q412 644 394.5 654 Q377 664 356 693 Q340 713 331 719 Q322 725 312 725 Q296 726 282 705.5 Q268 685 257 645 L130 645 Q161 765 211.5 825 Q262 885 327 880 Q353 878 373 867 Q393 856 416 825 Q430 807 438 801.5 Q446 796 455 796 Q468 795 480 815 Q492 835 504 879 L631 879 Z " />
<glyph glyph-name="caron" unicode="&#x2c7;" horiz-adv-x="491" d="M370 760 L529 896 L604 806 L406 614 L271 614 L173 806 L284 896 L370 760 Z " />
<glyph glyph-name="cedilla" unicode="&#xb8;" horiz-adv-x="320" d="M198 -107 Q183 -164 129.5 -200 Q76 -236 11 -236 Q-23 -236 -54 -230.5 Q-85 -225 -110 -215 L-76 -91 Q-59 -100 -45.5 -104 Q-32 -108 -18 -108 Q3 -108 17.5 -96 Q32 -84 38 -63 Q43 -44 38 -27 Q33 -10 12 13 L135 36 Q167 10 177 -1 Q187 -12 193 -24 Q202 -42 203.5 -62.5 Q205 -83 198 -107 Z " />
<glyph glyph-name="ogonek" unicode="&#x2db;" horiz-adv-x="339" d="M-73 -107 Q-64 -73 -42 -46 Q-20 -19 14 0 Q41 15 72.5 26 Q104 37 140 45 L235 0 Q185 -9 149 -32 Q113 -55 107 -79 Q103 -93 111 -100.5 Q119 -108 139 -108 Q155 -108 172.5 -104 Q190 -100 211 -91 L177 -215 Q148 -225 114 -230.5 Q80 -236 46 -236 Q-20 -236 -54 -200 Q-88 -164 -73 -107 Z " />
<glyph glyph-name="commaaccent" unicode="&#xf6c3;" horiz-adv-x="500" d="M301 -164 L59 -321 L-4 -236 L194 -50 L301 -164 Z " />
<glyph glyph-name="commainferior" unicode="&#xf6e1;" horiz-adv-x="285" d="M143 -172 L-56 -388 L-150 -331 L10 -113 L143 -172 Z " />
<glyph glyph-name="commasuperior" unicode="&#xf6e2;" horiz-adv-x="285" d="M258 259 L60 43 L-34 100 L125 318 L258 259 Z " />
<glyph glyph-name="asciitilde" unicode="&#x7e;" horiz-adv-x="791" d="M425 356 Q460 335 475 329 Q490 323 502 323 Q528 323 539.5 344 Q551 365 551 418 L698 418 Q713 292 666 213 Q619 134 528 134 Q493 134 458 145.5 Q423 157 365 192 Q331 213 316 219 Q301 225 290 225 Q263 225 252 204.5 Q241 184 241 130 L94 130 Q80 256 126.5 335 Q173 414 263 414 Q298 414 333 402.5 Q368 391 425 356 Z " />
<glyph glyph-name="asciicircum" unicode="&#x5e;" horiz-adv-x="792" d="M702 290 L702 73 L396 294 L90 73 L90 290 L349 476 L443 476 L702 290 Z " />
<glyph glyph-name="checkbox" unicode="&#x2610;" horiz-adv-x="723" d="M80 545 L643 545 L643 0 L80 0 L80 545 Z M533 449 L190 449 L190 96 L533 96 L533 449 Z " />
<glyph glyph-name="checkboxchekced" unicode="&#x2611;" horiz-adv-x="723" d="M712 533 L643 456 L643 0 L80 0 L80 545 L619 545 L657 587 L712 533 Z M190 96 L533 96 L533 333 L370 151 L226 331 L284 381 L372 270 L533 449 L190 449 L190 96 Z " />
<glyph glyph-name="checkboxx" unicode="&#x2612;" horiz-adv-x="723" d="M80 545 L643 545 L643 0 L80 0 L80 545 Z M239 449 L361 327 L483 449 L239 449 Z M416 273 L533 155 L533 390 L416 273 Z M190 389 L190 156 L307 273 L190 389 Z M239 96 L483 96 L361 218 L239 96 Z " />
<glyph glyph-name="squaremediumwhite" unicode="&#x25fb;" horiz-adv-x="474" d="M414 450 L414 96 L60 96 L60 450 L414 450 Z M324 360 L150 360 L150 186 L324 186 L324 360 Z " />
<glyph glyph-name="squaremediumblack" unicode="&#x25fc;" horiz-adv-x="474" d="M414 450 L414 96 L60 96 L60 450 L414 450 Z " />
<glyph glyph-name="circleblack" unicode="&#x25cf;" horiz-adv-x="454" d="M404 273 Q404 200 352.5 148 Q301 96 227 96 Q154 96 102 148 Q50 200 50 273 Q50 347 102 398.5 Q154 450 227 450 Q301 450 352.5 398.5 Q404 347 404 273 Z " />
<glyph glyph-name="circlewhite" unicode="&#x25cb;" horiz-adv-x="454" d="M404 273 Q404 200 352.5 148 Q301 96 227 96 Q154 96 102 148 Q50 200 50 273 Q50 347 102 398.5 Q154 450 227 450 Q301 450 352.5 398.5 Q404 347 404 273 Z M314 273 Q314 309 288.5 334.5 Q263 360 227 360 Q191 360 165.5 334.5 Q140 309 140 273 Q140 237 165.5 211.5 Q191 186 227 186 Q263 186 288.5 211.5 Q314 237 314 273 Z " />
<glyph glyph-name="triangleupblack" unicode="&#x25b2;" horiz-adv-x="480" d="M240 450 L440 96 L40 96 L240 450 Z " />
<glyph glyph-name="trianglerightblack" unicode="&#x25b6;" horiz-adv-x="468" d="M80 477 L428 273 L80 70 L80 477 Z " />
<glyph glyph-name="triangledownblack" unicode="&#x25bc;" horiz-adv-x="480" d="M240 96 L40 450 L440 450 L240 96 Z " />
<glyph glyph-name="triangleleftblack" unicode="&#x25c0;" horiz-adv-x="468" d="M388 70 L40 274 L388 477 L388 70 Z " />
</font>
</svg>
